<mxfile host="app.diagrams.net" modified="2023-08-31T02:00:22.810Z" agent="Mozilla/5.0 (Windows NT 10.0; Win64; x64) AppleWebKit/537.36 (KHTML, like Gecko) Chrome/116.0.0.0 Safari/537.36" etag="1agqMQ4hExRWPj5HGzcK" version="21.7.0" type="device">
  <diagram name="페이지-1" id="QZwvFwM_inGwRHb3H1L_">
    <mxGraphModel dx="4468" dy="4300" grid="0" gridSize="10" guides="0" tooltips="1" connect="1" arrows="1" fold="1" page="0" pageScale="1" pageWidth="827" pageHeight="1169" background="none" math="0" shadow="0">
      <root>
        <mxCell id="0" />
        <mxCell id="1" parent="0" />
        <mxCell id="NcdN86krktzqWG_P-AyI-149" value="&lt;font style=&quot;&quot;&gt;&lt;b style=&quot;&quot;&gt;&lt;font style=&quot;font-size: 36px;&quot;&gt;WEB-INF&lt;br&gt;&lt;br&gt;&lt;br&gt;&lt;br&gt;&lt;/font&gt;&lt;br&gt;&lt;/b&gt;&lt;/font&gt;" style="rounded=1;whiteSpace=wrap;html=1;movable=1;resizable=1;rotatable=1;deletable=1;editable=1;locked=0;connectable=1;" parent="1" vertex="1">
          <mxGeometry x="-504" y="-2407" width="973" height="210" as="geometry" />
        </mxCell>
        <mxCell id="XOWLojLKpBLkv1eor7Mp-30" style="edgeStyle=orthogonalEdgeStyle;rounded=0;orthogonalLoop=1;jettySize=auto;html=1;exitX=0.5;exitY=1;exitDx=0;exitDy=0;entryX=0;entryY=0.25;entryDx=0;entryDy=0;" parent="1" source="HEAWCpbGmRsyPqDrCjQY-11" target="HEAWCpbGmRsyPqDrCjQY-25" edge="1">
          <mxGeometry relative="1" as="geometry" />
        </mxCell>
        <mxCell id="HEAWCpbGmRsyPqDrCjQY-11" value="" style="shape=image;verticalLabelPosition=bottom;labelBackgroundColor=default;verticalAlign=top;aspect=fixed;imageAspect=0;image=data:image/png,iVBORw0KGgoAAAANSUhEUgAAAOcAAAA7CAYAAACACJ10AAAJx0lEQVR4Ae2d/W4bRRDA+zhVk7pJ48Y2SpqkpQ1p6lInpQVqhESJzFeR8wdQkrhJBUUVgoYKU6C0PECUhwh/5j3CcwyaO8/dsN293bPvLht7/rD2vvZrdn47u7N751Onx8vAfzPzSyA/kYHowPHoAGfxFD/BY2yU2uxVmH7jsvxEBqIDBeoAcsd51MKJYJ6bmpWfyEB0oEAduFC7LHBKxyMdr486IHAW2BP6qABSJn87JoFT4JShqqc6IHB62jBi0fy1aEW1jcApcIrl9FQHBE5PG6ao3lny8ddCC5wCp1hOT3VA4PS0YcSi+WvRimobgVPgFMvpqQ4InJ42TFG9s+Tjr4UWOAVOsZye6kChcE5cugnlu1/C9BePofL1M6g+fBH88Biv4T18Rnpzf3tzaZvi2qYQOKfqH0Dlq1+g9uhvpx8+i3FEEYpTBJG1f7LOFc6J2SWotH90AlIHLsbFNERx/FMcaZP82yQ3OCevvgPVzed9g0mwYhqYlihD/sogMvZLxrnAiTDVtl8ODCYBimkJoH4pjoCcf3tkDicOQ7OwmBGYvXkqpilD3PwVQqBLJ+NGZx3+/WcLjvaa0JicyXSElzmcg8wxVSDVc0w7jfLMrM7B9a15WPlpAVZ/XoDrD+dh7v2LqdJIk1+aZ0v1JhwebMLRQQvaGTdqmnIM+iwp52G3UahcG2tN2O+uw+HeZgAHAhJCgtdasLu2mDksOllR/b2HEz2sKlBZn7t6cWduXYTVpwva31xzrlBF0jXqMMBZmmzA/kEIx9HBOuzWs7UcOrk11lpBp0YwJoWHncXX2rlRb8AuQq25p8vPdu3EwOmyXFLdeQnl1haUbtyFsYVlODN7Bcau3IRS40OY+nwHajuvEgHHPGwCw/vLmyGYc3fnYKJ8MfjhMQJ747sFpzRc8un3mWGAE+tOypm35SxNLkK7G1vJo7112O80oKF0CKX6IqBV1QGIaez2LO1IwYmbB2xWsrL5HM4uvxsAiVDqfudWP7Km47JR4eaTEM7JWjyHmJgOrenKU4Gz307lOOJxqNBC76+9bhFdysXTGSk4cXdPEpyVnZdwdvlOAOTZpVuBlaxsdIM4lY3foPzZNoTXHyWmg3lgXrbGwDkmWkn1ORrqqteLPh8Wy1mE3Mg64xB2f63/ofPIwjl9/4dEqM6vfRuAOX7tDlS3X+iftQxpCX7My6YUaB0FznjUYJOXr/epE0MwB7V2Iwunbb5Jw9ny/cd6MB239iGgLvPOFcVyksV0DfNWVlK6Qby1JXJuKB5L8la61iHwfO6FSwLkYME02vUZsCk0zQOPNN5asnh0D9NqozOm50TCvI56nlVTWaP0B/BqUzmobrqQW+TSWiv0/PbyDGTQjeXDOwlK22tvbbXzZyJ0Y/PXAstptJop4MS8TI1J1wlC9Zyu20KKl1c4CJyk5Dol49dQ8ZOWaTh4PB4/xvldkhMlgscCJ9WXp82PucKTzLk3WHefnrOFBBDPTz02w9mAfbXzY55eSntI4EyGmIauSaELnGqD2WBU76vxsz4nZe3HchIQqGDoJeUeS/RWtjvxcoMJUA5m4GRBzydbbw2taewdDfJiSknyoLKQdaTrGEaK220FSy5BWeqxM6dRb0aKr1uKiS1YNss0vM5JsMf5tmC/21uLVrzCVM+ojj5vQnAd1l64/32ihU2Cku65DGtJeBSq8NnOKV5eYb9wkuIgLEleS0rfBBUpVZiO3snCldmUjgucGNdkWZLKSWXspwPTtRuvjwucQbkt67dRGX2G0+oQuvcg9NQurkK184cW0MrGr1Dd+l17j8DE0MUhpDaODUb1vho/63NSyjSKx5VLZ6nUMkaKo8zX0qRD5RwUTj5sVMsZAa4ouKn8anzXc15vVziTnsN8ozIqZXctU9JzmW3fsy2lVB+9gvGl2wGgY2++DVOfdCBYStl5BZVvnsH5jx/A+KV6sA5a3f4rEVCXpRS10ip8tnM1ftbnpPSp4Iy2/LkN8ygPBIvDQdd1Q0m1njaFjsBKmnNaFNek4NF1pXNRy+h6bqsLpUOjExf5RGW01JHSThNmBqfTJoSNLuBSim7zAV2beO9T6y4hl00IqhBsMKr31fhZn8eAJDtteL6x0rjFMSljmnRMaVC5soDTVJ5I8Y8NTrucozL6DCc2lm3eiUNStKDn7z0IdwrNL8GZubdgbHEFJm634ML6k0SLifH7mW9i2VT4bOekfHmF/cCZVhFMYKVJx5QGycUJTo1VpfgYmuCMr7uNFHiaumNbXShOnO8QwenTxncSNIU2GNX7FC+vUOCMN0iYYCAZqcPyfttkpOFEofn0yhhvRBU+2zmPm8cxKV6aOWdk8RyHeVwZ+ZwzSsdhKMbT0DlHcrWc/K0Xh7La2slWF4pv6izoPg/TyJLHcznObM5JmcnL1rFFIJnown7gjOO4DfNMz6dRPttGgDzhRLmR8mdhPUceThSofKbEDmgMjn1eQ3BzUFItpShWh/I2LY9QfiocRVtOzP9/dXYcMfDy82OBs/eBXgQ0i8+VDOsHvgiQNMNaFRbXTQh8SEvKGlm8hEV2KiNCbAI5Skfj9CGrZ+tIbJac7mMZAnkZdutQ3UwhhzOpTJSfS9tEdVQ6QFMZ0lzPfFjLM8ch7iBzUIw7rN8NIsV3UQAuU65gATDq9j3cXM6372mgwfQo/1Dhw3ckafse5kFfHMAtd7S39DgsJ9UdgeEb5g+7TWjji9VsyyE+20h42Tq4T9/8wU7J8F7oSMBJgkUvrssyC+0CwmddP0dCeZy0kMOBgCT91F4+AJS9JWGKG+y7VZSXy8lWhnBfbjYb33m+6rErDPgWDnUUpjrz67rOxFRnPrpwLQ/W48RaTrURcPMA7u6Rv2P4v+XiCqU7VuEkuUbfw+GvYB2sQ2hV9PtlKS6FwUb5117j6n0CZDLbV8YoTzVMAwPGjeqtvC2CsjvEz5d0m0ariPF1kI88nGqjyLndcXTcMuIOGa7Ax12uUcg/1znnKAhw2OtIw0CXfabDLoui6ydwevr3b0Urgim/POdUpjzlejiiEjgFTuNXJWguGMzlNC9aC0T5TksEzhGFEy0iOo6CL6Mr64bkcCHnlOlFaYFT4DT27KIc/SsHDVcJQFOIAKtriSL3/uWeRnZiOUfUcqKSJP7fSG+RP40yybPZQitwjjCcAlO2MGUtT4FT4JRpg6c6IHB62jBZ98KSnt9WUtc+AqfAKZbTUx0QOD1tGF1PKtdOnvUbpM0EToFTLKenOiBwetowg/S4Enc4LKzAKXCK5fRUB5zgrM1eBXxQfiID0YHidAC5Oz1ejn6n+Ikcx4IRWYgsjlsH/gPAZS53QuODrwAAAABJRU5ErkJggg==;" parent="1" vertex="1">
          <mxGeometry x="-775.0042857142853" y="-1543.002857142857" width="231" height="59" as="geometry" />
        </mxCell>
        <mxCell id="XOWLojLKpBLkv1eor7Mp-45" style="edgeStyle=orthogonalEdgeStyle;shape=connector;rounded=0;orthogonalLoop=1;jettySize=auto;html=1;exitX=0;exitY=0.5;exitDx=0;exitDy=0;entryX=0.5;entryY=0;entryDx=0;entryDy=0;labelBackgroundColor=default;strokeColor=default;fontFamily=Helvetica;fontSize=11;fontColor=default;endArrow=classic;" parent="1" source="HEAWCpbGmRsyPqDrCjQY-13" target="HEAWCpbGmRsyPqDrCjQY-11" edge="1">
          <mxGeometry relative="1" as="geometry" />
        </mxCell>
        <mxCell id="XOWLojLKpBLkv1eor7Mp-46" style="edgeStyle=orthogonalEdgeStyle;shape=connector;rounded=0;orthogonalLoop=1;jettySize=auto;html=1;exitX=0.5;exitY=1;exitDx=0;exitDy=0;entryX=0.5;entryY=0;entryDx=0;entryDy=0;labelBackgroundColor=default;strokeColor=default;fontFamily=Helvetica;fontSize=11;fontColor=default;endArrow=classic;" parent="1" source="HEAWCpbGmRsyPqDrCjQY-13" target="HEAWCpbGmRsyPqDrCjQY-20" edge="1">
          <mxGeometry relative="1" as="geometry" />
        </mxCell>
        <mxCell id="HEAWCpbGmRsyPqDrCjQY-13" value="&lt;b&gt;&lt;font style=&quot;font-size: 24px;&quot;&gt;login.jsp&lt;/font&gt;&lt;/b&gt;" style="rounded=1;whiteSpace=wrap;html=1;fillColor=#fad7ac;strokeColor=#b46504;" parent="1" vertex="1">
          <mxGeometry x="-395.1199999999999" y="-1991" width="169" height="53" as="geometry" />
        </mxCell>
        <mxCell id="NcdN86krktzqWG_P-AyI-160" style="edgeStyle=orthogonalEdgeStyle;rounded=0;orthogonalLoop=1;jettySize=auto;html=1;exitX=1;exitY=0.5;exitDx=0;exitDy=0;entryX=0.25;entryY=0;entryDx=0;entryDy=0;" parent="1" source="HEAWCpbGmRsyPqDrCjQY-15" target="NcdN86krktzqWG_P-AyI-150" edge="1">
          <mxGeometry relative="1" as="geometry" />
        </mxCell>
        <mxCell id="HEAWCpbGmRsyPqDrCjQY-15" value="" style="shape=image;verticalLabelPosition=bottom;labelBackgroundColor=default;verticalAlign=top;aspect=fixed;imageAspect=0;image=data:image/png,iVBORw0KGgoAAAANSUhEUgAAAPcAAAA+CAYAAAD3a40vAAAKTklEQVR4Ae2d71IcRRDA8zipQC4QCHdYECAxQUIu5iAmarCsMlL4LxZ8UCNwgZTGSlkaTHlGjYkPQPEQ+JH3wOdoq3fp3b5xZnbmdi7sLv1hmd292Z7env5Nz8zOLqdOD46CbGID8YHq+cApqtSJ6TmQTWwgPlANH0Cuu+Aen7wKY29clk1sID5QYh9Ajv8HN4J9bmRSNrGB+ECJfeDC+GWBWxoyacir6AMCd4lb5io6pNxTuIZW4Ba4petdUR8QuCtasRIBw0XAstpS4Ba4JXJX1AcE7opWbFmjjegdrschcAvcErkr6gMCd0UrViJguAhYVlsK3AK3RO6K+oDAXdGKLWu0Eb3D9TgEboFbIndFfaCvcA9dugmjd7+EsS8eQ/3rZ9B4+CLacB/P4W+YR1rrcK212FJsST7QF7hHmh9A/atfYPzR304b5sVrSClJxUHFB/L7QFC4hybnoL76oxPQOvDxWpQhFZu/YsWGYsNgcA9ffQcaG897BptgRxkoS5xTnFN8IJ8PBIEbYRzfepkbbAIcZQng+SpWwBD75YYbu9EhInYC9tE4HWVKF10c9CQ0Uq32Gvz7zyYc7i5Ba3giWK81N9x5xtgq0Ooxyvap3InFKbi+OQ0LP83A4s8zcP3hNEy9f9FLhk95PnlrzSU42N+Aw/0VWA1YgT46SN7uxrK1vAR7nTU42N2I4ELAYsjw3ArsLM8Ghc1k/0LCjTPcKpChj11n0SduXYTFpzPabWpp6tgBF7i7wTI5uu/5VrMFOwhoe9a5jlvLK1FDSzDbUp3cXsq03Vch4XZ53NXYfgmjK5tQu3EXBmbm4czkFRi4chNqrQ9h5PNtGN9+ZW0gsAybYei3+Y0Y7Km7UzA0ejHacB+Bv/HdjJMMktWPVOAOD3dteBZ2jqKuDkK1HjH/aieN0oe7a7DXbkGr2d0VrjVnAaO6rtHwLVPVQXdcOLhx8UlWlK5vPIez8+9GQCPUuu3c4keZclwWutx8EsM9PJ460dBYHM0XngrcOqcq+zkf0Hjew/012Ft2j/TcTlyOS4PCrzXtFw5uXF1mg7u+/RLOzt+JgD47dyuK0vX1TnRNff03GP1sC+Lzj6xysAwsy2QYOo9jbIzSdEwpddXp+LhSidxpoxuqDnxAI4CwC7633B2pffTxKdNVLulWmAm1sfs/WKE8v/xtBPbgtTvQ2Hqhz5vRJafGA8vKMhRGZ4E7PEBZdj/O311Bo4YVwc4bbV3L9LFL4eDOGm9Td3z0/mM92I5LUxFwl3H3ghK5KWK7pj6V0UtecrA8s+U1mjxSZndpZtdVr2iWeDd+/EKTSShjtTkBPs7bqz4+ZdAY+bDTShp4goF016U8Oicycjyp8C2ztrwSz7wflRndcye1OW9kSHZhInej/acV2oHpa1HkNkZtD7ixrCzHJYgpHx27pnRdv9I8cKNjrDLH0DkznjtEQC2P2ThUJhk4Fs2apMqrD9eDO7nO9gmYPcJdG27B3n48iZZVlq58OkcAmuyG53mD0g13C/bUBpnN7pPsEsJtbwSo621LXeCmSqDUFWrKR9f1K80DNzk4OtBBp3t2F2d2V9vpox0T4ByoaEIJZ4lZQxBH83QmOSqLOSC3S159uC5ZwFFZPHKTLi5yUsjWYEeZFSc5PqlLmSgvLXcF9jpH6xsM5RcObtdu+YX731sjvA1q+s2lW65WEEHrmqrXhz7uFW5ykjgymGd4Sb4JSnKgWI5+Qok7rklOCH14Of2Gm+47z3CI+4Kr7txO2JjaGpZEx6KsUMucULv3IJ4pn12ERvsPLeD19V+hsfm79jcCG1OXCTVeAbjvCjXlU68PfUzw+TgZdyRd5FJ1TJxEGVv6yCE9dXD7yEHdXPQ5CXBn3WNip6LAnfUorPHoFQzO3Y4AH3jzbRj5pA3Ro7DtV1D/5hmc//gBDF5qRs/BG1t/WQF3eRSmOjpB65qq14c+Jmi84E6WrNpbftKVylCjM53PiiAohwOsOqWPnEjWkf7/08dj8UnebnkCjtLgkc18U5t9uCyK3C42T3QsCtxOi1jWO4CPwnSLV+jc0HufZq5Sc1nEwg2L+65QUz71+tDHKRj2SS9ebuogbteYHM9HjkkG6uUjJ8pvgNhWBr9/3C8/3Nl1Vzi40fBZ427sUmMEP3/vQbxSbXoOzky9BQOzCzB0ewUurD2xRmy8vpfxNupG0LqmqlOFPu4Fbt9KN0HjI8ckA+3hIwfzm2SZzutsnhfutEFy6/3odODnXHVPyy0p3EV6cYRXAO67Qk351OtDHwvc6WSgKyBYB7nhNgwNeq1fV91LDzcaqEivfPIKI2hdU35tP/Zzwe04XuSOx5+5+kRcLkMdcydycupjK0O1fW642XPuEM+RXXWvBNzysQa3JZ+9wJ1e49alNOX3cTTbog+TfBVIOjbldwaEjdl1Twtc5VCjpE7skZ4+qWuZPjYn/UI0Pvxecn+sAYXJZ5ayAU8dPXsMRhXEQdM5N+Wj1OQkVLbu8RZdSynJ0OUNpQ+WlURkywwx11t3/86g8ejt2Osge6ipc5nK8lNVDj8mmxcSblQUAQ/xuaWqfiCRHNXnURjalSo+jjrpuJU7B+6TfFN0SmCyLKjgMnRwh9SH7sv0qIhDhLpkwa37nduIImkkCwE3rBbj1+j2uV62Mqk8l/pObGFp6HS6ZJ0LErmpEOyi5xmD47VV/W4ageNS2WRPTLkzRcCpy09x3TlffsrWYHfJYRNLCBSuIaflp1gGfZ0El6/SOmh1zB1Un65ouhZ90oj0xRdSUAe0FS7dNMGN+RMwsNHKeEcbgcNPXaG82JZLsIofZmDLcCOZlo81uJZZObipcnAW3eUxGa1Cw7yun1OiMsqWEtzkWLZUjQgR4A4vjkTrzhVH5XbK0iFel+724gh+pcR2DzE83evXuS64TwDo5MQN0ETafXdotLgcPqHIy6WGg+e17WsbONZQ8mt5mXRvLo150kAVOXJzI+I+Lj7B1WXy74S6u83cIXT7Ktxk1+TbXSz6IAQHHYxA+vXidC2l0Ysm+M0xLoM+NzTs98pnGH0wSnc3FPT6KeqcDCcMcGMeHbAcNLp3nia6K29rYX0coD06S9aeQFaZlYebG1P2syfdimAjPmmWBUgR9BUdzH4VdMwthjYbuiy2oa67aaKrLPchek6CwF3Rf9/aq3P3a/zXqz5yXe8BQ+AWuJOv3NA4MRp3Gj7UILD1Dtvrtp3AfULgxoiME2/Rf9FQJt9ocokm90IvpnjdTi3lxQ2QwH2C4CZ4bSk2AOpzX4GlPNGa15XAfULgxkq3/m+s6HGaeQUcdxrZLwfsAvcJglugLAeUoepJ4Ba4kwm1UE4lcorRiAjcArfAXVEfELgrWrESPYsRPY+zHgRugVsid0V9QOCuaMUeZ8SQsovRaxC4BW6J3BX1AYG7ohUr0bMY0fM460EL9/jk1eiNEvxRNrGB+EA5fQA5Pj04Cqfwj2xiA/GB6vmAwC2NmzTuFfUBgbuiFSuRuHqR2LdO/wOuel1t35jYlgAAAABJRU5ErkJggg==;" parent="1" vertex="1">
          <mxGeometry x="-802.0042857142853" y="-2524" width="247" height="62" as="geometry" />
        </mxCell>
        <mxCell id="XOWLojLKpBLkv1eor7Mp-24" style="edgeStyle=orthogonalEdgeStyle;rounded=0;orthogonalLoop=1;jettySize=auto;html=1;exitX=0.5;exitY=1;exitDx=0;exitDy=0;entryX=0.5;entryY=0;entryDx=0;entryDy=0;startArrow=none;startFill=0;" parent="1" source="HEAWCpbGmRsyPqDrCjQY-20" target="HEAWCpbGmRsyPqDrCjQY-23" edge="1">
          <mxGeometry relative="1" as="geometry" />
        </mxCell>
        <mxCell id="HEAWCpbGmRsyPqDrCjQY-20" value="&lt;b&gt;&lt;font style=&quot;font-size: 24px;&quot;&gt;Term.jsp&lt;/font&gt;&lt;/b&gt;" style="rounded=1;whiteSpace=wrap;html=1;fillColor=#fad7ac;strokeColor=#b46504;" parent="1" vertex="1">
          <mxGeometry x="-396" y="-1851" width="169" height="53" as="geometry" />
        </mxCell>
        <mxCell id="XOWLojLKpBLkv1eor7Mp-25" style="edgeStyle=orthogonalEdgeStyle;rounded=0;orthogonalLoop=1;jettySize=auto;html=1;exitX=0.5;exitY=1;exitDx=0;exitDy=0;entryX=0.5;entryY=0;entryDx=0;entryDy=0;" parent="1" source="HEAWCpbGmRsyPqDrCjQY-23" target="XOWLojLKpBLkv1eor7Mp-5" edge="1">
          <mxGeometry relative="1" as="geometry" />
        </mxCell>
        <mxCell id="HEAWCpbGmRsyPqDrCjQY-23" value="" style="shape=image;verticalLabelPosition=bottom;labelBackgroundColor=default;verticalAlign=top;aspect=fixed;imageAspect=0;image=data:image/png,iVBORw0KGgoAAAANSUhEUgAAANIAAABACAYAAABvNykKAAAI3ElEQVR4Ae2d/3LbRBDH+zgdkrpJ48Y2k9RJSxvS1KVKSgvUDDMUj/lVxvkDKEncpANlOgw0dDAFSssDdPwQ4c+8R3iOZVb2ypfN6e5sn1Tb2j808km6X6vv5/a0OiWnTk/nQTaxgWhgOA2cEgMOZ0Cxn9gPNSAgiUeWGYkHDQhIHowoXkm8koAkIIlH8qCBEyAtLK2CbGID0YBZA3wWogWptHgF5t+8JJvYQDSg0QDy4QQSQnR2blE2sYFoQKOB86VLApIMEDJADqsBAUkzugxrVMmfPTAFJAFJpmoeNCAgeTCieKDseSB+zwUkAUk8kgcNCEgejMhHJ0lnz0MJSAKSeCQPGhCQPBhRPFD2PBC/5wKSgCQeyYMGBCQPRuSjk6Sz56EEJAFJPJIHDaQO0szFG5C/8xXMf/kICt88heKD5+GGv/EYnsNrZFTP3qg+zvc8NZDmKh9C4etfofTwH6cNr8U842xcaXt2BoPEQZpZXIVC4ycneHSQYV4sQ0SZHVGO471OFKTZK+9CcfvZwBARWFgGljWOBpY2Z2MASAwkFH5p98XQEBFMWJbAlA1RjuPgkwhIOBXz4YkiiLrPVVimTPMEpmFAC5qb8N+/O3D0qgrB7IK3WU4iIA3zTMTh4Wksux9DLmyU4drOEqz/vAwbvyzDtQdLUP7gQl9l9FPfoNfmKlU4PNiGo4NN2K/4u8G8PSSkw1aQqg2CWhXarU04fLUdChnF3BE0HqvDfm3Fq7B5vylN/R95kDDSxsXvO+0azVu4eQE2nixrt3K1nKqQ6EbG7dMAKTcbQPugI+SkgaV+BrV6OEAQOKb9YXPlxD0JKgHsI4Cac1RHP/uxAcklxF3cewH5+g7krt+BqeU1eGPxMkxdvgG54COY+2IPSnsvjTBiHS7GW9vuQFS+U4aZ/IVww98I1/Xvl53KcKnHxzVpgITtJCEl7ZFysyvQaPW8z9GrTWg3AwiYt81VVgC9lQ4WLGO/68EyBRK+SLV5n8L2Mziz9l4IDwKk285ufGwtx+Wl7Y3HHZBmS73nipn5jpdaf5JNkHxAbytDBQA9X7t20tPYysDzajmZAglXJZhAKuy9gDNrt0N4zqzeDL1PYasV5ils/Q75z3ehc/yhsRysA+uy3Qx8JkLvw6+j6R4//jrTaXmkNPpIXg+nce3a4M97mQVp/t6PRgDO1b4LIZq+ehuKu8/111qmdQQq1mUTBXodAannjW328nGeBgSEaFgvklmQbM9HNKXL33ukh8hx+RDC5PKctM48Enki170PYbmWQQJ0CQLk6AGcRcAo+mWqk55bjjRRO/IkdA6F3MAH/W6AAuE46kbY4uqIyj+oQ2PA8DK1wxSYUD1drlbvRAC7dYYAtjphbg40lT3SUbti8y8jIFNLV0OPFOuN+gAJ64q7mXScgOFpOm7bU7409i4gkbBNAiOxx4k4EroFJGpPXF06b6NGBXXnXe1IYo+rG4/HgxRAmw8wSsSPyp4QkMzA0fTNtHcBid84Gzj8PM+fZJqEa/JIBAEKCaNuagQMo1+NZi/UjJ5DBxOVQV5H7VMkslY9DJOHZVR6gYKgUo1EqmtnzzP4eRfmOrXr1VuHdgvfxdWhwaKD1M+oj6P8QtZ1anf+3g9Gz2UCiM65TO3IeLTnoNjSlC+NvQ0kEktnNO6Jm7eNyglhU0Zius4FJMwbN2Kbyo9EOsS0jtqJ+35BCttteaEdtXGUQbIGG+7e70TsVjag2PxTC1Nh6zco7vyhPUcQ4d4l2KDeFPxtA4ef5/mTTJNAtSO98j5F50l4uyKxaATtCpI6deLlR2UwMZrq5WW4pAcByTaljNrI2u7SHtM1XpcI2cLfxYcvYXr1VgjT1FvvwNynTQjD33svofDtUzj3yX2YvlgJ3zMVd/82wuQS/uYd56DY0jx/kmkjSH0uH6KyOt7rePg5gsD0jGQRWZwYo+MagAexXb8g6QYhXm/URksfeT5b2itITi9kt1qA4W/di1g6NvP+Z9bVDS4vZHnnbeDw8zx/kmkSv04MNK0L5/4OkTCTAH2AFNeeSKSvDST9c6F636I2jjJI2GDbcxJOy9Aznbt7v7PCYWkV3ii/DVMr6zBzqw7nNx8bPRHmH+T5CNvGQbGl1RuQ9G8TSP3e/KFB0ngrtf9xIPWOv75ggy7Aora9X1uqeU2/vXokrGiUFq3yjtvA4ed5/iTTEwFSdwqqm1IOYjvTgKCW1wN4gjwSdnCUPqNQDc5BsaXVvEn/dgLJccqkCpAHDZymdoN6JHV1uYepk9oPUxBhYkGSD/v6X5ZjEoMJMh3gpuuTBAnbQlMnH14p8yChQeVT8/5gIgHqwtvqigHdeQ5TVJbGKyQN0rG2OnpQ3n5KC0jdP7iHMPn45HzS//iJKj4+FSNRERydkd7thayurKRBwvaSd8W2mlYZUN/i9ipIpgGE6nOJapId4144x7XFdtx7sIFXiNO8YZ6ZMO8k/52GcAFqd22Y6eaqokKBnlgihAtM1SVCMc85aYCEGkBxq4tdD1tVaOBHfCx8Hxg+7MNyIuHjioWY75oyARKBhdE8l9A4rV7Aa10/Kac6xmVPYkYgaHMZuUOYlFXNlJfvQ8iYYMk2VLduhI9EGwMhleEqXBwk+AJS3lY1rQso0POeeh3+Vr2ta3uw/VEfNdNe6t8g+8Q9Em8UvkjFVQlZ/pPFJGYUBL6ANQmf2w/T0d8xUD9vCMvBUf/4Sgaen+pOAySqO2ovW5WN/T/ET9Bb1Vhvg2XogMw8SGRc2fcXjBB7jba9UvdIIojRFoTcn8Huj4Dk4V96iPgGE98k2U1AEpCsXxpPkuCT6ouAJCAJSB40ICB5MGJSo5yUOz5TRgFJQBKP5EEDApIHI4rnGB/PkdS9EpAEJPFIHjQgIHkwYlKjnJQ7Pp5OQBKQxCN50ICA5MGI4jnGx3Mkda8EJAFJPJIHDQhIHoyY1Cgn5Y6PpxOQBCTxSB404AxSafEK4MWyiQ1EAyc1gHycns4f207xA5I+biCxh9jDRQP/A3BjumZXoSnuAAAAAElFTkSuQmCC;" parent="1" vertex="1">
          <mxGeometry x="-416.5" y="-1713" width="210" height="64" as="geometry" />
        </mxCell>
        <mxCell id="XOWLojLKpBLkv1eor7Mp-47" style="edgeStyle=orthogonalEdgeStyle;shape=flexArrow;rounded=0;orthogonalLoop=1;jettySize=auto;html=1;exitX=0.5;exitY=1;exitDx=0;exitDy=0;entryX=0.5;entryY=0;entryDx=0;entryDy=0;entryPerimeter=0;labelBackgroundColor=default;strokeColor=default;fontFamily=Helvetica;fontSize=11;fontColor=default;endArrow=classic;startArrow=block;" parent="1" source="HEAWCpbGmRsyPqDrCjQY-25" target="XOWLojLKpBLkv1eor7Mp-1" edge="1">
          <mxGeometry relative="1" as="geometry" />
        </mxCell>
        <mxCell id="HEAWCpbGmRsyPqDrCjQY-25" value="" style="shape=image;verticalLabelPosition=bottom;labelBackgroundColor=default;verticalAlign=top;aspect=fixed;imageAspect=0;image=data:image/png,iVBORw0KGgoAAAANSUhEUgAAARgAAABACAYAAADBJGiiAAANQElEQVR4Ae1d73IcRxHP46QiWZFs2XeiLEtKiIXiKPiskAAWRRVBJf7ElPQB4lhWLBeESlEQkeIIEGweQKWHEB/1HuI5hurZ69nevvnTs7d7Pun6w9Xu7Mz09Ez/+je9M7t7r70+u2j0p2OgGFAMtIGB19oQqjIVrIoBxQBgwBLM7dUNoz8dA8WAYqBpDDiCWVq+a25952396RgoBhQDjWHAEQyQy5s3lvWnY6AYUAw0hgElGAVTY2DSCUonaI4BJRglGCUYxUBrGFCCUXC1Bi4+m2l6+iIcJRglGCUYxUBrGFCCUXC1Bi6NWKYvYuE2V4JRglGCUQy0hgElGAVXa+Dis5mmpy+iUYJRglGCUQy0hgElGAVXa+DSiGX6IhZucyUYJRglGMVAaxhQglFwtQYuPptpevoimsYJZv6t+2bx4W/MrU++MJ3ffW26n39rf3AO1yAPyijYpg9savPps3ljBHNj8yem89u/mqXn/xH9oCzUUdBNH+jU5tNj85EJZn55w3T2/iQiFR/5QF2QoaCbHtCprafH1iMRzMLdH5juwTe1yQUJB2SALAXe9ABPbT0dtq5NMEAIS89ejEwuSDIgS0lmOkCn5DI9dq5FMHBL00Tk4shlsG4DMvV26eqDr3e4b/7336fm4mTb9BZua+R6hXcyaxHMKGsunFR4GmTnzHC3t1bMe09XzYM/r5mtv6yZ9z5fNSs/vpMlI6e9nLJzCz1zenZQONPZvjnerO9Mc5vb5tzJ2jV7l9gxLyPBUFsCOfp+Fyf75vxk1xwf9kYmzrmdXdfG6U593ABe5zZ75ri/a85PCmJH3S/OBvrurLfmL9kEAzs/nBSaTkt3l25/cMdsfbXm/a1sr7Q2aFKS4aC86Pdq64ROaWf+MyUYqQ2aKsdtiU4aOwLZ7NWYVOYW1s3xSTExWXvXxA0QyymRE9P1AoixBaLJJhjJVnT36IVZ3H1q5t5/aGbW7pk3lt8xM+/cN3O9n5obvz4yS0cvoyQFbUiAce+gIJeVhytmfvGO/cE5kM77v18TyZC0U7cMByXMGHWimGE5SjB1bVK3HrVBKKLoba6bvUOIFAg5nO2b00zHpdGqJZgauIEICCNekHHe3zZ7m9VIZQ71HUTGttxhtUzd8cJ6WQQDD8ilopXOwTfm2r0fWlIBYvH93tz6WVKO5GG8+18WBLOwVK5bzN8qopoHX00OwRShaAG68xoGxOjFhuBnB+ZCI5ixTx4SgkGngmNvp7ylBccNkRKtg+fc3rmOTwnKYiURRUHEtNcvSTFHV9Q5dMwiGHgKN0YwnaMX5tq9jyypXNv4wEYrnSd9W6fz5O9m8VfPTHH9eVQOtAFthZTG67DmAtEKpvGIt02YflVHBCUQzGl/sLCZSQ4oo5iFillJCaacUMZlW2oHqQPaW5TMdTN6e3R+2HOOL10Qp/VzcFK3Xmr8swjm1qM/Ronh+s5nllxm3/3IdJ996y+buD1CAoO2UspDlHIZCKaYwcoF35woBhf7LFgGC385wEmN4avIL2foy7OLVIdgYGzRftIoBMvj7TSmCwylF3txbKXlqf1pH0dZL6Qyswgmtf6Ct0aLj77wk4vwNQIgGck6zAMWwWDkIj3SgWjjnBoMZj00vpQg6KwCpIRgk9SHEP2U7RoUi47he2yn32D7uNh9KHce7K1ev7pDAjradQdyHw+3crF1h6F2FtZND9YM2NpFsW6QdiqwXZ3+8vG04z2INDkhcFtK8UJtKIlC8FYFy9J2U06f25avD679zEjbJwuuZRFM9/BfUeKYWX3XRjDB6CWDYKCtkNJ4HYmEp/F66oj12jpScADB0HtjSZhdOkCxOFymw4u81uGJk4Cj8F8ogqo4PtkW5/Ur4CekwMuJ2mE7JlyGvb2MbNOO0t/qeA7vuFD9uS1zMOPGNbFYS9ugbUudPhdfvj7gmIAdJBj1yaDXWiKYOBHhbVDsKCEY2hE4TxEKz+f1m05TwKCxHFgSD5lVZqPBNiUaPxbBOPmw7kOex+COiPrQPjtHgOc5YDH5BHYeigiC14f1AdxKhXN8YI5ujWKYT9uA87KdbXPch0Xrqq62DFkkDcmBcqP0l47nqdUjvK3ssyXvVygtdXw3LoyIpPXL/tTbrQT9aT8pyYX6lrqeRTDSW6Sbj/4QjXRixIJ5klsk3jlOIKk0r990mhoLHVoMlkEEQZ2rBJA/gsH82OxTgnhYBuZBfYxS+JigQ2Ok4QMh7bcvv9IOcybaHpXjuz0Ytb+0Ph1nqgOeU13QlpiXOkps7ptQUG4lLzIx4bjGJiCUGTrSfvrGPFQvdD2LYJKLvB8/LnaQ1rdM9/CfXpLpPPmb6T79hzcPyQWOkkVe3qkUofB8Xr/pNDUWgrIClsgDVOjI1MjoED4ASeX6dMJ+lwANz4DUWUIkBPJ8+vN2gKR8BITl4Fj2uapTE/1F2SI9yFPZaEuqZ+ycjnmov3RcffIltnFlIiQU09OON7llpdhL1QvlZxFMapu6+/ylmd340JLMzHe/b2784tDYbeqjl6bz6dfm+s8fm9m3Nu1zMt1n/46SjGSbmneKE0gqzes3nabAoqBBYIdmzRDYynrD0QfWCcmkfUPn52B3AI0s8NE+8fq0DSfLA3aXF2kHZdH2KmPoifCwDj+G+luOZ5W8eH1Ih/TwleXXaN3QmKGOvsnDtk/WxJIyPGPOdQqlpcQdqs+vZxGM6EG7J30D29S+B+zw2vyPfpl8mlfyoB3vTIpQeD6v33SaAqviHIlZwoGNAaV0CA/B4BY2q+Prk5PPIijn+BEZoT7xdmKyYnlcDgU8dSw3FhFdUVaov07GCESHbcSOSP4QKVEcYB06pqGogY5DiITcuAr6g23zI9WFjjcvJ01nEQwITa3DwO0NRDLXP35cPNG7umHeWPmemVl/YOY/3DU397+MRi5Qv876C+jGCSSVlg5S3XLUWBxYIXDXqQP6IbhwbURy5GBGGbFbn5h+dJxismJ5VAacU8eigEcZkn5iGd7fkA24DoUe5XNM3Ja+8vRa2Y4/UsJ80DMmm/bZVw7zJVEs1Y+eU/vS8aZlcs6zCWaSXnbkHU0RCs/n9ZtOU2NxQNA8asgSJJEoxTNDYT10JsmROxzKUIIZflKY2ovbMoUbF0F57AZ1MV9iMyzDbQdyUpFSSk8rAyPhyOK7RA6WySYYqDhJn2vAjsCRE0gqTeu2cZ4CpXPoAfBoeUo6qBvOdL4Q2ckS3DKgPH6UyKA6xhwtJiuWx3UKtZcjg8vEdGw8sQweQ3pgfuhI63ltStZWkDwkR1+UQtuKTRIhXeE6kl3d+lx2LYLRD04Nz3B8YCFNDe5zRp6fAnwsP5bn0813TeK0XGefHLgWk+XyAjM6lYmzMneoJvqbI0Pab6o7nDuHDfQ1ZyxAHo4HkJCPsFAe5Pswx/Wj6ZRsWlZ6XotgQLh+MjNNMhJQIiBgxigfXPM/zh9zCElbKVBQXfDBOV5H2k5MFuZJnMA5KIvMpHpw/Wk6Np60HJzXaQ9ef8BoxEcGdH3Jd8vDdSj0KL8V44syqJ6+SNcnc0hugAxDdWPXaxMMCAWSaeLTmVf1o9/U2KHZhM4aAEY+U1PjpRzCOSMAJPGKPpWL5+j4PuBiGUmfoGxMFuYV/R1ea3JtEQf1jd+o/U2NJ+oBR2m/i7Lw+YPyHa5ztluHcrF9CdFiHSs/MS5ULnxIKoUFSnS5ulC9fOcjEQwIhNulUdZkoO5V/Q6vFJToKNbhAmCkwArNTLQ9ICp44ZBGIgCkHnw+ET6K5GkHHX9cBFN+32a/8jU10JO+QBnSZ9T+oiOGxpM6DG3LR3ZubPvFaxZgS/j5IheUi3aXtI91LA7IQ3+hyAf6hh+cAiyAveGDWFSO/UAW0bfAjOzlUiondj4ywaBw2F2SbGHj07pQVvppTGzjsh1ToMT+YBQTi16grMQh6LtACHLf0QfM8RPMdvEWNXkTm+saIpdy7IZfUuQyIO3rr2Q8XTvEqX3y+bVU5ECxESMhbJ8fJeQkxYIdH0Gkw3WQpBsjGGwMHpCDp3D1r2PzwmoATNKZ3BZi+LYC7OAiAPams53JIh+lfiUEswBvmcNHqctbCgC8/Xi28FOTdfvbJMHg2NoXTAW3p26sa24H46RkxyrxlUQbtUKkwvEAL7V6PqWJvtzEsXGCaUIplZFeQNYx0jG6DBhQgrnC/0lzGQCoOl5tolSCUYKpLPypw19thx+3fZVglGCUYBQDrWFACUbB1Rq4xj1banuTF30pwSjBKMEoBlrDgBKMgqs1cGlEMXkRxbhtogSjBKMEoxhoDQNKMAqu1sA17tlS25u8iEkJRglGCUYx0BoGlGAUXK2BSyOKyYsoxm0TJRglGCUYxUBrGFCCUXC1Bq5xz5ba3uRFTEowSjBKMIqB1jCgBKPgag1cGlFMXkQxbps4gllavmtuLr2tPx0DxYBioDEMWIJ5fXbR6E/HQDGgGGgaA0owSq46uSgGWsOAEoyCqzVwNT0bqrzLF2EpwSjBKMEoBlrDwP8BbrxhT1gPGDEAAAAASUVORK5CYII=;" parent="1" vertex="1">
          <mxGeometry x="-451.5" y="-1021" width="280" height="64" as="geometry" />
        </mxCell>
        <mxCell id="XOWLojLKpBLkv1eor7Mp-1" value="&lt;font style=&quot;font-size: 72px;&quot;&gt;&lt;b style=&quot;&quot;&gt;MariaDB&lt;/b&gt;&lt;/font&gt;" style="html=1;whiteSpace=wrap;shape=isoCube2;backgroundOutline=1;isoAngle=15;" parent="1" vertex="1">
          <mxGeometry x="-526" y="-858" width="429" height="427" as="geometry" />
        </mxCell>
        <mxCell id="NcdN86krktzqWG_P-AyI-166" style="edgeStyle=orthogonalEdgeStyle;rounded=0;orthogonalLoop=1;jettySize=auto;html=1;exitX=0.5;exitY=1;exitDx=0;exitDy=0;entryX=0;entryY=0.5;entryDx=0;entryDy=0;" parent="1" source="XOWLojLKpBLkv1eor7Mp-5" target="XOWLojLKpBLkv1eor7Mp-12" edge="1">
          <mxGeometry relative="1" as="geometry" />
        </mxCell>
        <mxCell id="XOWLojLKpBLkv1eor7Mp-5" value="&lt;b&gt;&lt;font style=&quot;font-size: 24px;&quot;&gt;Join.jsp&lt;/font&gt;&lt;/b&gt;" style="rounded=1;whiteSpace=wrap;html=1;fillColor=#fad7ac;strokeColor=#b46504;" parent="1" vertex="1">
          <mxGeometry x="-396" y="-1540" width="169" height="53" as="geometry" />
        </mxCell>
        <mxCell id="XOWLojLKpBLkv1eor7Mp-31" style="edgeStyle=orthogonalEdgeStyle;rounded=0;orthogonalLoop=1;jettySize=auto;html=1;exitX=0.5;exitY=1;exitDx=0;exitDy=0;entryX=0.5;entryY=0;entryDx=0;entryDy=0;" parent="1" source="XOWLojLKpBLkv1eor7Mp-7" target="HEAWCpbGmRsyPqDrCjQY-25" edge="1">
          <mxGeometry relative="1" as="geometry">
            <mxPoint x="-302.5" y="-1021" as="targetPoint" />
          </mxGeometry>
        </mxCell>
        <mxCell id="XOWLojLKpBLkv1eor7Mp-7" value="" style="shape=image;verticalLabelPosition=bottom;labelBackgroundColor=default;verticalAlign=top;aspect=fixed;imageAspect=0;image=data:image/png,iVBORw0KGgoAAAANSUhEUgAAAPwAAAA8CAYAAABCQ9fTAAAKEElEQVR4Ae2d73IURRDAeRzKhCMhIXexEpKAEEM45BIElVhWiVfnP6zkg4pJjoRSLMpSIuWJiuADpPIQ8eO9R3yOtnrveq8zzM7O3s4um53+sDU7d/O3p3/TvTNze6dOj07CzPwSTM9egak3L8klMhAdKJEOINfIOF2nCHiE/ezErFwiA9GBEunA+elLIezIugBfosGVCVsMlqoDArwALhbcIx0Q4D0abHW2l7h/HoAAL8CLhfdIBwR4jwZbLLp/Fl0dcwFegBcL75EOCPAeDbY620vcP4svwAvwYuE90gEB3qPBFovun0VXx1yAF+DFwnukAwK8R4OtzvYS98/iZw782MUbMHnnK5j68hFUv3kKtQfPgwvv8TP8DtOI8vmnfDLm+Y95ZsBP1D+E6te/wvTDf6wuTIt5RAnyVwKRuT8ydw782OwSVNd/soJcNxlgXixDlNAfJZSxzm+snQI/fuVdqG09Gxp2mgCwDCxLFCE/RRBZ+yFrZ8AjoNM7L1LDTtBjWQK9H0ook01+4+wEeHTBXVj2EPb+cz+WKe59fsog4BVH1o32Bvz37zYc7a9BY3zGmbfrBPg0z+wq5Gocy06iiDOrc3Btex5Wfl6A1V8W4NqDeZj74EKiMpLUN2zaSn0NuodbcHS4AXt1dwOqtocUp9tpZCID6gcqp+462t+AbmcN1jPso9rnNPFGcw0OOhvQ3d861p+gH/st2GsuOgUwqq00boUDHlfWVUhdx21X72duXoDVJwvaa25tLhOFjxqwuM8JlCyBr4w34OCwp7hZ1UP90MGufoaTjktrFSfjJN83mq1gAlbbrIt324uv6FKj3oA9nCg03yVpB6UtLPA2W2+13Rcw2dqGyvU7MLKwDG/MXoaRyzeg0vgIJr7Yhendl8ZJA+sgQZjC5a0e7HN35mBs8kJw4T1OAte/X7Aqw1S+y+8IlKxApLaS4mRt4aP6gSAc7PfcU4TnKCNPg/qbNKyML8J6Z2DN0ZIftBvQUDySSn0R0PrroMYy9voeQamBxwMzcda8uvUMziy/F0COoOuus6sfx5ZjczjnxuMe8OPTg2exsame1V954ifwSQFImt524uJQHTSze4RJ0n4OKk5YB81XLbdNebycUgOPp+RMwFd3X8CZ5dsB5GeWbgbWvLrZCfJUN3+Hyc93oPf5Q2M5WAfWFSd8fGZHa66mIzdf/fx1xm1BeZ1ttKnbth/HHi8KYuXJ+0HPI80k5A3wU/d+NIJ6rvldAPvo1dtQ23muTxvjztOEgnXFKSBacQF+4N3EycvF9/bAD9xe1wtRw/SD2o2wp7XK3gAf9/xOrvzkvUd62C2P3SL0Ns/xK4qFJ8tuGw6jOMPmIYWLevbl5VZoQUhZOe72V415WvWeXGndszNZOPoOFXcdF576C33BM3dMHUn6EbZF2WqqNFu9LajDFqyPz0AAUGfw3B8FpBO59OtU5WYTJ/mhnKIu7jkk6SeV7XpyTLUtV2v/ZQR5ZP5qYOEjrXsC4LGuuEEgsCkdxW1DypdHaAMKARilTPT50X4PFF27Q8g0bnSoVJ0GUHuoTDWMhs5ue5FbQZpgqL3HQcBFvsEiGrZDrTutXPjjhVo2tckmJPmpsuLxaODN/aSyTyjw5omB3HZTaAO8Oki2oFM6NX+WcQLMZOEJ1kDpcUuLrRzjqvF6e7CVFAU9laFChn0LlarTCrbvgjLqg4WrRn0thC+qnTb9wLoonRZgZuEPOng2oWXct6c+DSuXwQTj5gwEn8xME8ig3hbE9TMcG8UbSquTqSy8rUt//t4PRk/ABDp9Z+PSq8IgkG1DNX+WcQIgEqQ+BKjUptVjKkcHEraf4DABj3mjLElc+fR9VD+wDRyIAGbl5BiBELQj5iASTzusXEKYUrjzXDd4/2yAt+ln2MYiAR+7aHf3fm+FfnEVau0/tdBXN3+D2vYf2u8IdgxtFu34IOC9LeiUTs2fZdwEClcgHahqu0Ll0CiwLfDc9VTLD8vQKF9cP4IDLX0XHScFXT0cYiMwbL87jVxM8lL7bhPn42VsP5vETemwzrCNGpnbtCkqTSoLH7ctV3v4EkaXbgXQj7z1Dkx82oZgW273JVS/fQrnPrkPoxfrwT59bedvI/Q223JqJwlk21DNn2XcCErCY7dUFloOFagQVtMzfIxSmZSP1431R11GDyB06c0uNtVlKouPGaVX5RL2RzNB8vy290mBt2l/2MaYsbFtI6VLBbzVwZvNDuC2nO7ADX029v5nsaftbA7eUKcotAWd0lG+PEJSRt3gk8XTub+6tpkUzgXwpvZQP6JA7+LJtZjz56byeX9t01GeKLmEML024KMXWantYRuLBDw2Lu45Ht1xtPTn7t7vnbibX4I35t6GkcUVGLvVgvMbj42WHfMP8/yObSOQbUMSdh4hgaIDPulgRyk29sMKeI315zIwgWbqBy/DdG8qn+dzJZdBfWaPgtdtujfJn+cb1HuCgS/Sj2e4cPHeFnRKp+bPMm4CxZViY/sF+N4WH39mJtmrrv6w4+0V8CikIv08lg8agWwb8rxZ35PSGS28pcvJFW6oZ/iTZuFTyoXvw0ftTiQZfy5/PrGoZZTCwmOn5AUYyY+zmgbfNBmoSoRxU/oyWXhTP5PKhbwoF1beO+BR2PKKq2TQk8LptpeOWaAY64uyD8vSLPCUCnj++/6UcjkmY0uPQTep4GdeAk/Qu3jVVdlfYsmVTXXBSakI4p4FGpx+o+8pJKsXZanKBDz22ZVcsCzyslB2caf7SN66kAOvm8ApD9Vns/tC/XTxyEH1Y5hqW44XRPfo3qd5pse8ZX6PXfCDDzqIorHIJEeuRKiQwdti+NFa/KELP1obYfHKBrwruYRyVt5003sd16uvsWoYXoCBZYWA4knBiN/VlxJ4EiSu3tts2dFpOkxr+yorquOkhAQdgkuXjUUJlJv9aozyqqHp1VFUt87yhEoaMVmQfE2KSh6GbvGR8seFpvJ1eV3IhZeLk7D6gx1VxjyuW5gjOfB0eM89uCT9DMfGYBR4H2zvnVt4tWI8MIOn5Hz+qymCDhUAwTABqsoP4+H70vjPVoNy4l8OSXWXCXiSURq5UBk8DMtTfq2H4xYcIOqsRVpvLEc3cXgHPBeo3Cdb2BN5ibxc60DmFt51g6U8gUB0YHgdEODl76JjXywigA0PWNFkJ8AL8AK8RzogwHs02EWzNtKe/D0HAV6AFwvvkQ4I8B4NtljU/C1q0WQuwAvwYuE90gEB3qPBLpq1kfbk73EI8AK8WHiPdECA92iwxaLmb1GLJnMBXoAXC++RDgjwHg120ayNtCd/j0OAF+DFwnukAwK8R4MtFjV/i1o0mUcCPz17JXgdDiaQS2QgOlAOHUCuT49OhtcpHpH7gWBEFiKLMuqAAM9mvzIOsPRJJi6uAwK8AB+6e1wx5L6cE8X/32T8H3ie6mYAAAAASUVORK5CYII=;" parent="1" vertex="1">
          <mxGeometry x="-438" y="-1178" width="252" height="60" as="geometry" />
        </mxCell>
        <mxCell id="5TNWNrZhz6dJ6IuifunS-10" style="edgeStyle=orthogonalEdgeStyle;rounded=0;orthogonalLoop=1;jettySize=auto;html=1;exitX=0.5;exitY=1;exitDx=0;exitDy=0;entryX=0.5;entryY=0;entryDx=0;entryDy=0;" parent="1" source="XOWLojLKpBLkv1eor7Mp-9" target="5TNWNrZhz6dJ6IuifunS-4" edge="1">
          <mxGeometry relative="1" as="geometry" />
        </mxCell>
        <mxCell id="XOWLojLKpBLkv1eor7Mp-9" value="" style="shape=image;verticalLabelPosition=bottom;labelBackgroundColor=default;verticalAlign=top;aspect=fixed;imageAspect=0;image=data:image/png,iVBORw0KGgoAAAANSUhEUgAAAQcAAAA+CAYAAAAmqd52AAAM30lEQVR4Ae1dbXMcRxH2z0lFsiLZsiVRkiUnxEJxFHxWSACLooqgEi8xJX0AjGXFckGoFAURKY4AweYHqPQjzEf9D/E7hurZe2b7+npmZ+9W0knbH65mX2Z6enqefqZndnbv2huTs85+ZgPDgGFAYuAav7C4subsZzYwDLQbA+CEAXJYWLrnbn/rHfuZDQwDLcQA+X+UHIgY3rq5ZD+zgWGghRi4tfCOkYMRoA0AhoFBDBg5tHBEMEcYdASzyaBNjByMHGzKYBhQMWDkYMBQgWEj6eBI2jabGDkYORg5GAZUDBg5GDBUYLRtlLT2DkZKRg5GDkYOhgEVA0YOBgwVGDaSDo6kbbOJkYORg5GDYUDFgJGDAUMFRttGSWvvYKRk5GDkYORgGFAxcC7kMP32Azf76Ffu9qefu7nffOXmP/vG/+iYrtE9ymPsPcjeZhOzyUVh4EzJ4eb6j9zcr//qFl78J+tHeanMRRnD6jVHNAyUGDgTcpheWnNzO3/KIgSNOKgsybCOKjvKbGG2OG8MNE4OM/e+5+b3vh6aGEAWJINknbdBrD5zQsNAgYFGyYGceeH5y5GJAQRBsowgzFnNWS8GA42RA00DmogYAjH01ilIpk0xLgYc5pSXy+6d/V33v/8+c6dHm64zszhy1N0YOYyyxiAJQZ6T7DpAXdxYdu8/W3EP/3zXbfzlrnv/sxW3/MM7tWTUqa9O3qmZjjt+vVd04utdd7g+fCdOrW+6kyBr2+00AIg6bbG8BXl0tjbdcXfXnRwV/UoOWjgpXdt2h1urjThrlb3HkhzoCYN06KbPc59iLH54x218eVf9LW8uXzhBcHLwAOp2htYJYPByXhs5VDlP0/c7W9uBnEEIsfRkf3WgnzvrHXdIpKLcG0ZX4GGsIoecx5XzBy/d7PYzN/XBIzdx9757c+ldN/HuAzfV+bG7+csDt3DwKkkwVEeOwe7vFcSw/GjZTc/e8T86JsL44Pd3s2Tk1DNsngFyGDJ6GJRj5DBsn9QtNzWz6na6ZZRwerTrjvc7riOiwKn1VUdRhUYAJOOwF2lcWXKgzUtVUcLc3tfu+v3ve0IgUtB+b238pFJOzkapB18U5DCzUM4Xp28X0cTDL8eHHE5fl2HoMOAoR4ldP3qdWuRwLsTPnZr68HhrMCLIIRsuZ5j+1+ooMTEmaw60uzFFDnMHL931+x97Qri+9qGPEuaedn2Zuad/d7O/eO6K6y+ScqgOqkszCr9GawwUJfBrdIyphrx+3ucY8T2wur0FpJqODRkUwp50i9DWyKEcDM6yT+GAZPvjrRHWi9oQOdx+/MekU9/Y+p0nhsn3Pnbzz7/R81ZMKUA+VFdVx1N0cBnIoQBXuThZZ/SY2truLWhuux1+bAuSlfiowk/qPl8ArtNfmsxWRA5V6w2YTsw+/lwnhsyt1UQQOesOD0XkgIghN9U6sslrfNSnkQcjUe7IL0HVRxSMHOrKxRz6lC2QBhm9R2NUt1+EY6vyfnrU3XQ7Yr4tbTZFi2/72+7kqJgG8YU7WtGvKg95/snAURFxQQbKS9ugjJbG5cSnCcFGNSM9Xj9sCt21lEcksn99G3sRJ5XlJAXZY7MgOb//r6TTT6y85yOHaNRQgxyoLm5o7RgkgHs4z01R7qxSSQ58NOKgiNVfgqV4DFqe9y9I1pErdULd/WArF9A0QBfzbz3M5vK1srjGgQ4dkHLHR36Z0vy/apGP5Oww55Iy6FzTg7dBuw89q1LYVKsX1zgO+vu3444ZMUtdIfsSkkOaRDB1SKU55CA7J5cUkE+Wb/qcgwwgCCNSxeYV7iAY4fvBUzqnljfWliBD1M/Bdtjdc54AaFWeRyhbfK+Fvm/Dt5me9/sV/f6RmSIKAJ7ka/s++tpCi4CKDpABB4s5cLC1kCNJA30DmwUbRXREvtyUtymmK8kq6912x74P4lEW7y/eR7k6yXwjb4LKnVbcevyHZISRIgXcy5lWyAbC6XNTWb7pc40cckd55ONOxMEjN0Gl7vF2wWEkSAE2cjheJy9Lx7xNIC2ZJ3WOdsmREGW4HtJpkYc7W0wO7EH3Y3JQl5zmxa6j/rop11fancviOqf6gMoEHQXJc3l1jkcmh8oFyU+eFE8qVjfc/P4/VYKYe/o3N//sH+o9EAOlOQuSsvG5pIB8snzT59yRAFAOlJRzwYl5HoBHgpn05nXFAAjH1IAHsMWcjdum1EMf/Xle7VhrW9GGcqrA263JQFs0fXNtzG2G/qG6YAvNzpouVde4PrG+IRmwq9YmWUfQcVzIoepR5vyLV25y7SNPEBPf/q67+bN95x9lHrxyc7/9yt346RM3+fa63wcx//zfSYLIeZQpDQanz01l+abPY+ADCDQnJR048Dloy3L9aw7QOzhdBDABUGwhEmXDvYwFuFi7IKsqDXoKPdDumF243JTD1ZEDXbjT1rEF1yl2nNKVlyn7t5p0g46RvuZyc45HjhyyNkE97Tp6lKltfsK16R/8vHKXZM4mKNnoXFJAPlm+6fOYE3GwaCMkACsXm0rw6OSQcgpeJycctLkO2Lgs7lSQhZTy0bbhHf8+wrY7Fk8vZNur2ge5lKZ0CHIyHCfYmhFVsEUGUXKdYscpXXmZoHdGvUHHjDbyOmLHI5MDCa5ad6ApAUUQNz55UuyUXFlzby5/x02sPnTTH227W7tfJCMGKj/MegPpBqfPTWOGaup6jBxIfgwIw5SBvikQhvoiYKoDtlQ9pEvx6LDcckxhsvaT5NCUDpCj1Rm7xnUJtrrABUm5poQ+Roo2ygEE9+umjZDDOL14JQ2QSwrIJ8s3fZ50dPbGJh99Q6cro0cJWj1yIP1DeUECGCF5Xby9sXI8D45T5AA55IQ0PaBdnfTkYmeL3kco3liELtwhU7qjXp7m6hAjA3md64IIjPJoURbXI+c4pSsvn9O/yA87jxU5kHLj9Mo2jEUpnD435WXP4jhFDlRf6OAeEfD8mhPngAcy+LxduybbG3QRpCLz0TnkSefhTqXpD1nnRQ7DOg5v37Ay0NbCXuVCa8ouOf0LuXX6C2VSaSORA1VgH3vJ29vPQaaNQPJ+FTiq7qPz4XwAYijH5tXIizSATYlYkAcpSIATEN0LMioIBvrx0ZrKBz1zdIhEXnXloE0yRVskAcp8OeetihzIIPaZuGqCkM6vAQkgpBGqcsdf5rsVpfPS9KMctTSCgk7QI8cZgnMLEoCM1GjLbTJADuyDNiA26CdT1EX6yry8jlSbpUx+zmWM+kizdeRAhiSCaOJzcVf1A7McYDGQwpEJ5PSTo3EfYHPJoY8Qil2NKYelOrizpZwBo7tGIpARK09OAmLxbVUiGdxP2oGRCMmR5EDtKeXEdxly22rHvK2+TRXvlGgy6BonB0mIvAzqi9mP5w22FgTN89Q5bmxawSulKcYoaxBU9qp+NzKHHMiWAHLMYWDvYcBDMmMOBLmUlmDDNyN2/SfPkMc7Nr1MhU/VKaDkRHcqXrDC1mlyevrMWqytfTJ631DA9mDSAV9kIvnYRq2RA7e9r1N8vs3LwgtiCkmFdosvQJ34F88GPwXnF1sjH3vpsy89AYl8F2KY/q0ifbSjKj0TckCl9BQj5zEndkFS3tzPwaGOy5ZygMYiB2oTHCI1Wvp8mZGDz8vm5LVHIuEQIBikKUCCZJCXp4WTsrdTI04Je/Cy/NgTD4uONHIo7Fq+y8HLy+PUaF5HDuRq+sTaxHFxZcmBjEg/2rxEuxvt7/Diq/qwFU8pekg5HeWtAx7Kj4ikCvyUF04NHfxr1+KNRnxAleutHauvSLNXvUNdEXIgmfTZNXqjEpEKOV74RNvMYl+orjkj9AoRj3jDkYjKt0e82IVyWhq+AylkkW70evpxdzMaFRRtGiSrVpGDZlS7Vr142bSNcqMW1BscVpkuIM84pXXbN066j6MuZzqtGMcGt1mnEGVkOvulI4feomTVVKzNGKjTdiOHlvz9OoXSVY9FJXAuGzlcNn2lvcft3MihLeRQY+ESIL1MzoaoyM/1G/ofCNihramRQwvIgRYDsYiXWqiTTjAu5EB60ONC/89RYl8BFgTxVACLp7Itdl5/jcvI4YqSAx9J4TgniScBmvOMEzmgDamUCAT7H7T22LV6BGHk0AJy8I/7IptsUg4zLuRAOvpHobH/o+xtQkq1xe7VIwayl5HDFSUHc4b6zmA267eZkYORQ+Xn/s1p+p2mLfYwcjByMHIwDKgYMHIwYKjAaMvoaO2MR0VGDkYORg6GARUDRg4GDBUYNqLGR9S22MbIwcjByMEwoGLAyMGAoQKjLaOjtTMeISXJYWHpnt8IQZnsZzYwDLQLA+T/b0zO+t81HFhaGMTsYHYwDBg5BIY0MBghGAYGMWCRQy+EMnAMgsNs0m6b/B+mV7NWAlCLfgAAAABJRU5ErkJggg==;" parent="1" vertex="1">
          <mxGeometry x="-1201.003333333333" y="-2293.003333333333" width="263" height="62" as="geometry" />
        </mxCell>
        <mxCell id="XOWLojLKpBLkv1eor7Mp-13" value="" style="group" parent="1" vertex="1" connectable="0">
          <mxGeometry x="-211" y="-1428" width="297" height="157" as="geometry" />
        </mxCell>
        <mxCell id="XOWLojLKpBLkv1eor7Mp-12" value="" style="rounded=1;whiteSpace=wrap;html=1;" parent="XOWLojLKpBLkv1eor7Mp-13" vertex="1">
          <mxGeometry width="297" height="157" as="geometry" />
        </mxCell>
        <mxCell id="XOWLojLKpBLkv1eor7Mp-8" value="" style="shape=image;verticalLabelPosition=bottom;labelBackgroundColor=default;verticalAlign=top;aspect=fixed;imageAspect=0;image=data:image/png,iVBORw0KGgoAAAANSUhEUgAAAQUAAAA6CAYAAAC5zUxdAAALPUlEQVR4Ae1d63JURRDmcSgTQgKB3VgJSVSIAVZZgqASyyoxtd6wkh8qEiKhvJRlKUi5oiL4AKk8BP7kPeJztNVztuf0zM6ZmT1nNgl7+sdmzm1munu+/qbnck6OHB2fBvzNLizDzNw5OP3yq/ITGwgGaogB9H/kgiOcFJAQjp+ck5/YQDBQQwycmnlVSEEIUDoAwUCOASGFGvYE4gC5A4gt+m0hpCCkIEMEwYCBASEFAYQBCOk5+3vOutlESEFIQUhBMGBgQEhBAGEAom69oujbHxkJKQgpCCkIBgwMCCkIIAxASM/Z33PWzSZCCkIKQgqCAQMDQgoCCAMQdesVRd/+yEhIQUhBSEEwYGBgqKQw+colmL7+OZz+7HtofPkQmt88Vj88xmt4D58Rtu5na7GJ2OSgMDAUUjjZeg8aX/wKM/f+ifrhs5jnoIwg9YoDCgZyDCQlhcm5ZWis/xRFBC7CwLxYhjRQ3kBiC7HFfmMgGSlMnXsLmpuPShMCkQSWgWXttyGkPnE+wUCGgSSkgE48c/dJZUIgYsCyhBjEScVJDwYDlUkBw/0UEYImhN48BJYpQ4l+UExMLcGDnU3479878HxraagRVXtrQ9Wz120PtZ5hOL+WfWcV2lOzL5z8PpsMW7fKpFBlDsEmAvscy/YZx743uzIPF+8swOWfF2Hll0W4+M0CzL97ZqAy7DJTnU+0VuH5s03Ye7YBD1rlQVqWFNprq7Db3YDnPUJBUsHf3g5e68CDtaU+59HgE1JQGCpjw1T44eXodhkS4VUiBVwxsB059XnsqsTslTOwcn/R+ZtfnT9wYjgoUmivdRQZEQn4Ujvy0OCrOSlUsSE6c7vVhgdIyIkiO90uh5EUYpYdm9tPYLpzBybeuA5jixfgpbmzMHb2Eky034eTn27DzPZTL7FgHZwli44vbGaEMH99Hianz6gfHiNRvPHtYlQZRWWnuL7fpIARxXo3G2ZQRLC71Ya2FaVMtJYAe0AXaDX4akoKKWxYNrLzYU63y2EjBdx0FIoKGpuP4NiFtxURIBm4fsdXPgiWE7PB6dKPGSlMzeTj8MnTWfRw+X69SIEDEYcru2vl5h40+GpICqlsyMsZ+UgBdyP6SKGx/QSOXbimiODY8hUVFTRud1Wexu3fYfqTu5Bdv+ctB+vAunzMifdwDgGjAvs5GlLY1/f7fD8jBXJmjBB218rPX1A5dZxoJN2r2rBWpHD65g9eZz6x9rUihPHz16B597H72cDQgUgH6wo5MUYDQgpzQOSDYK7aM5Fj1I0UUtqwVqQQmk+gYcP0ze/dhBC5BRqJIWZe4bIVKVCEEJuGSKfqfQJazOqDmuXeyZYD0bmVg+90YL01CyGQ0TzC3rMOrFdcirNJAetexwmzZ9ZcReTwpFivuOENzn+sb3X6VlBw9WS9ZZahZS8Yd1N7oG1tW6WwIdVP7edKeRQ3sdbJVoN67abauZtjgBM8lb1XoFtVrJZefWhu/eV19rGF8ypSKIwSBiAFrCukKDk/PUfnsSnlG1ZKIPSRAnd4F4jwGs4PFO1TmJhqw27PYTmIyuqkwddtGxGISzZffUQmrnx0zZcf5W8jGTAyonyU2o6tZXc4DreTnY/fC8nksyvVT/K50mJSaMOutXTMZaGyX2BS8JMHDRF8aQwp2A0USwb0nJ0/9XmIFDghqMlBXClgPX3Wy+Y9NIKMAwXlzXubanshSHcNvm5Hkc0e7mdgPXK7tarB6yO7vOfdALUC0tPLJgvuJCQDpiSH0tmKCrCMzDZmZER5bMex7WzvGUltQ16f3V5cx7zeDux2cT9LFhnyZ+i4SDe6XzUtHSnEDh9O3fzOG1H4yIDuxQwfbEOQs8emdv7U50FS6IWPCPwi5+AAc5GCBkuCoQPqT+VhXXaPSvYhvVzy4DMEdp9eVI+rDp7f51QkD6W6TBYpcPsVkZjOl8iGvE6f/FzPItl8utG9FGlpUghONN64la08LK1Ac+tPJzE0bv8GzTt/OO8RIWAaM9FoGyOWDOg5O3/qc3IeV4Nz4IQm9agclxOmBjSV53NotJOOBJgD4vVYvXjIzgkxNr+rrUh2HiloOdUyrXtVRuc7QFLwkQfqqmW07O2yQ5lrpUkhtCTZvPcUxpevKmIYe+1NOPnRFqglye2n0PjqIZz48BaMv9JS+xiad//2EkPMkqStPDl7bGrnT31OzuwkhQG2QHNHscGjwZII0LHl6ecskPp0tu1LDst1GiS/XZ4tE52HCI6ec0Utdh0x57724vkpUnDhgz+Hx1pGy972c2XPS5NC1Oal213AJUnXpiW6NvnOx8FdjTGbl2wDxJIBPWfnT33uA3gOCHNc7JLBBzINltSkEABfkfz6eiA/6kmkwCMlnb+EPtoWO6uw3nuxKyMEc5XCtrHOV6JOuyw897UXf34QXbWMEXbldcQelyYFrCA0r4ChP0YMJ27cynY2LizDS/Ovw9jSZZi82oFTGz96IwTMX2Y+AWUjZ49NYw1W9jkfKQzSyD6Q5cBKPdHof0syr9ckNdILnTH2x0mB8vMhQKz9KS+vl0chReXkuqSxoa+9uAx5vaYN+TN0TLqVsQuV4UsrkcJheiHKVjKWDOg5O3/q830hhd4wJOsR3WPmQfTS4Atscy4CNOXnjhk6Tk0K6i3Q3lImrp6E9m5QO6WyYe1IAQF2mF6d5oAnZ49Ned5hHBPYXGNGcp4Y5veBjE/YxZQV0lPLVZEUysqi6y8RJht5GVmGZEltQ197cfsXESt/ho4N3diyNd2vmlaKFLBy+chK/gKWrzF8pJADIhyyctC6wmECTIqejsrivbdLx1x+sycuuu4qw3Utzx+2i51fy94jFLI/2iVEDJQ3hQ1rSQrYGPI5tjAxEChdkQLdQxC6HJ0DngPW9Swnjaoz6FRXaVJgOyz5UiPXx3fMdXHp6surZWdRBpFMiBh4vVVtWFtSwMZBYkjxWbZR/XArOb6LFNB+evbd82UmKgNB7SMQA/w4i259Q8HnTPyedqySwwdTr3JykAyo7yDEQvnsqICuK2Lw6JXKhpwUfORK9cWQEOlg68bbrspx5eEDrxyHElXmGDDvqH6XkRy6iBTovgJr7xsItM0ZgUVf/8HJMtoX7+s9EWT8XYHn3VX10hCVSe3WTvCRFR+gzV43+7YDl0Hphl8mwncbHE7KnUoRYdf8UExmG9xubQ5dfI5D92KIoaoN0c5Un2r7gpfHfDaktqJUl8eiILqXIk1KCiQQrkrELFfSrkV8Nvaza1THi5aS0xeRAupjOzKClv+y2fPiF6Jsm0y0+l+s4eXZxzbJaPA5nJXXFQJ0rBxFPalNDLbceG73sFr2AsehyAzz2nobulW0oWpXNtHJZeeRT8iGXKaQbvzZMsdDIQUSBDcd4W5E+bdx+XcOfKSAdlOvB7teT+69IMUdxAdmagNM9TcCrTfvlEPsbMBud1V9uJXnUfkiv+YcA2iU2/XaM9pDfTjWegHMlkXJgx+fxQ/Nsrcl1ZKjioLMJdiQ43A7hohB1U3fWRzQhqSHixhrSQpkEEnDE5FiI7HRYcHAUCOFw6KkyCEOJxiIx4CQgvwb8uAHbMSh4h1qFGwlpCCkIKQgGDAwIKQggDAAMQo9nehQLbIRUhBSEFIQDBgYEFIQQBiAkF62Wi87CvYTUhBSEFIQDBgYEFIQQBiAGIWeTnSoFu0IKQgpCCkIBgwMCCkIIAxASC9brZcdBfsJKQgpCCkIBgwMCCkIIAxAjEJPJzpUi3aEFIQUhBQEAwYGhBQEEAYgpJet1suOgv2cpDAzdw7whvzEBoKB+mEA/f/o+DQcwT/yExsIBgQDhIH/Abpf35RLs7PyAAAAAElFTkSuQmCC;" parent="XOWLojLKpBLkv1eor7Mp-13" vertex="1">
          <mxGeometry x="22.003333333333558" y="17.0033333333335" width="261" height="58" as="geometry" />
        </mxCell>
        <mxCell id="XOWLojLKpBLkv1eor7Mp-11" value="" style="shape=image;verticalLabelPosition=bottom;labelBackgroundColor=default;verticalAlign=top;aspect=fixed;imageAspect=0;image=data:image/png,iVBORw0KGgoAAAANSUhEUgAAAMoAAAA8CAYAAAAnriWsAAAJsElEQVR4Ae1c61JcRRD2cVKBbCAQdteCAIkJEkLMgZiowbLKSK23WPBDjcAGUhorZWkwJUaNiQ9A8RD4k/fA52irz6F3e4e59Llll2z/2Jpzmenu6fm+7jkz5+wbpwZHQX/qA8WAHwNvqIP8DlL/qH8QAzFRxqdmQX/qA8WAHQMdRKlPXIGxNy/pT32gGGAYQF50EAVJcnZkQn/qA8UAw8D5+iUligYGDYwhDChRWNQIOUvv9y+hlChKFJ1iCTCgRBE4STNJ/2YSGnslihJFM4oAA0oUgZMoqmjZv5lFiaJE0YwiwIASReAkzST9m0lo7JUoShTNKAIMKFEETqKoomX/ZhYlihJFM4oAA6URZejiDRi98xWMffkIqt88hdqD5/EPj/Ea3sM6GqX7N0qfpLEvnCgj8x9C9etfof7wH9EP62Kbk+Q0tbX/yF0YUYYmZqG68pOIHDYSYVuUoSDsPxCehDEvhCjDV96F2vqzzCQh4qAMlHUSHKc29hehcxMFgV3ffJGbJEQWlKVk6S8QnoSgk4soOFUqIpO0SHL0XIMydRqmZOklAuUiSp5nEpMc5jnKTuOo8cVJuLYxBQs/T8PiL9Nw7cEUTH5wIZWMNPqKqFtZbsB//27Ev73lcbGtleEI9vbXW21Jhq083F2CaNgtO1pegu2dVTgw5B3ursLBzhKszLvbVuZnYAXb7rZtOdwPtyPfRc3VQvpA8irDM4D92dvtlIt92Vue8fqBZLjKzETBlSoT3EWfS1fDxm9egMUn09bf5NKkGIAuJ5VxHQd1mwNsJxLbWQRRKvMR7DH9NpLhNRfRombjGLlMGQeBPhVJlMo8EqRNWNMWPE8TjMwxz0wUyRJwbesFjDY2oHL9DgxMz8HpicswcPkGVKKPYOSLLahvvfSSDXWYBtvO59YTkkzemYSh0QvxD4+RPNe/nxbJsMkt8xoOLI/iGIm3PdGb28KJkmXwuW5XtI0wWyAZdo5nJAJ4kj0iiJjdSEDMUATUg+aM0/8rOwmwDwOE4n23HXf2pwHbRvaIjmzK4ivSl4kouFEYyh7V9WdwZu69mBxIENvv7OLHQTmSTckbjxOiDNfb8/qhsSTLLDzpTaK0wIZTnKNpjw9UNGBY5iEKz2SubMF12Y7R9sPdhnda1iLBfgNWHFM/qiPtt80W7gsknG+aaWsvvZaJKLir7iNKdesFnJm7HZPjzOzNOHtU13biNtW132H0801Irj/0ykEdqCvUGXwmwexh1qPpmHm92+ccrAfNCAgwUuBycKSNkjz6pm1LfsPnABf4qY5ED/U7D1FIhtR3ZF/aMhNRxu796AX4ueXvYpIMXr0Ntc3n9rqBaRcREXWFOoVZ40QR5eghnqZbaR/qu02U0Hjg/c5gcHz6Fbov05EsapAfJW2y1slElNDzCU25Ru89spNE+HoLkkXynLJgZBTKJNIyq/OytjOjIAe+ZL7O66fNCjzS54nkob6HiMDvp+0D6W5PX48/R1GdospMRKk1//ISYGDqapxRnNkkBVFQV6izRAiqR+fSktq9ipKDnAO1RR7PnJ7s4zLSgowDtMxIHLIxdJ/66ip5P7gfXfXzXi+ZKH5C0fTKV0qIYjpBShCqZ7Yv87wVBY1VLh7pQ+DPDTJjxQ2XcYt+CKbppIuM1AfX/dAYUHu+7BstNzLv6YT0ZSKKdOp1/t4P3szjIwjdk0y9zE4SAaSl2b6scx4FzSlWx73AJqENJGlt5sREsCFg95rFEKajL46lX94HWkqmMl6yRlvYsrPZP7I/IRpufPr3UPJmnUxECT7M372frHjNLEKt+aeVLNW136C28Yf1HpEES8nDvOlEKUGontm+rHMaXB4FuS5XtuF18NgHMgIblqFojYDGnXWzDe5imzql54nMo/0RI2tyGdwXXL957AI4tT/cb8D20Q5/nBkZuXD/hG9ChjI1t888zkSU0PJw7eFLGJy9FZNl4K13YOTTJsTLw1svofrtUzj3yX0YvDgf77PUNv/2kkWyPGx2igggLc32ZZ1T1MPBtS2v0uAjWFwAQduKIgr1M9mlNwgT2CehtrzsyCQeklAbW8bA12LMKZTNFzS1I2K5yN1pk93vZI+vzEQU0Ybj2g7g8rBto5GuDb3/WXB3XrLhaHZQShCqZ7Yv45yD25x2kT7poHJZeaIk6aUyeU+qPYUJZSRqhyW2pY3TNO24DH4cykycKC5/kjwegLL6KxNR0IDQcwpOmzCznLt7P9mhn5qF05Nvw8DMAgzdasD51cfeTILtszyfoG1EAGlJDi2z5APrGyyafmGkdNUriyjUf25DaCMvAXQ7G4Xqkw5JyftpZhWpP1EPD0CmHIkdWCczUXrppUizs1KCUD2zfRnnNO2iqYKkdEVKDiAXmfL2gZPFpYO/WIlZZM/zXldWe8hvpi/SZgmXHKldmYmCCnrpNXveYSKAtORtyzjmgyohCNVxTWFeBVG4DhOk6CPep9B7X3l86gI4t89FZK6X5LzyjIJG6Idb7Zcw+aCYxxSdXQ/xZn0OQtvApgWJKV9yzqcrJlG4/iKnWja7CODHbWh/pmDzEZfF+xKqy9vx41wZBQXpp8B+svBBMgebDwQ/7mhj2VPhQJVEUy5besx1mOBqgdexeifVEarHA4atn9IARM8zrgwdsgPv5yYKCkGyFPFJ8Ov45xI0SDidsg22a5B87TiI08h06bJdJ/0muLhuk0A2OVmvdQQLByG5La4g1CHHsfkpsbEQoqAinIbleWbBtq/jd/JZo68PBPxeWqLEUXoXN+kiWME9C+NbEfq8t/WcZICLorxJIAnYeJ34C8n4U+NOGxDYfB8F9fj6SFkF7TU/XebL3dJpL7eRHxdGFBKKq2GSpWPafce60k9+ScdJKTmgs0RfF8m4XAK0r+RAI6D76tM92ztglGmojqS0gZQD3CVDSsaQrCIWGwonCoEYNwpxV72f/1KVBlA64OQ7KjmoOdHyEAVlJ5/G4guE7a8rCax4LX7ni70KQvZgWRRRMHPEnxqbfwSBf06BGc/4nJfbYDumT5Bp0xP703pnzMiatvaha6URJaRY7/sXAdQ/veUfJYrgn8wVtL0F2m6MhxJFiZL5TeFuALZbOpUoShQligADShSBk7oVxVRv70z5lChKFM0oAgwoUQRO0sjeO5G9W2OhRFGiaEYRYECJInBSt6KY6u2dTKZEUaJoRhFgQIkicJJG9t6J7N0aCyWKEkUzigADShSBk7oVxVRv72QyJYoSRTOKAANKFIGTNLL3TmTv1lgcI0p94kr8fTDe0J/6QDGQYAB5cWpwFP4HucteUiw0UC8AAAAASUVORK5CYII=;" parent="XOWLojLKpBLkv1eor7Mp-13" vertex="1">
          <mxGeometry x="22.006666666667" y="75.00666666666694" width="202" height="60" as="geometry" />
        </mxCell>
        <mxCell id="XOWLojLKpBLkv1eor7Mp-18" style="edgeStyle=orthogonalEdgeStyle;rounded=0;orthogonalLoop=1;jettySize=auto;html=1;entryX=0.5;entryY=0;entryDx=0;entryDy=0;exitX=0.5;exitY=1;exitDx=0;exitDy=0;" parent="1" source="NcdN86krktzqWG_P-AyI-150" target="HEAWCpbGmRsyPqDrCjQY-13" edge="1">
          <mxGeometry relative="1" as="geometry">
            <mxPoint x="-215" y="-2035" as="sourcePoint" />
          </mxGeometry>
        </mxCell>
        <mxCell id="5TNWNrZhz6dJ6IuifunS-12" style="edgeStyle=orthogonalEdgeStyle;rounded=0;orthogonalLoop=1;jettySize=auto;html=1;exitX=0.5;exitY=1;exitDx=0;exitDy=0;entryX=0.5;entryY=0;entryDx=0;entryDy=0;" parent="1" source="5TNWNrZhz6dJ6IuifunS-4" target="5TNWNrZhz6dJ6IuifunS-11" edge="1">
          <mxGeometry relative="1" as="geometry" />
        </mxCell>
        <mxCell id="5TNWNrZhz6dJ6IuifunS-4" value="&lt;b&gt;&lt;font style=&quot;font-size: 24px;&quot;&gt;MyPage.jsp&lt;/font&gt;&lt;/b&gt;" style="rounded=1;whiteSpace=wrap;html=1;fillColor=#fad7ac;strokeColor=#b46504;" parent="1" vertex="1">
          <mxGeometry x="-1154" y="-1993" width="169" height="53" as="geometry" />
        </mxCell>
        <mxCell id="NcdN86krktzqWG_P-AyI-202" style="edgeStyle=orthogonalEdgeStyle;rounded=0;orthogonalLoop=1;jettySize=auto;html=1;exitX=0.5;exitY=1;exitDx=0;exitDy=0;entryX=0.5;entryY=0;entryDx=0;entryDy=0;" parent="1" source="5TNWNrZhz6dJ6IuifunS-11" target="NcdN86krktzqWG_P-AyI-200" edge="1">
          <mxGeometry relative="1" as="geometry" />
        </mxCell>
        <mxCell id="5TNWNrZhz6dJ6IuifunS-11" value="" style="shape=image;verticalLabelPosition=bottom;labelBackgroundColor=default;verticalAlign=top;aspect=fixed;imageAspect=0;image=data:image/png,iVBORw0KGgoAAAANSUhEUgAAAiAAAABZCAYAAAAHO588AAAAAXNSR0IArs4c6QAAAARnQU1BAACxjwv8YQUAAAAJcEhZcwAADsMAAA7DAcdvqGQAABppSURBVHhe7d19cFTlvQfw39m8EBIC2ia8JiYN1t4mRJQGKxZREOsATue+THunA52RcepfOFMrFP1D506djjqEqzPyx704Hdor3Pba2zu9raIWFKRKaEEuGJKpRukG8mISIErek325z+/s2ew5J/tyXh92l++ns3bPAnt2z/PsOb/zvPweZfW9G6IEAAAAIJEagAwNDWubAAAAAP4LaP8PAAAAIA0CEAAAAJAOAQgAAABIhwAEAAAApEMAAgAAANIhAAEAAADpEIAAAACAdAhAAAAAQDoEIAAAACAdAhAAAACQDgEIAAAASIcABAAAAKRDAAIAAADSIQABAAAA6RCAAAAAgHQIQAAAAEA6BCAAAAAgHQIQAAAAkE5Zfe+G6NDQsLYph1JSSgUViyhwQyUpc+aSUjZXvKiQUlRE0akpokiYoiNXKTp8lcKX+yh8qZcoNKn9awAAAMh10gIQpbCICqpupsLqmylwY4X2qlVRCvf3UOhiB4V7OsVmRHsdAAAAcpHvAYhSWEiFS5dRYV0DKUXF2qvORcZGKNRxlkKdHQhEAAAAcpSvAUjBwmoqblxFyuwy7RXvRL64TJNnj1Pk80vaKwAAAJAr/BmEGghQ8bI7adYd630JPlhg3pdp1t2b1JYVAAAAyC2eByA81mPWnQ+IwODr2iv+URQOdO6g4tvuFhuY0AMAAJArPL1qq8HHtzZQQcVC7RU5Cm+6mYq/cQ+CEAAAgBzh3RWbu13uWK92jVwLhYtrqfjWO7UtAAAAyGaeDULlMR8yul0ymfzwOIWCH2lbAAD5Lbq4hl5+vIaqFEXdbtl/lJ45HXsO1zd93YhGR+g3u0/SL3qyp2540gLCs12yIfhgHAgp5TdoWy6JciqvVWj+NwO0ZH2B+li0toC+fHuASirxAwcAAHDKdQsI5/koWfuPvs12cSJ8uZcm3n9T23KmqFyhxSLYKCrXXkhi5GKU+t4Pc+LWvLB26xra0ZgIrPyMmKORUtr6ZBN9b4Fuf61ttGkfplUD148KevqFelrl4V193cYm2rM+dp6K9gXp0WeDdD7gfd2WDS0g3oourqB1t82n1Y2lVE2lVKU7R7GuvhGi/lE6fjZIx06NZHUdyvsWEE4ylk3BByv48iIqWFSjbdmnFJAIPgJpgw9WVq1QxUrxl/OUopTRXbf5VLZVlXTXfO05AMA1xDdEazfW097da+iN7Q20Y30lrVpQNiP4YFX8emMlfW/LStrz4r20d2sF1S2Oan8KdrgKQHjWi9s8HOGRqzTR2U5jbX+m4dNHaOSDt2m0rYUmgm0U5iRjUWcFW3TLbdoz+8prOfiIVTxu3bhyNkLdh8Pqo/dYmMY+S3ymuXUKFczSNvLQkvtqaW3E+x/XugcSd2wAkF/qFlfQQ1ub6HVxcc52dSvq6eUXmtSgw8k5qaqxgZ6wcKOWS8dEFlcBCK/t4jS9OgcXIx8cpuGW12m84yxN9p6n8JXPKDTYT1O9QRr/5EMaPnVI/PlBmuq/qP0r6wLzvkQBh9OBS3R35oPnwnTlXITG+qLqg7tdeo6GKRxfG0/U1+J52vM8pCiV9P0HvW0F4WbB7y/TNgAgb3BLwkM719Ce7Q30vcbsahk3U1s9RECwZ8vMwKOrNUiv7j9J25qP0sYfv2t4bGs+Sbv2B6mldUT72+nl0jGRzVUAwgvLOcEtHhx8hAYHtFdSC49epdEP31NbSOy2hhQuWao9s6eoNFEZJ5IMSYiGxetXEp+loNSTsbxZJdo3Ql3a8V7SWEl1HraC6Fs/1P5UAACJ4mPQdugCAh4j0XK4jbb96Cg9sq+TfnF6lM4nGS9xvmeUjpzupGf2naINPxJByv4Bsn+LDMzxlZOX1A98yX5TEnetcItHNB5MBAqoaEENlXztGzS74U71wc+LFtdRoKgk9ncEdZyJzeaxgkU3if/a+zcskNgthae0JybRkPZEUBTvLs5Zo390+kelLKilzU3ahks8uHC11voRjQ7Q8dbYcwAAWdY9bBoA3zdAzbtP0jMHL9kaVKoERJByul38u1HtFbDDcQBSULFIlJq2YdHUYJ/atRJXVLGEyld/h0ob76JZ1bdQ8aKvqA9+Xlr/TZpzz99TyVdvF6/VUUmd/TZ7pbiEAnNv1LasUywFOnkYdBj003vntKfCncsrtWfuLH2wdnpmA/WPEC0ojT0HAJCAZ0MZZvupM6La6EgWzQ65XjgOQAI32LwgRaM0/vEZbUMEHwtrqHT53RQQQUIqivjfrJq/o9kN39ResS/wJW8unNejd87q+p+W1dJDLkd6c+vH5vsSAceJQ0Hq1J4DAPiNx589oTsHcStsc55Mx85FzgOQ8rnaM2tCQ4MUGboS2ygqptlfa+Kmhti2j5QyByNEU1xnb6wP0PxVscesGxOffe5XE69befAsm5xwKkiv9sUOBk/J/e4DLoO5pvnTrR/8w3/vlPoUAMB36riPHxhn35040EZHEHxcM44TkZWs+ycKzLEehIx/2koTf4u16RcvWUqzv36H+txv4d4gTZw8om1Zc9ODBVQ8L1YpL74ZponLsYvw4vsKqHSh+8r6+UdRunQq+7KX6RORxZOCGZI38d3CY85+sPFBX/F+167DJ+mHr5HhtWSJyPT7Z06SLJmTWpn3kymREycm2vpALd0135iUiAfQXmwN0oHXBhzdQfExWdpUSZuXV1K16b15QFw3Jzs65C7ZUXRxKa27rZa+38jvrxtwJz57d/8A/eqt4HTTc6bjkAl/n3UPptvXgNiXtb7ya52I7FrViTgZ5eZF/TP/rq3i3/8jFsZNeFqnVtTTG1sSN1F+JT708pikK9t4HdTPrEl3bsurRGScA8SOyOiQ9oyoQOaCdU6mCWdP+Vxzn74WpBZtwLCrKblN4oei/SA5kPnVa9Zmv3x6ZmB6Ng5zNBbF0PIifoTipGUFn0h43j4nJuIfuf4EzfiEuGp9A730wkp6aqP1sSx84lDf98WVtGdLLa1K8t7c4lS1IJbs6KUnG2x3fyU++8pYfgPdyZspYruqsZZ2bNcSKbmY5cT74umM/H3S72slvb6zntbmcNImv+pE3PSx9LHcZNQ/t/yoU+uWJyZN2DkPZCM1d8nj9Tk/rdd5X0CBvQyg0VA8cYZgM3hxQwnYz1R65UyU+lsi6mPK/Tp9OU0JXDIMRnU6JVf/46dz/dZbUboG6Hi/9pwtm287MZph3+Ku6ViX9jyN2B24uIux8APnk/Wq9eJEaDHB0LoH7J04FHEh+O7jKy1fBPgC8zTfgVncBydSeunJWnIyaZ0vFObpjOnwd9lu47tkEz/rBFPf38axdFpuftc/t/yoU3xs47PvVBbPA9mIW3KS5S7JRY67YGZ/+5/VqbhWjbWdoMnev6nPS275Bs266Rb1ud/CAz000fKWtuXO9dgFoz5P0wxoRapmwPiJJl0XDDM3ndrZv7kp31oz50m6eH/ic3FSInNTL2c1XGNq/mRWmpYNx7lvhE5wk/0ZzjlgfP/NPxCfW3dnamX9EvP3ZYl9DEznNeBjrza/318zvY+uVnFHuKzCcjmby4/xdMbfmJrtkx2rTN155u9ht84l464Lxt86EQs+zOUtyu1QOx34TBxLD8vN3/pn7Tedil91ylyeVruAvODmmKSrh1weza8kuuKSSXXuzRaOW0CiU7oWDQsCZYmFVTjjqSx2PyfMpPR00q/0U3Lvr7XVCmJIu+7kzuNU/3Q3ELPTDaOf9mu166f6fnGHyD9w8YN9tTmWlMjcz3y+5xL9ghMRNQcNXURL7qu3dKfI780nk03Pn4rlHkjy/j999tT0IGDV/EpaU6U9T2Hdw8bgo0uc7B59VstvoDvxxPIXdKr72KVldOT1LabLyQJzLoXYvtpiCZx0F4H4seKETXF+ZNj1k991Qi23GcdSlJspGZYX5cb8qn9u+VWnlt5mPEYXRVCXk5bHurL5uGx6nuugvXLPNs4DEN2YDisKKxM1N3T5M3UNGBmikvaT7wxTcm2ciMxNnzz1Nt0dVDLmbiCr3TB857GmUddKZ7Hrh/ub1bspC3cLHJz98EDi2FiaLdTXSY8+Fru4pMMXm32vdE5fzPi90y0OyC1FhvwG4iT1iLjTSne8eR9HxIl8V2vm46nHd1b6dPpW9sUJm7YdTpz4/VpnyA9+1gmZ5abyqf655WedqtHlG+Lg66K8e2BPrRLBJrd8PPfz3B2/ouc8ABn6QntmTUHZPCq8cYH6PBoN01jre5ZaJ6KRME1c+Jj/kfaKPZERe58TUnA4JdfcAuF06q0+AOI7ndVWMrOaVtw9cdb6j1adnmfx7kIRJ0HDhSBDgHTkYKf1IMw0BmZJmsRtxkF24mJp4yT1zs/bDa1Mmehbtezsyzyo2VI5Zgm/6oTMcmN+1T+35NWpUerM0fEfzMlNXLZyHICEr+hHBlpT8rXbxX9juwwPf0HDf36LQoOpQ1H+s+G/HKLxjz+g8U8SSczsiFy2/zlhJr4bOtaqu2Oy0ArBrR/6xGPdbwcdTeFV6QIgZqUbRt/syncNBywGP3b+bpyjAMkCPu6d+io8vyxp95e5pcnuseZWpgNvp78jjjPfqdrb1yhd1H0frzLs+s2vOiGz3JywWv/cuh7rlBNO6mE2cxyARC5z4GCvIhbMuZFK61dqW+I9xodp5IMjNHT8dRr96DSNnz9H4x3/RyOt79PVP/1O/bPI8KD6dycvdFDEZndKdGwEXTAesj0l15R4zOrU22TsBkDm7pfuVut5Gez83WmmcSrVCyWPbzBNNT5+xv6x/vQzixcy8d0Sd6r29jWjHH26oHnNtzohs9yy2XVYpxzpd54TKBs574KZmqBwf4+2ZR0vMjd72V1iz4npsZHRqzR18SOaON9KE51/pVDfBYpOjGl/KipY0SwqXXEPBcrsZV8Nd8dm3YA3zHdb6frw1ZHf9+umINqZepuCPidIxlYGXfeL3ROaswFqxrswJ03VnHyKR/evXVFDD22tp6d2NtHe3YkZC+ksXajfn8MmZvG99YMnU/FkXznGrzohs9wycVP/3Loe65QT3X15EGzqOA5AWOjiJ9oze4oX1lD5nRvVVXAVJfVH4NVweS2Y8m89OD1+xI5Q16faM/CK5SDAkHjMo6Q/pv7odE2thlHvEub8z2iqtiCWEKqe9u5cQwf/9R41+dSe7Q20YwtPL6ykVZxsKf4dMtAPsuO7JD/X2NHvi+vAjhfvVT+/1Yc+sy3frdZoT/ONlTohs9zMvKx/bsmtU6VU4/NsHr/k7OydFFwFIOGeIEXGnB2QQOkcdRXc8nv+gWbfuppmLb2VZtU20Ky6RnVJ/jkrv03la2Kr4SqF9rOZRga6KXJVW3sGPGN1Sq6T5F+Z8Al936FEv3qqbhhz90u2DdriE/9T4qQfy6YpAiXdtENP+NhMy8e2RjewFzwkqXnd9/pnk4w61alrOeBB9NULtQ24plwFIKLmUKjjrLbhDAcXxfOrqeQrDVRy863qsvu8JL+art1F9D35sbvPBallmpJrHlDmaQCg61dP2QJjSvueTYve8bHhFMr6nA9xvI5IS+sAtRxuo13722hb80na9qOjGadaXg9BgfQxNRJci3Lzo/7lAvM4mXweqJpL3AUgQqizgyJfXNa2skO4+zxFLvdpW+C5DFNyDdPpPB61bc4JkuxE4jjtuwtWLiZqtktdVkPGGTV3NR+ljT9+lx7hpFD72tXEUEdOx5JDZduAM3O3ApcvX6T48zt5bHq8XUr5MHN3h9/HNlOdcNJt50a21j8pdco0INjKLD7wn+sARNRqmvzwOFEkor1wbUUnJ2jy3Elty1tjvVG6ej7i+jFxKbcr/syukNrpTI8zphU6mT2QgaEFxnQi0e/fs7EnlpRSte5ik2ywmD4nCuNMlLGMmu6Oz4wLmdNZALqZCJb5NobD/aBePXMwIGcwX+Y6YeBzuflV/zznQ50y37hkHMQOUrgPQITI4CWabM+Odu7JD96l6IQ/J5fB9tgCdW4fQ8HsCNZcMXSFJDIkOkl9bpuhBcZ0ItFNa5S64FRVGVVrT5l5sBhfAPXjUmItQ94dG30ft9MTuHEmQmqGffk0oG9GUOX6jtUYDEgZzJehTjBZ5eZ3/XNLRp0y3LgIdpeUAO95EoCw0Pk2Cl1wNivGK5NtJyk80K1tgZ+ST8l1lvrcLr446ef967th9N0vTltfnPQPG5KeJR13YrwAWu0CMLcopaLv43Zyd2e+QKVjnAnlX3puT5O7mfJt2E3F7U+dkFlu/tY/t6TUKVMyQ2VBLT2RQ+sR5SPPAhA2efZ9CvUEtS25pj4+S6FP9QuGgN9mpEB+0Jh7w8/uD/0JK353bO5+cZLUSWXzbpv3q8/46mngpW/RScfUx2377k43cDejLnEB154y39Z0cfudNHyRNuakCdpfEdSvOiGz3JywWv/cklCn1K5j3do2rGr9SnpqhbXAG7znaQAifnVqF0io8yPtBTkmz/2Fpv56WtsCWcz9qqvW1yb6op2c5O3Q5QSZvnPUnyxd7J/fb/vDlZYvBPoVaC0HXhb6+/ki9vRm3YUzjRl93Dbu7uzsh5lbv/h4+bGybbLv9JIoF7u4fPQXaTtrAsX5VSdklpuBx/Uvzul4JGl1qqeTnjOlrl+1ZSXt3ehfEOLZGK085G0AwjgIOXs8NjA1HNZe9AcPOJ1o+aPa/QPXxjtvGe8o4pyc5O1Q72Z0A2G5iVzf/eJ2/0pjg3qxS3ei4DvrtVubjJkiUwQ+yS40m5tSn2DVu/YnExcxK8xlYeXujnNCPG1zP0zf+sV4X3u3Vlg6sfJ3q1tRT09ZOOmbF1vjcrGzn1j5JI4zr7D6zGl73zXO6zoR57bcon2ZM6HKqH9xxnEt1lfOllWnzh/kVYSNraO8r9d31tBabTC9VWp5b8y8X6fHJN95H4BoQsGPaOzY77U1Y7zHU23Hj/wOYz6uNVN2Uub11NuU9M3Xy2qnc4+4zf3BuRCYesF5MnYx0J8E4ye7l580XdzEftOt4GkeBKfeefEJVnfS43TYfEJ7+YUm9a6dj+WrFvMwpLy721kvTqzGE2Qd70dcKOM5Ifiz72oOZryQxfEF7ae6JedZVfx4bTR+J6am+VZTfDfRGy+upD1bKg0DNFNJuZ8X+NjxBcNYNkz9btoxNJRPn72VZvX8qhPMTrmp9cNUbs2vWPtOfte/OOO4ljL67g8aDBd2rgfJLtiy6hQ7su+UYRl/xkHZju33ikCknh5awfub+RnVfYrgb+1G8R04mZvY7471mffr9JjkO2X1vRuiQ0PD2qY/ChbVUNEtyynAycVcioiAg5OMIc+H99ZuTaz7wHeKm/YZTwapRMWJ9w3x44/rOnySHjloPKEmE7vLip3o1G0b+4zTf+Y4q/uPiy7m5EyJ/Agt+4/Se8vFiUV3IclEvbg925Zx7Eeyz5uKenF5rI3o4XsS5SIuCI8+mz6xm/muPxO1i2D3SdpHtTOOQ6bWAr7o8onfCTvlxPt5YnNFoovPJivHTU9mnYiTUW4y6p/5d51MurKXVaeY23oVl2m/To9JsnpopwVP/+/j9cXXrnGbfGsB0Qv3dtL4u7+n8eNvUOhCh7qQnR28qm3ok3M0fvR/abzljwg+so1udDmftHyZepuC+a6Of2SOB5/qJLtDSqVLBE6PWrzQvPPzmc2/yagXr93WL1566mffrxukm0ZsPzNPSnwcrcwUOX+6nTY0B6lFN7sgE35vPmbP2agnvJ8f7m4X+7FXtrwvzuxpJ/hIxa86ERd7f3fllomM+pdssKcdsuoUU+vVY+KYWDzuZvH6lWm/bo9Jviq4qfar/zI5Oalt+is6Okzhzy6IYKJVBCUXKHJ1kCIjQxQdH6Ho5JgINIZjj8EBCvdfpHDnx2p+ER5gGh7oMayQC977yu019K14hN4/QP95xtqdhKJM0dV5lbSxrljt7/7ZWYvlFC2i2+9eTA1z7O9zWvcIFd+uf48e+reDn9OgnTua8hvoO3fdQHO1f9P1YZCO9So02NFD+1sHqHe0mGrKSmlufB8Cp61uO9FBz/9PO/3Hn8Ys74+PVfAMv6/43OVlNI+KTO87QG/+rp1+8t89FByKvW4ol5HP6Y33Mn+/wd4B+v2b4rMXTlGgrIiq5yTWU+KTZve5Hvr3VzroZ28m9mM8DlPU3tJDZ+J/loYy9AUde7+TWsR3Gk7ynZh6vP7WQy2HOugnv+ykP4hytlVGgjI0KvaTKJNAmXhNfLd4ucXF9/Vr/n6/7aRjHfb3JbNO6A12xMuN35/E+9stt8RnTUZW/eM6kfgeieMU+w4d9Nx/pX8PWXWKqcdEHPc//DG+P0Xsj+hqirp1deQLUc5B+rUo55/9ttdy/XJ0TGyUbVIOf9OySOmCAfCLOlL/hcRgObtNlMxtM2e+0Hel8Ukx25prZUKdAPCflC4YAN8YEkxl18JzucaYUXOUOmVlkQWA6xICEMhZ6sAuQ4IpOQvP5SvzYm2d2lMAAD8gAIHcVZXIvMr8zj2Sz7gry+9FBAEA9BCAQM7yc9n/641xEUFvZhIBAKSDAARykvmO/cQh99Mscx0PnHSSzIgHn+5Zr8s/IXMVYQC4biEAgZzDYz8Ma22g9WNa9X1NaiZHqyml1eyduvU+1NkvryCYAwD/IQCBnBJbA4MzRia6C3DBNFIWVCZSSidJYR1PVb535xo142S8G4t1v91+3U69BQC5kAcEspo5z4eZ3dTLyeRLzgfz97DLi2OZL5AHBMB/aAGBnMQtHy24YBqoi5oduERdNlJYM067vav5KI4lAEiFAARyCgceXa1BdR2MZ3DBnIHXtnjk+WO0obmNXuX1LfpmLtWuHkMRdPAaFttE4LHp+XY6gm4XAJAMXTAAAAAgHVpAAAAAQDoEIAAAACAdAhAAAACQDgEIAAAASIcABAAAAKRDAAIAAADSIQABAAAA6RCAAAAAgHQIQAAAAEA6BCAAAAAgHQIQAAAAkE5dC0Z7DgAAACAFWkAAAABAOgQgAAAAIBnR/wMRs4Xml5BxygAAAABJRU5ErkJggg==;" parent="1" vertex="1">
          <mxGeometry x="-1249" y="-1720" width="360.63" height="59" as="geometry" />
        </mxCell>
        <mxCell id="NcdN86krktzqWG_P-AyI-163" style="edgeStyle=orthogonalEdgeStyle;rounded=0;orthogonalLoop=1;jettySize=auto;html=1;exitX=0.5;exitY=1;exitDx=0;exitDy=0;entryX=0.5;entryY=0;entryDx=0;entryDy=0;" parent="1" source="SxZXUM3QAzLFVXpRYPAV-1" target="NcdN86krktzqWG_P-AyI-162" edge="1">
          <mxGeometry relative="1" as="geometry" />
        </mxCell>
        <mxCell id="SxZXUM3QAzLFVXpRYPAV-1" value="" style="shape=image;verticalLabelPosition=bottom;labelBackgroundColor=default;verticalAlign=top;aspect=fixed;imageAspect=0;image=data:image/png,iVBORw0KGgoAAAANSUhEUgAAAYwAAAA8CAYAAAB1hI2LAAARM0lEQVR4Ae1dbZNcRRXm51AkLAkJ2Y2VkASEEMIikyCoxLJKTK0vYCUfREyyJJRiUZYSKVdUBH9Aan8Efsz/iL+jrdMzT98zZ7r7nvsy7Ez2+TDVd6a7T5+Xp8/Tfd/miSePngzyOXP+Ej/0ATFADBADxEARA09owjh99uVw6jsv8kMfEAPEADFADCxgYI4whCyeOXGWH/qAGCAGiAFiYAEDJAyCYgEUXDRw0UQMEAM5DJAwSBgkDGKAGCAGXBggYRAoLqDkVhv8jatQYuBwYYCEQcIgYRADxAAx4MIACYNAcQGFK8nDtZJkvBnvHAZIGCQMEgYxQAwQAy4MkDAIFBdQcqsN/sZVKDFwuDBAwiBhkDCIAWKAGHBhgIRBoLiAwpXk4VpJMt6Mdw4DJAwSBgmDGCAGiAEXBkgYBIoLKLnVBn/jKpQYOFwYWAphHHvhjXDynV+HU+99EjY/+DxsffRl/Mix/CZ10oZgO1xgY7wZb2JgvTEwKmGc2P5x2PzNX8Ppj//j+khb6UMQrTeIGD/Gjxg4HBgYhTCOnb0UNm/8yUUSOTKRviKDoDscoGOcGWdiYD0xMJgwjr/8/bB1+4veZAECERkii0BaTyAxbowbMfD4Y2AQYUiCP333q8FkAdIQWSSNxx90TCyMMTGwnhjoTRhyCmmMnUUii9l1D5HJ01PrCaYuSWCyezP87793wqMH18Lk+BnuLB+ju/U2jl8M9x/cjvF9uHuRsT2g2C5jjvUmjCHXLCxJ2O8iu0vyOXP1XHjtzvlw5c8XwtW/XAivfXQ+nPvR851kdBmvS9uN45Ow/8108jz65ma4v90/OW5sXwsPk6ydcGONE+0ywNwlLn3awv+Pvunme9j6cG+yGpi8vhOTuRD2/vX+eCz5cFUI46D8Prl+Lezv3QwPZ6Qpfp4ujuS3nXD/+sVvZZEE+8dclPUiDLmzySb5sb9775468+bz4epnF7Kfc9fOHfgE1YQRQTMgaQAAUU7HpFWa3Af1O2wZE8zLtqUPYej4D10waPsm25NwX5JSxxW8TuZD8aj10cd6jK76aTlDjpfl95pOk+s7aUEnvq19cn7pG9OSTsuYY70Iw3Pr7Na9r8LJnTth4/V3wpELl8NTZ18KR156I2xMfhJO/OpeOH3v6yrpyBglR+jfL9+eksW5d86FYyefjx85FhJ5/fcXXDK0vLGPNXCnib7fLmNRTrdV7th2DZW3DDAP1amtfx/CEJmwdawdxpCEDBuQzMYkMfhviH6QMUY5tt9LOom9N/amZxHiHH9wM+zvTsLEnE3Y2L4YZPeRI/pl+Az2j7ko60wY8sBd225i8/YX4enLP4gkIUSR+zxz9aetcjwP973x6ZQwjp9uzvsfOzXddVz5bHUIQyYmtqi51UUJjPi9Cf7NuIrpeloEclalbOxZn2sYSLYH7fshyaXx+xRHkuD64LGGoyH61eSuYp22Veb4/vV+12y0nLHi0cR6vDnWmTDkKe0aYWze+yo8ffntSBJPX3oz7iY2b+3FPpu3/h5O/vJumP7+cVWOjCFjtYFErlnIbsK2w2kq+/u3/R07gwimvdmF3o6nkyAjTu696bb3oJPWUD8uA8xDdWrrv+6EMZ+UJmlVPOYKVHw4P06/BNoWi1WpB45lbg65HrQMn0G3MePbmTBOvf/HaqJ/9vrvIlkcffXtsHX3y3zbltNRICQZqw0YsotYB8KYAqq5AN5lFbExu0gZSUIf86J3Kz7a8NOlfu0JI2FneloUuBqa7KwPl5H87Bir8B14iAu5jteSrP7L8NlKEEbb9Qucijr5/id5snC+NkRIw3Md44rZYWBn4S1t4Mb+rncHsgJJQXTuMiyQMMk9O4x4t8aD6a5GQB2B/WAn3Ngur/qSfrPbXTdmF1fRP55a25vM3eUhOt7Ynb/g90jO41a25wvjHJfzuzvptJ2MNx3rWrhhzgWXYtTHXuvP6O/ZTjD6SyUCJAiP77WOOL/9qHDDQ/KfuqsmZzt8hljkytoqN+mB2Oo7+Aq6aTv0cdnXZ1p3GLADK99lYSzZm7Et6TCrizGQmwhmdyFG/M3uaNJ26+Mk3zmXdV8cQ49cLPGbjmkXvEI2/Iwxh5Sddxhbu/+qEsGR86/GHUZxd9GBMGSsNuNADGiH794S/ZZVWsJA0hEwaCCUxm8AMr8qrCUtgB+Ay5WlHc4cyNRtvFYGQBjtU4nOtnONo+7bt/3lezydV7n9c4i9jX/lJoJJ2De2aP0Ru5rvc3FMiSWTuESmHVP7AH4WuYiNrrfHJUxpHGqbkm7OpCe+xjMWdmx8l4UC2uix4BvYEW1bIsaSbRm/Jx32JgFxhf62zNlQ8ids9JbQw46pv+uYdsErZGsMefUqtVsiYdSJBaedaqWHMKxhXqJAO9t/7O8aWAh8AnLLQ2t6cmJ1Og+Y/D30Sb5chJO7NWanrmxihT7a5gZks4vrD5oVvu3/cHeiEoMaZ7tJvJLsc8+eNOPIXSO3p6SgdBWdZBWLFV9JjrQbYq/2537UQ3Zgeb8isYxFGBobj+LOrxlXfB1X8XuLFyw1LnLJTMcTx8nfJh6wSRJUDg/oL6UeN5J4Jl6W/HL6JV0eLBdjCRdVwtiJz0lN/d/svCeKyHPYa3CTx7f2m+dY+zbnM8hoxt0JbXht/LyIIcjrWnYmDO8pqefe/0N1J1IjCtR5TklZg0EE3tL2H/u7TgqYkN5JinYasBowuQf3UF9LAAlImVUl6qR/aWWCiYhVUA7g2u5c/dw4JonpGGg5IM25esdDaBgrl+i1v7Sf9Rg4buLR7ZZm+Mvqj7FzemHMXOlNLuir2y/ooHYMpXgnOQ5f67EEH62xLyya4LMhGIMMa7PYA0zUcI545+xA/66xgy9tqf2W8xnaAzNR78q80Ta2xRWyPWVnwmi96P3uh9M7pC5eDVu7/8ySxuatv4WtO//I1oEspPRc9LZGeokC7Wz/sb/rhJcIQ0/SzOoHOuQAD8DkgKpBl5skkJvTCXXNRCivnPREqoExp78dJzcZ0QZlY/O8TmPYC9kuPWanT3K+h665suSH5OtC0szJkt+03bXkgv46XsAg6qRMelQSkB6zhq2onzrNlNPPNZ6S0RdjJb9rmyXuOZ/AP0mGiVFjQ7fFA+TaUvs35zO074LXpKPRHbL6lJ0Jo+222q2Pvw5HL70VSePId78XTvx8N8Tbau99HTZ/+3l49mcfhqMvbMfnNLbu/rtKGp7baq3RIAJvafuP/b2UnBH40qq2NMmbfotARZ+STG0bJoIFZwJZZveB/tom2x9tpEyyMoBNdZVxIEuPpyf3GPY2/pwnI4yty2a8Rd/rdvYYvraJFmO3JS0rz5tc0C+NX/A17KqRJtp4sNWmnyf2OuZ9MZbszizKkg4ZbMJvUpbapd8LPtUyPMdtPoMMYMYTh6Rji42Q7Sk7E4brwb1be0Fuq809sIffjv3wF61Pe3se3LNGeokC7Wz/sb9r4M8lu5ZdRgK7CXYDmMWklepMn5xNSb6ZTB6QlWyy49Rk1eqsnNJkGsPeJMMx8Zukueh7q7P+XvK1tism673mepHub491v1oylX46VpawIFfLK+2eOvlJYTunnyf2Wm89b6Azypqskt+lb60fZEtZsjv1d+BGyysd6xjkfIZ+JX1Qr8ukoyMf6H61486EIcLarmPI6STZaTz77ofTJ77PXwpPnXslHLl4JRx7ayc8d/PT6s5C+ve5fiG6gQi8Zc05Y9TVgF8Kfp8+oisAIsnH+7FJBDJqpwFq+mmf1WTV6rQMOS5NJsjw2irtrL2lGFgdoh4jn5KytsEOuQArL6jL6WD71JJLbOu47iDttC9zCRr1NVxA31K8UO+RNQbGXIRhFkzQEWUJH83v7TtTyKqVbT5D32bc9kWLx8+Q6y17EcYqvXzQGuolCrSz/cf+XgO+rtMTPwU6s3qpAQb9kHg8pU2gkFFLDFrvXHKBD2uyanXoj7I0mSDDYyfaWHtr/sT4KMfeYUCulNPnGpr3EYm+9s4ptC/5A/W6RNKE/Z7S+ijq1+F19G36IW7Lxhhsr9rTlzDUNZbaHNCxqB23+Qx9u+DV42fI9Za9CEOEr9LrzbWxIAJvqfsu47gtuaagzshBt9ckAt1qgEmyBmxBPTK0jrXJUpNVq4OtKEvjdZEBWbas+XOh7RJ2GItjyIvsmoctc6eI3MlFJTUPUaBN7vx4F1+36eeRVYq59VdN1lIJQz/0OGC+wZ42n6V26Wn9NdphiPL8A6XmZYcIZq5sA76tb0tgtfpaXU633G+1CYj2Vmf8bsuarFSX2UVZOc3Kfn77P4a9XWQ0erRPVm1DLXHpdvoYY0kStwsHb3Lp4mMZuzpmSlTzMdA641jjw+oubZJelUSrZfRdlNT8nnToucPQdkiMajrCL7XSG9MueE02Vvxc0ylX13uHIcL4F63tpOEBvg5s7QlZ8XkNMJ6xciDQv2ld8MCfro86qNVVbaLUZKHOM9nSxDfAH8Pemj8X7P4WdhgYs5ZAanW5/rlTMminSy3Xni6qkYmWIcc6to8zYWj85XaC1i+179r3OZ+hbxe8Ig42lpDVpxxEGDKgkMYYf9UqMh7H//PWoColVz0ZJYHmTgkguG2ASclVVu6FJ5YhK1d6QOaxSWTXZKFuam95xQ57S8Qy1F7I90x4xMnTVvs26diymtV9aglE15XIAHaV/KbH0se1fsmO2vMa5jRYLvkh9rVENgbGkr4ZvycdMnU5f5Rirv0V2/SYczKeJ6axXdrplecM9E82moUW6vuUgwlDBpXTU0OuaUjfx/V/vL3AB7hjAq2AGAAtAlit/oV45L0+eqcgwIz/7CUvC8yM4wGZ16aarKZu9noISULqziDRU7/QsJRctC597G3zp55UYxPGJMZAbqU1MdpurmOUFg/Jf8Zv0Bd4KuEE7Ww550+DD9g/Jfl5bEVczf5xTi7W4xUhjzthiP8EQ3iFjfjmYbw9ej6m0m5S+QOlWI8bCwoxxVhT/68xYYgh8pG7pzy33OJpbmnr/StWjLFupZ6ApR2G2ITJWEoQsNuT4OTtn5iwAq7SJ7c6TYmosirx2lSTNVdnJpzVt0QWyScD7PX4sxmnebeV1dF+175NydskYPjA9sX3KQE275eCHlICL2iLUjCm45NL2FpO7jjpm7m+ZJMjxkUZ7+xap+cwTEysP7z48M45+CkXl1pMoZdXH2kPfLXNH8j2lKPsMOxA8sCdPKV96r1PwuYHn4etj76MHzmW36Suz0N5dpx1+K4nb40wxBaZqG3B9QImrdDN21clCcU/ojcvjoMvPSDz2lSTZevsK65lYkU91a4DOubKvvZ6/SljliY0koAuPYSRVuXmFfTx1fCF+Gjbc0lKMJZ8Wzl1pOXYY21nPrFNd0B6Va11Frtq1+KSfktelCTiy5BC0iFTp/3RBR/SL/0vt5l3UzzfDPt71+Z20nosOS7FFO266JNsrPgZcr3lUgjDOzjbtV80p4/oI2KAGFgVDJAwZqfTViUg1IPJgRggBlYVAyQMEkbxFRSrClrqxYRKDBwMBkgYJAwSBjFADBADLgyQMAgUF1C4ojuYFR39Tr+vEgZIGCQMEgYxQAwQAy4MkDAIFBdQVmmVQ1246iYGDgYDJAwSBgmDGCAGiAEXBkgYBIoLKFzRHcyKjn6n31cJAyQMEgYJgxggBogBFwZIGASKCyirtMqhLlx1EwMHgwESBgmDhEEMEAPEgAsDJAwCxQUUrugOZkVHv9Pvq4QBEgYJg4RBDBADxIALAyQMAsUFlFVa5VAXrrqJgYPBwBxhnD77cnju9Iv80AfEADFADBADCxhIhPHk0ZOBH/qAGCAGiAFioIQBEgaJkgsFYoAYIAZcGPg/Fzdb5QIm+SAAAAAASUVORK5CYII=;" parent="1" vertex="1">
          <mxGeometry x="92" y="-2114" width="396" height="60" as="geometry" />
        </mxCell>
        <mxCell id="NcdN86krktzqWG_P-AyI-192" style="edgeStyle=orthogonalEdgeStyle;rounded=0;orthogonalLoop=1;jettySize=auto;html=1;exitX=0.5;exitY=1;exitDx=0;exitDy=0;entryX=1;entryY=0.25;entryDx=0;entryDy=0;" parent="1" source="SxZXUM3QAzLFVXpRYPAV-2" target="HEAWCpbGmRsyPqDrCjQY-25" edge="1">
          <mxGeometry relative="1" as="geometry" />
        </mxCell>
        <mxCell id="SxZXUM3QAzLFVXpRYPAV-2" value="" style="shape=image;verticalLabelPosition=bottom;labelBackgroundColor=default;verticalAlign=top;aspect=fixed;imageAspect=0;image=data:image/png,iVBORw0KGgoAAAANSUhEUgAAAfUAAAA8CAYAAAB/2CPZAAAU3klEQVR4Ae1d63JcRxHO46RiR5Fix5IoO7YTYuM4CpGdCxBRVBFU4pJQ0g9CsKzYKQiVoiAmhQgQHB5A5YcwP/Ue5jmG6tn95vRpzaXPbbV73D+25uyemZ6+fNPfzOy5PPPs2fPOPuYDw4BhwDBgGDAMLD4GnrEgLn4QLYYWQ8OAYcAwYBggDHhSv3jlhrOP+cAwYBgwDBgGDAOLiQFM6gKpr1+65i5851X7mA8MA4YBw4BhwDCwQBgg/j5B6kToL5y7ZB/zgWHAMGAYMAwYBhYIAy+tv2qkbhMYm8AZBgwDhgHDwBgwYKS+QDOwMQDObLDEaRgwDBgGhsOAkbqRum2tGQYMA4YBw8BIMGCkPpJA2sx3uJmv+dZ8axgwDCwKBozUjdRthm4YMAwYBgwDI8GAkfpIArkos0jT01Y8hgHDgGFgOAwYqRup2wzdMGAYMAwYBkaCASP1kQTSZr7DzXzNt+Zbw4BhYFEwYKRupG4zdMOAYcAwYBgYCQaM1EcSyEWZRZqetuIxDBgGDAPDYcBI3UjdZuiGAcOAYcAwMBIMDErqy6+85c6//2t34cPP3erHX7m1T7/xHzqm3+gc1bFZ23CzNvOt+dYwYBgwDDw9GBiE1M9t/Nit/uavbv2z/6g+VJfaGPCeHuBZrC3WhgHDgGGgfwz0SurLl2641d0/qYg8RvjUlmRYoPsPtPnUfGoYMAwYBsaPgd5IfeXaO25t/+vWhA6SJxkky8A3fvBZjC3GhgHDgGGgXwz0QupEwuv3HnYmdBA7yTJi7zfQNnDMn4YBw4BhYPwY6EzqtF3exwo9EPr0f3iSaVvx4wfg5sGe+99/77onR1tuc+Wi7dDM6ArcpZXr7sHRvvf98cF18/uM/H7apGpxn4+cOmTe60zqXf5Dl0Quv5PsJoPg4u3L7o27V9ytP191t/9y1b3x6RV3+UcvN5LRpL8mdZdWNt2jx5Mk+uTxnnuw0Z7Alja23HGQteN2F5gMhwR3k/g0qbu0vTOZiDzW+57H/9F2+9g30TNXdyzJnY8FmhzKz5OjPXd8uOV2O4y3nB/7PgdskR1D4GRe4o5xf3y4OdP8vLm95R4d7rnj6YQWePE4OdpxD7avz2RxAfuHWMx0InW6Yl0Scd/ftVfFX3z7ZXf7y6vRz+WtyzMFTmyg86ROQHrSAcwAhJfTgFhiep32b7BlCHAPZRsS75MGvufxHyJZN7V1Fsl9c2PTPaAEOuBOQInUkbSpJAKZ590gHpOuOSKFB97HkHFJ9U+/87HQdYGT64ef29zeCQshjonYccwvfWN5yLzXidQ1t62t3X/ozu/cdUtvvu/OXL3pnrv0mjvz2ltuafMn7tyv7rv1+99mJwbUBw9O6vjm/oTQL79/2S2ff9l/6JiI/s3fX1XJSMnu43cOZD9gW67WT8rRrxb7sKNvGUOCu29dIc9IvbyFOSvyAKmnyIGS8aOjyV88QxElcNG1hC0gmpRNXfqZVVxKOmLcD71SJ3t3Dyc7pD7+R3vu0cGm2xQ7N0sb1x2t4mOT0CF8BvuHWMy0JnV6aExpVb66/7V7/uYPPJETmcc+L9z+aVGO5gE1b30xIfWV9SrhLF+YrN5vfTk/pE4DFVs/sRmhdjD47aLH+67JarEk+zTODwnuoewxUq/GWMrHQyTCWF8gwhIB8sQ+DzslMVuqsbAXVpVtckRMNn6bVVzQ32mW3FbCx6PtdteOcDl9xaOKdf/XErUmdXoaXI7UV+8/dM/ffM8T+fM33var8tU7h77N6p2/u/O/vOcmv3+WlUN9UF8lcNB/6LQql/WwJS9/n/V3rLA9uA6nF4c12L4lfSGDZpzHh5PtJCP1MsH0HWsj9bLPh0iEsThqSZ2PnS5/fcV06OO3ur82w+qy75VcvZ92JNeHvbOQAeKkfNllIjeEz6Bb3/Elv7Ym9Qsf/TFLxi9u/84T+tnX33Nr976J1y1svWPSQH2VQECr8UUg9QnAqovmmsz8amTS4mKtkg9P4/yQ4B7KnloclBcpclLpkmD6smmIRMV1G1o++tKTenW1/xCJFPq0LStMTS6ixfeuhCT1mVVcZL+z/g5c+AVQx2s6hvDZkHmvNamX/k/Htvv5jz6PE7ryEbJE7Jr/1W+JlTpW6NpyaNDJpB6CqlytS2Bh0GtW6v6KT/a/ogf60Y7b3UjP1IN+01vNlqYXPVFb+vi/EcSFR6Tj7kH9ghT6myC37XWinxX6b2sn/EVR9aW/grmNvdKf3t/THRXvL5YYZF0NdmT8ZZvZ+uGik3iS+tB3H3OKJ11BPr3bAvE/9vg5eRU/7EC9WJma1LSK2/ROkNL2O9mDLXhJ6jKeudhzP2FM4O802Eq+oauoed3SsdSN46XpzkLaj+W4I37wEWyEbX2N+2Bv5ILhoMP0nM8rdMElw+CTgo+DfGV+jcUHesD2WMmx3ARHkA0/x/pv+1trUl87+FeWrM9ced2v1JOr9AakTn2VDAR5ox6+a0u0G6rkg5SAwGeSHBip/ivA1GfyOVLHYIiBEb+ldgpqoGO30KEdSoDS2yduE0EdKlX9sHuneVsc+78uMreDdbG38i9deEgXV1UX10j963VPElsshjL+sk7N3z34Afegw3eypIkW6sRiw/WVbfl32RZ28DryWOK9U9yUpE59wF5JkvV45mNPcdPoSzYT8WhuN+W+5v5sSkzcRulzfC/FHfHz43rAcR9sK5A6z5OwgZfcXxhTKX/ivLaEL3h/8phjuQmOIBv5U6uTpt4MSD1P/thiz5UaUpfGaskc9WT7vr9zoAEIAdiFB6/wwYqEVAdQnFiCfLpIhK74nG4Vy6QEfbjNFegmM2QCH+71le2PDzZDwqTj0I+/8jh/b37VD115Shf+1XUlnWjlgVl6bkXWxV7uz0deD9rJiPuV19UkbbIhFv+4v7v5oYaVhC9zExbo5PWl1ZC/Uri+6qTVG2Sk4sH1iCVe9ENlp7hpSZ0RlNSHx7MUe64vJXh/mxzDCV1FzXerNMQexoC4I4YTWmyMch9yf6fGEGIGYpJ+IHlBl+nuzFDjPsQ8S+o7/tke3odsV3FzYyuLvyqe3Z4HAv9y38Z8Fuqxv0RLOKr8PEcXymm331/66A/ZFX2OzHFOs/0Ox6IEWWtLtBuqjCV17aBFPZ5AK+DGVwM4TwM4lRACsCJbVDhH7VOzSQzMXJLgdscGRK0fkdR4LLgcTGxq56cDqq293F/cz7wPHKNubpcEdVFy/WPxmKUfeJIif8XiAr1TJTCZas/7yMmHL1vHTUHqXJdYzLgO2thP9K1PdrivSv5B3ZpuguBq50oTfwX+ubxU3Go4TPTZx7iHjNhY1uiQ8y/ax2INvzcpud+0WC7hKOiY8HET/WTd1iv14oVyH3wyufL9+m23dvDPKLGv3vmbW7v7j+g5EDqVmgvlpGFaMkc92b7v77GkzsESAzd0iA0AJKIYcLVyYzqhzwC6HNGy1U+K+EleTH/ZTyrJoB6Vlc31GXgf9kJ2Mz3iEyquM45zvqY68Hez/tv5wfuSxS6XqKB/rMzFlcckJZ/XyeE/5zsk91gSJfn8+gyqE5tQaWOv1Re+QkxjYxR1oD/FPaZbJaMea7SnsolevL9YXFT9Mey0Hfc57ECHlE9ge5AhiBHtc36HDE3J/RvzGWRocUT1g45Cd8jqUrYm9dItbWuffevO3njXE/uZ737fnfv5gfO3tN3/1q3+9iv34s8+cWdf2fD3sa/d+3eW2DW3tEkngKy1pWzf9/dUYgIQYkmJdOCDkA/6qt1JYkGblExuGwaGBGsAXWQVj/bcJtkedagMsiIADucy/UAW76/mC8VqDTJS9lb+TCdPyKjqnvQ96sgypTvqzdoP2kQF/WIlfBkjZI38PnAKGUQAuU9uLFTxzMcefeVkcT+hfo6cgg8T+OcyUmMMdTR6leKiwSHHckon8kOQFRn3wW6xO1Fqx/2bkh9+T/iUy9Acl3wGGVocUf2gY8Q3kNe2bE3qqofP3Dl0dEtb7KEz+G35h78oPlVO8/AZ6QAtmaOebN/3dz4QaoSUuYCHdAjgF8GvAHSSWMI50SZmU5AvBpcGdCmbZD85WblzUk5qcPVhb5ChSARN6sKGkq969YPGBoa7XGIm/cnv9GS2Xf/c7B3/hDZc40CE1ZrU8R9kB5yC0FKETlfu08VhuM4D8eClNp7aepCdwmt1vrq1NeZDqsdlpFaeTfTi8mJx1+CwhGXYl5OVyjvUNtcOsr1vgB+B99Be/M7bNjku+QyymsQh6KjAPuRry9akTh2U/lenrXNasb/4wSeTJ8tdueGeu/w9d+b6Lbf87o57ae+L7Aqd2rf5P510A1lrS63D2tbLDYQUGNq0If0AmFSii/0ukwpk5LbXcvpxP+Vk5c5xGXScGlyQEbMr9Zu0NxUDqYPXI5FMYnXxW8lXsCHn70pWdSU3T8x9yEAfVE5ujarfBRDzp/QltU3FqiZ/+oa+mMzUb7IvkLpmlcr75sfa2Dfxr8YH6Jds5RN9rhsdo99UPZzvgh30qZFVwrJGlorUxUIDclHCf3KyU/2e33mBnFKpwTLJqPo9udCSfWj8LNtov3ci9Xl6oYs0WEvmqCfb9/09NxD4uWiSjsw4cwACYFKJMfa7TJaQkUsUXG9NUorJ0vSDWKQGF2TE7Er9Ju3N+RP9o2xSN7Rhb+mL+Qo2xHwEGShLfugiA31AH/IfESY9wZCuhN/dpudmT1a+ucSc0hHyqeR9pOIkfz8RtwZ/vfC++bE2ntBX41+SX/IB/CdtzH2X9nM/avQq6aSxsY9xD9uz9rQldfaff2ys8dhrjks+gwwtjprGDPK1ZSdSp07m6dWr3GiQtbbkbYc4Lg2EMJimBM7rc6KHbjkABVkdtnY0MriOucGTk5U7B1tRpvprIgOyZJnzZ7qufiUA3VMryiY2QBYlf+73ZjLiq32yFatfkh/DHvyRS8yaRNhEX/QpS+ia8qusH/uujX3QNzLJjsplf3HwOFFd6J0j8Ni5mJ1BL8V4L8VFIyuFP+mDnKwcdkK7tqTOJtCaiY7UW34v+Qz1tTii+sFGRcwgX1t2JvXlSzfc2v7XxW10fjW75phkkmytIfNerzQQ5PkSQHLnc+e0ftKATuqckp2TFc4pEiUSoUxsfdjbRIbWbu6Pkvx+/VCebHAbJHEHXQoJJ5eYNYmw5BPuv9RxChOp+rHftXo07StXP/hYgXvSGbJiE61K/25xp36CXpnYc+zIyQr3b05WDjuhXUtS53aQv3I6cn1TxxosU9sqDgu8/Q4nrFx7x63fe9gfsd976Egm5I+h1AyEAOajLfYwl/i9sDkAafoq+ZTrkrrISNtPThbOaQZfSAQi4Wj1yNmc86dsxwe5diUQdE8kql78wLYdJVFLG3h/si7O5WzjPo9toXIfSfnQhctom3hBdnKihz40pTb2XN+YzbKvlB+5bzRySG6tjcR/T3GnflI6c9u4H3Jxy8nKjYfQLjFWoEsublxH+Z872mtL7vsUlklWTh/ZV7BRxFLWa/O980odnRIJ97FiJxljI3TyEQdZaiAgQWHbLZeoSgAKg4ZWAuyJV4hXqdSATmMT9ZOThXNkc27wwd4U+Xe1F/JzOnCfoT7pkxvo3v5wYV16JdW/H9J9SZxJ/aFLyheU5OBvH7dI8uWJMEdckOP7aoFT2JIbKzxusWPEMmUvbwPfTHAYn3BTfegVwyv6i53jfcnjXLvKj+3jTv3BPu2ELpXLSrKCvhHsBB0i57hP4I9U3HDeY7RlHqT+tFhGfyl9uO7BxnkmdVKYtsu7/MdObce05c6DqCVAgN0DMQPqEoB4f5Tw5G09BFS6TekBvbAj0o8GdLyPtoO76mf6OFp62A17GYYnEPaSmFSy4bq0sbfkTx5LHPNYTV5wUk/y3r+Jl8JABsre/MBWbdIPPub0spzH+/655HhsqCR1TkiTR3RWj8vFI2K9bLxCOIIfsivYJGIKm6nsHLepvaTPgxaTAq9DmHSVt015gqcxeuIxseKlRrEJDXCjSf5JXwmf12Imxrs27tRXiFmGbHjM2o774ANhR02HyLmaPxRxo3HNb788PqTHXZ+8xdFf/LlNj2jei07Sg19yWFboA/2DvIyfUbdp2dtKnXdMV8VrbnfDf+tUl9pwGWM71g4EDM5SktKQEBIwJZ/cJ5Z4NKDT2pSTVTsnBqDUOUXowEoXezX+RD8ofYJnpC315d8lcUIGyl79UPQjkVf6QjnSCfpwG3A8mSxcDHVi+CEZwDLaoZRE0CluMyZ1bxf5ThF3T/ji1bx8zJQwAWzwMpBh5L94SWDwN8rJc+h1cc+NNW6DjCXXFRiKyQp2RIg7tIuc4/K1Y1aLL/gpFhcNlrX6kA3BxkUhdTieHhpDT4O78OHnbvXjr9zap9/4Dx3Tb3SuzYNlIH+RSu1AIJsI8LGBwO3VAoiIx79gQrx1jBKzf0UkewELl68BndamnCx5jgagTJhNXmXZ1l6tP7mPcIwVuXwFp3/trH8hSrXSRRtZ9u4HerHIiddVVi/L8ROSKSZiSYz0i77C0690JvYEnTPJN5ZQY0TQOm6nQOqIXYg7fyWov/2vevkR6qIMPmu5s8DJJRY3/0KZDnEP+mXIpo9xP0tSD76f5hY5TonM/UOKDrdqu4Roh7KE5SY5RONn9Nu0HGSl3lQJq39p1LsUFt9yfIcc5Ob/sv/NR+ajsWDASP2cgXksYF5kO4zUbRwuMn5N9/nBr5G6kbrtEswBBozU5ycpGkFZLBYZA0bqc5DQFxlApns/CdBIvR8/Gh7Nj087BozUjdRtpT4HGDBSNzJ62snI7O9nDBipz0FCNzD3A+ZF9qORumFgkfFrus8Pfo3UjdRtpT4HGDBSn5+kaARlsVhkDBipz0FCX2QAme6WAA0DhgHDwPxgwEjdSN1W6oYBw4BhwDAwEgwYqY8kkDZTnp+ZssXCYmEYMAycFgaM1I3UbYZuGDAMGAYMAyPBgJH6SAJ5WrNC69dWJIYBw4BhYH4wYKRupG4zdMOAYcAwYBgYCQaM1EcSSJspz89M2WJhsTAMGAZOCwNG6kbqNkM3DBgGDAOGgZFgIErq65euOTphH/OBYcAwYBgwDBgGFgcDxN/Pnj3vP/8HrxrbYMTXNkQAAAAASUVORK5CYII=;" parent="1" vertex="1">
          <mxGeometry x="33.0042857142862" y="-1177.9985714285713" width="501" height="60" as="geometry" />
        </mxCell>
        <mxCell id="NcdN86krktzqWG_P-AyI-175" style="edgeStyle=orthogonalEdgeStyle;rounded=0;orthogonalLoop=1;jettySize=auto;html=1;exitX=0.5;exitY=1;exitDx=0;exitDy=0;entryX=0.5;entryY=0;entryDx=0;entryDy=0;" parent="1" source="SxZXUM3QAzLFVXpRYPAV-3" target="NcdN86krktzqWG_P-AyI-173" edge="1">
          <mxGeometry relative="1" as="geometry" />
        </mxCell>
        <mxCell id="SxZXUM3QAzLFVXpRYPAV-3" value="" style="shape=image;verticalLabelPosition=bottom;labelBackgroundColor=default;verticalAlign=top;aspect=fixed;imageAspect=0;image=data:image/png,iVBORw0KGgoAAAANSUhEUgAAAcQAAAA5CAYAAACoJFtsAAASxElEQVR4Ae1d63JcRxHO41Cxo1iRY0mUHdkJieM4Clk7FyCiqCKoxCWh5B+EYFuxUxAqRUFMChEgODyASw8Rfuo9zHMM1bP7zenTmkvPuWjXUv/YmnOZ6en++pvumXPbp75z9ryzn2FgHDAOGAeMA6edA09dvHzN2c8wMA4YB4wDxoHTzAGaDDy1fukVd+G7L9nPMDAOGAeMA8aBU8kByoM+IVIyfHblkv0MA+OAccA4YBw4lRx4fv0lS4g2EbCJkHHAOGAcMA5YQrSZ4KmcCVrws+BnHDAOSA5YQrSEaAnROGAcMA4YB1YuOUuINhBsIBgHjAPGAeOAJUS7ZCAvGdi+ccI4YBw4rRywFaLNDG1maBwwDhgHjAO2QrSZ4GmdCZrdxn3jgHFAcsBWiDYztJmhccA4YBwwDtgK0WZIcoZk+8YJ44Bx4LRywFaINjO0maFxwDhgHDAO2ArRZoKndSZodhv3jQPGAcmBwVeI5158051/79fuwgefudWPvnRrn3ztf7RNx+gc1ZGK2L6R0zhgHDAOGAfmyYHBEuLK5o/d6m/+6tY//Y/qR3WpzTyNt75t8BkHjAPGAeMAONA7IZ67dM2t7v5JlQRjyZLakgwoZKWR0zhgHDAOGAfmwYFeCXH5lbfd2p2vOidDJEiSQbLmAYD1aQPPOGAcMA4YB4gDnRMiJbD1ew97J0MkRZJlSdFIaYHJOGAcMA7MiwOdEiJd4hxiZRiS4ey+I8m0y6cnfzBM9m65//33rnv8aMtNli/alYFjeuR/afmqe/Dojsf+cO+q4V6Ju+G3GLFpzPjRKSH2uWcok6DcJ9k1s4OLNzfc63cvuxt/vuJu/uWKe/2Ty27jRy9Uyajpr6bu0vLEHXw7DUCPv73lHmx2D/5Lm1vuMMjacbtPcCIZk9A1/qmpu7S9M03i3+qx5/4/2O7u+xo9c3VPekCHj2iyNQbei4Ifxs/h/uRY49xke8sd7N9yh7NJFeE8ndjSsR33YPvqsUxwYf8YE+rqhEhPhsokNvS+9unTi2+94G5+cSX629jaOFayxAIRD4ieOD0IDBJ4ORVBOabXvI/BljEIPZZtCLaPK7Dn/h8jQNfaehwBfbI5cQ8oaB7zCpTb1nespXDlfRy3fdCJc6rvJBsyS+VkeydMxgnb3C+Gy9CcGDN+VCdEzasVa/cfuvM7d93SG++5M1euu6cvvezOvPymW5r8xK386r5bv/9NNqlSHyUn0fnrd6bJcOO9DXfu/Av+R9uUJN/4/RWVDE0/Xetw8k4TWbdV4lE5+lVKV93HbDcmocfS2xJi+XLZPBMGv4LSZ6zl+DNP+7heGD9jrxDJ3t396RUuj+mjW+5gb+Im4krX0uZVR6vH2ERoDMxg/xgT6qqESC/Ul1aDq3e+cs9c/4FPgpQIY79nb/60KEfz8v6bn08T4vJ6M1jPXZiuGm98sTgJkWZyuMwQm0Fxsse2GwLc8jO1mlVKTN68jzX2PDn3EC0hNmMsxZ8xgl+qL3m84dR0jFAA7zLWpFy+P0/7uB7Hsc1tpfh1sN3tnjOXM5Q/Gl8PHz+qEiJ9ZSaXEFfvP3TPXH/XJ8Fnrr3lV4Ort/d9m9Xbf3fnf3nPTY9/mpVDfVBfJcfTPUNaDcp6uIwqjx/3PlZ2nlD7swdJKi65kb6Q4Qf4/vTShSXEcnAe2teWEMuYjxH8NH5s9zsJq5qhVxDtfrolCI09i1AHSYfiTp/L/WNgBt2G9i/hXpUQL3z4x2wie277dz4Znn3tXbd27+t43cLlUiRc6qtEDFoFPgkJcUqq5gGbmplSKxB3eLCjhOE8zo9J6LHsaflB+UATn8z0CSpD2TRGcOK6jS2f98W3G99Mb0lgv28w533Q9rzsk3qMvc8vP9fEqpheY2A2ZvyoSoil+4e4VHr+w8/iyVD5WTdKipr7iDfEChErQ20Zc+CQx2RADI5UrhIlmTDQNStE/0TYo+mqlAID/ehJsN3N9Mw26Dd7HWJp9oAE2vtLv/uT1pNkpOPuXvum+2O615C5xHKkn2W6B7ETLitTf9O+ttyuuF+R8k8XeyWeHu/ZSt7jxR4MkXVTevDj0v/8HG0fLw4XVQHd+5z8+ai59Aj/T/lz9GlZ2IF6sTI1IejiN4kj7nNhxcBxf1z5IFtanzJ+wCHoMdL4CfZGbAs6zM758UkPOc2eUCffPJ49ESpxxH6Qr4xTaMdL6BHjAo5xTsjxlRuLkA2ceb99t6sS4trev7KJ7szl1/wKMbk6rEiI1FfJOCQ+1MO+tkS7sUo+MMn5fObFyZDqvyFJe+abS4gYACBdrEzN+lpEY695SBkgordPPILN66r6Ye/G8bbYnt6/OBqEgVkfext86SGliTsQtnD923XT+kAvKqX/+TnabuE9AA54xxDYyZImKajDbYNeXF/Zlu/LtrCD15Hbku99/AZ9qeQ6c71qg7oPwML/R23I4wcc/PgYcfwE2woJkccbaQvtc7yAaQpPnNeWwCLWL45xTrTHV34sQjbikFYnTb2REmI+ceKyaK7UJERpoDYRop5sP/Q+JxecH8hceCmdD1DMctukiQflIJ9uhNMTYbPLezIAQR9uc0O02cM7j5oVmmx/uDdhwZX1s9mQmZJZ7N3Lph96Mu2OXw1yXUknmqljVpuSQ/X62MvxPPB60Ao6jiuvq30HNOb/ON79cGhxRfgdWOaSPXTy+tLqwT9J2L6SQCtHyEj5g+sRC7boh8o+fuNyApcE13gyiHGdy+B6+wkYGzdUb7pqbJ62TCWToMtsdU0BG3wacvwE7LIJcce/A02rQX5VaLK5lfVjw/P42OW4abY5tjlONP3uuNJYbHCe80M12kumz3/4h+xKMpcIcU5zyVQ6BIlOW8r2Q+/HAqJ2oKIeDz6cNLGgjPM0YFNBIJApcjkE56h9avaFwYhZXozk3O7Y+VY/IpBxH3A5mBS0zs/uqXa1l+PFceZ9YBt1c6tz1EXJ9Y/54zhx4IGJ8Ir5BXqnSnAy1Z73kZMPLLv6Dfrx/iQ/WudKk08Fj7i8lP0tfyb6HGL8QIa0mXDR6JDzI9rX8Bz+iJUcNy0nSmMx6JjAOKaH9ljVCrH4UM37H0+fML16063t/TOaFFdv/82t3f1H9BySIZWah2qkkdpEiHqy/dD7sYDICRIjNHSIkR6BJEZWrdyYTugzEC2XpNiloFTSJHkx/WU/qcCCelQ2NrdnrEPYC9l1eujfAc1hTbYB77r+u+HgsWS+ywUnjr/czvmV+yQln9fJ8b+EnbQnN+HIBVitPrK/mH3wZ7Y/5oOu4yfnA+hAnIphAn8GGSKpoH0sxqBtTcnxjWEGWTVjMegodIesPmVVQiy9drH26Tfu7LV3fFI8873vu5Wf7zn/2sX9b9zqb790z/3sY3f2xU3/nuLavX9nk6LmtQtpOBKdtpTth95PDWo4PzVw+AyOk7ppdzQoo01KJrcNg0ESNBAtsnpEe26TbI86VAZZEdKGc5l+IIv318JiFlj62Nvg2U4y6JuXTd2j2PN6fDulO+ocNw7a4AT9YiW4E0tmGvlD8BR6BV0SPEJfuQkH6mh4VLJP40/Oia7jJ9idu2QaGXfAjcqgq6gXjicw5TI02yXMIKMZX+WxGHQUukNWn7IqIapezL+97+i1i9gL+Th27oe/KH6tRvNivjRcmwhRT7Yfep+TvxXM2QMUscASCC8c3pDmaFAO50SbmE1BvhhQGqKlbJL95GTlzkk5qQE1hL1BhmLw19SFDSWsBsVBYwPjXS4Yk/6EO31ya9d/v3LHHYinTmO8TfkKeHi5eHWoB0+n+jWvMcV0gQ14iCi14qnxa8k+jT9LnABWOVmp8Uttc+0g22MDPwjehPbiOG9bs13CDLJq/BB0VHAI8rVlVUIkoaX7iHS5k1aKz73/8fSLNZevuac3XnVnrt5w597Zcc/f+jy7MqT2Xe4fkm5IdNpSC1LXejnypwjQpQ3pB5LQbFj7k4EEMnKXcnL6cZxysnLnuAzaTg0oyNDaSvWkvSkfSB28HokAEquLYyWsYEMO70ZW/AnHIWSgDypjD5DEMJZYUtuUr1ryZ/90EpOZOhbtS3Hfz9vD+uOTUug0JH4aWSVOaPRSJUQx2YVclCnuN8fLKzXIypUaTlD7pt+jk30pX4OzbKPdr06Ii/Rxb2mkNhGinmw/9H6O/Pwcn60HZ0dmaDnSoF0qqMSOy0ADGbkAzfWOBRhgmJOVO4f2KFMDCjJidqWOSXtzeKJ/lDV1Qxv2bycxrGBDDu9G1vgJEfoQfnQJ8XB/+sTp7jZ9v3L6Twa5YJzyFWygkveR8pM8Lv1GcqCHrJvbj8mBPn18APs0soYYP7A9a0/XhMjuccY4C1u1pYYTJKtmfGlw1uon61UnRBKwSH//xA1CotOWvO0Y2yXyB8fOkh+vz5MkdMuRJsjqcRlBI4PrmBswOVm5c7AVZaq/GhmQJcscnum6+pkzdE/dn6qxAbIo4HPc62TEkyrZintpJD/GPeCRC8aa4FejL/qUJdc1lwDluZgfavQp2aeRlfKjtDEnK+eD0K5rQmSTOM0kQeot90uYoX7NWAw29oh16FeWnRKi/UFw+buOBHSJ/PJ8iRS587lz0umpfQ3RpM5dZIV+IqtgKQ/BTwazIeytkaG1m+tfkj8sDuVEzW2QSS/oUggyuWCsCX4lTDh+qe2gq4I/JAMciiX7Rp9++FE/Qa8MhtwHfGIjbc3JyvkgtOuYELkdhFdOR6lzbF/DCWrX+OEJu2QKo5dfedut33tYvB/IX6XIbt976Egm5J+EUkP+QOBHW+xF9/ZL0cAiRxpNX5CTKrkueKFf1tX2k5OFc5oBFwa/CDJaPaT+fD+HJ69H23xga2fOQfdEcBoEB3aJSyY5aQPvT9bFuZxtHPPY5TqOkZQPXbiMLsGW9xHTAf3wstVG8mgg/Ki/Wgxz9udk5XgV2iU4B1xy3Oc+Sj2MBDmlkmOf4gTJyOkj+wg2Cl/Kel32O60Q0RElsLU7X/VOiiTjpCVDwogTK0V+PnulBCFXQsDayys82BEGCs2cE19c4fLktoZoGptIbk4Wzk3tTc8IMUhSibOvvZCvHfSoT/rkBre3P/gqvfIYHod0X5JnUn/oksKCAhvw9n6LBFwe/HLJCnJ8X5U85T5IjSnJa9rPtWv06Y5fifPQaYjxE/SN+CD4MXIOOnA8kv5mDy118RP60nIC/knpA3lUBhsXLSGScnT5tM89RWpLMrjBJ2VbS34QPBVogEeJNLw/Sqz07Uq+0iNy+n+vpo83RwaMhmi8j1xAyslqzs0+EUcfAmAfA/fBl30wPLVq4bp0sbeEJ3DnJfdV7GPp+Hdw8mUpcQ6GA1vlSBy8z2f/eE6f8cLn12RC5Alz+rmv5hN2+Gybl42/MYvwh3AKNgmfcgz7+A34awJnsk+he8t2MW60+LVszwRqbnvX8RMwEHa0dIica+ERJmz5CSk+n+i5vE+fomvHFN9n5g+CWzrlOKHQB/oHjmVwRt3astcKkXdGT59qXsnAZVOqS224jJO2rSU/BiQFnNi3P4GLJoAjeCEgp8rYDF5DNK1NOVmtc7NgndSzQPo+9mrwBPYoKUDSP4On9OXHZdKBDJSD4lDEkQJf+qEa0gn6cBuwPU20F0OdGH9IBriMdihl8O/iN869ErbAmJchkUTuPRIXePCH3ij9JEGJX2oC5/FhD61ITLiu8EVMVrAjkvRCu8g5Ll/Lfa2fgFPMLxpOaPUhG4KNhdjA7dVuD5YQ0SG9UE9fmbnwwWdu9aMv3donX/sfbdMxOtflpXvIf5JKPoBz5CebiOQx8nN7taQJKyzx9X4KarSq8R9vjvynn4ZoWptysuQ5GnQyyXg92aqR4yC3u9qrxVP2R/tYCR5KjOmvr/zHsZsVVqy9lzF7Rw5+743DJl3WlH/103zk3Sfzmb6xwOV1ohfx5d+G+ZXB1J7gu0zAjQXRGP9r/Rb6LkwcU3jzwByzf6knfkG/TKAeYvwcZ0IElim+UyKkvwo72N9qXeVBO5QlTtSMRQ3O6Le2HDwh1ipg9XVPrBpOJw+nMQe28eXk8cV8Or5PLSGujA+yEdkwjnHAEqLxIsYLOzY/XlhCtIR4ou/jLnJwsYQ4v8C3yLww3ebHC0uIlhAtIc6JA5YQ5xf4LOkY9jEOWEKcUzCMOcOOna5BagnxdPnbxvfi+9sSoiVEWyHOiQOWEBc/QFoSO10+soQ4p2BoA+10DbSYvy0hGgdivLBj8+OFJURLiLZCNA4YB4wDxoGVS84Sog0EGwjGAeOAccA4YAlxfktzuyxi2BsHjAPGgcXigK0QbWZoM0PjgHHAOGAcsBXiYs1ObLZo/jAOGAeMA/PjgK0QbWZoM0PjgHHAOGAcsBXi/GYiNgs07I0DxgHjwGJxACvE/wPsbUNJjVJqfgAAAABJRU5ErkJggg==;" parent="1" vertex="1">
          <mxGeometry x="65.00142857142941" y="-1545.0042857142857" width="452" height="57" as="geometry" />
        </mxCell>
        <mxCell id="NcdN86krktzqWG_P-AyI-165" style="edgeStyle=orthogonalEdgeStyle;rounded=0;orthogonalLoop=1;jettySize=auto;html=1;exitX=0.5;exitY=1;exitDx=0;exitDy=0;entryX=0.5;entryY=0;entryDx=0;entryDy=0;" parent="1" source="SxZXUM3QAzLFVXpRYPAV-4" target="NcdN86krktzqWG_P-AyI-164" edge="1">
          <mxGeometry relative="1" as="geometry" />
        </mxCell>
        <mxCell id="SxZXUM3QAzLFVXpRYPAV-4" value="" style="shape=image;verticalLabelPosition=bottom;labelBackgroundColor=default;verticalAlign=top;aspect=fixed;imageAspect=0;image=data:image/png,iVBORw0KGgoAAAANSUhEUgAAAZAAAAA+CAYAAAAF3k3mAAARNUlEQVR4Ae1d7XJcxRHlcShshI2FJaVsZENAGCPitQkkQalUhaiUD0hJP0KIbWFTiVNUKsGhopCEQB7ApYdwfuo9nOeYVN/dM7e3NTN3Zu5dab11fmzN/Zjp6e4506fnfu0zz55ddvzRB8QAMUAMEAOlGHjm0pVrjj/6gBggBogBYqAUAw2BrF1+3V38zqv80QfEADFADBADWRgQ3mgIRMjjhQuX+aMPiAFigBggBrIw8NLaqyQQEicTB2KAGCAGyjFAAmGmkZVpcHKVTy76jD5bdAyQQEggJBBigBggBqowQAIhcKqAs+iZFe3j6oEY6MYACYQEQgIhBogBYqAKAyQQAqcKOMzOurMz+og+WnQMkEBIICQQYoAYIAaqMEACIXCqgLPomRXt4+qBGOjGAAmEBEICIQaIAWKgCgMkEAKnCjjMzrqzM/qIPlp0DJBASCAkEGKAGCAGqjAwOIGce+WGW37/1+7ihw/cysdfutVPv25+si3H5JzUWXRmpn3MPokBYmDRMTAYgVzY/LFb+c1f3dpn/8n6SV1ps+gOpn0MIsQAMbCoGOhNIOcuX3Mru3/KIo0QuUhbkbGoDqZdDB7EADGwqBjoRSDnX/++W73zVTV5gFBEhshaVCfTLgYQYoAYWEQMVBOIBPy1e9/0Jg+QiMgiiXCSLeIko03E9aJioIpA5JLTECsPTx6T+yYik5ezFn+yjfb33P/+e9c9ebTlRucvceW5oE8ALZ3fcA8f3WnG+mh/g+N8SuM8y/lWRSB97nlY0rD7IruErS/dWndv3b3ibv75qrv1l6vurU+vuPUfvVwko6S/krpL50fu8PF4Aj15vOcebtYHy6XNLXfkZe243ac48M4S0CXjM0Td0faWe3iw544mgVKIEb+jR3vu8GDLPdyez+C5tL3jdT3crsdmzI/zQiDA29HB6ETjgmDjMICNJ48ELzsNLk4igYL9s0jYiglEnpyyQX/o/dynsy6987K79cXV4G99a/1EwRKaRJpAmoy7B4ABgkbOYxJIyN8neWy0veMJHYSRKmcRoMXe0eZoTGCFGb4O7n2xGfO77uO0ViB6DvZN4mJ22uMl2Aj5pXZMrR7YR+yYCwLJeVR39f43bnnnrlt6+3135up199zl19yZ1264pdFP3IVf3Xdr979NkpD0AeNT5fU7Y/JYf3/dnVt+ufnJtpDK27+/miUjJb/vOQ3eceCvW4Ucl0MC6Ts2te0lKO4ejC/BNWMqq4ztDTcyq0upN9rccLuShTZ15ivD1yvaPthM+XEeCET0QwCd9QpkjI3xFQePjf3RcWxsbji/cjXEPwufwf5TJxB5AbBrtbFy5yv3/PUfNKQhxBH6vXDrp51ycl42vPH5mEDOr7X3Dc5dHK9Kbn4xPwQimQ8ucYQyjtQk1BOgWfo+vuOecAVyasnB7kEbIGrGsmusS873CTZtUNnzK6mh7emjX4kf5qGutlXmuyQVNXppOUONRzvWw99zLLqEJW+Rpwhk5f437vnr7zWk8fy1d5rVxsrtg6bNyu2/u+Vf3nPj458l5Ugf0lfXAMg9D1lt2Hq4rGWPn/Q+Vg4NoCZZa2nwhwzJaI4OxpdNSmWctN1d/c0S0F199zkPvWUsZnVJqkS/2mAz3W7kQIpDZ6jT/dQF1BJ/nGbdobAxC59Bt6HHV/xdRCAXP/pjMvC/uP27hjzOvvmeW733dbhux+UrEJT01QUIWWU8DQQyDjjtDfWSzAI3OhvSmNz0JIG0K84ujAx1Xl/yKRm/ofoPyakNNi2mxpdUsT80MdbqF7J1no8NiY1Z+GxuCKTr/gcuXS1/9CBMHpmfORESybkPctOsQLDyyC1nDUq9epCM1Q9k5iUoCyZM9BwCaZ4AedReq29WMI923O5mPBP0+k0er12a3KCVtvJrLsUdjKYevRUdd/enbyjLpbbUEv5YP3K/QG5KqyeZxn1tuV1zbyE2ZjX2Wn82/lb3NzRRzCpLhz0l+sN/GJdQmVohWVs0Tp8UPugR1/uSs/iFrShhBzLjWeHN2xuwzeswOdfgWZ6cmjzx2OB+8sQU9Lall585r2172YceobHEMT2mJdiFbPg51H/tsaIVyOr+v5LEcObKm80KJLr6KCAQ6avLKBAF6mE/t0S7WZV6Ysrg60xFgyHWfwuS6UwxRSCYAABdqNSBUfc9BTT12LCVASA29qmgb+tl9aPeFbDtZX98PTl+A7qPva1/5aGEkTs0tkB/PY44pv3WZ7tGf4xTyF84FsNXzJbSICh64x0P9GlLSSJQJ+Q32NHgaYZ487Z1EIien9YW2Q/ZEPNnKSbgi1C/OKbHNBe7ogdkY96W6paqPyMCSRMNLlOlyhwCsYblEgfq2fZD72twYfA9mDteotMTFFnhNGjCQdXLlxt58gTI5H0RG6igj7a5Bdo4AxPAYQVg2x/tj1RwUP1stoFYgn/o3Ze2H3mHQh4KmNZVdJLMFllgTI7U62Ov9udho4es0I77ta0Xtkf7sHS7l/4qiIeCW0gX73szNjp4hrChZU1hMzJ2MTLWcrwu8l6EPBwyI7x5HycJZKd5Z+uJWaWPNuUpuvi7XENjQ/s2NaZtvzsuhV3xd+vnU76JnnsJ66WP/pBcqaSIA+dyLmFpMMo2iCG3tO2H3g8RSO5ERT0dPDVoQi8S4rxkLLEg4MEUWG7jnLSPZSuYjMiKQiDXdofOT/VjApkeAy0HJDp1PuNFOPQVWrVpf2k/6z5kOyXD1i3Z1/3XjFdusIFOur7159S5ruQmw+9anmClEweRPofAG2RYm/XYpjCPuRiyY2hsaL+FfObHUo1BCrvaxtichsyasmgF0nkT/YNPxk9gbdxyq/v/DJLIyu2/udW7/wieA3lImXMT3RqcSxyoZ9sPva8DIAKEBkgI0NAhBHoEnGAwVNloSm5IJ/TZToZ4pq0nUwqQIf1tP6EJiTooW5undcr1Y8peyO7So/XLcO/fDKK/GvNUsPG+VJeJgEeck7K1c9rXuk6u3tJGYyWkX1Z/SudavOViMeQT2O5lGKJrbRgGG9q/IZ9Bn1zsSn2vo9EdsvqURQTS9Rjv6mffurPX3m1I5Mx3v+cu/HzfNY/x3v/Wrfz2S/fizz5xZ1/ZbN4TWb337ySJ5DzGaw0HMeSWtv3Q+7HghcGPZQ564mlQt+2OgxVtYjK1bZgMFqAeaIHVCdprm2x71JHSywqA1p9L9ANZur8pX0wCSx97W3/GA+aULR36Qp4Qkv3Z4DfEeOUGG/gS4x5KQKQOdEoRKurk+L1Lvxwc6PGvxZu3O3UJK4BT+G0KA6Zejg1aTtd2l8/QHljLGQevo9EdsvqURQSS9SLh7QMnj/GGXiDEsXM//EXn2+g5LxJaw3OJA/Vs+6H3Nfingp/KHEOrBQ94M+AtaAIEgkd8TZuQTV6+mVA5QIvZZPtJyUqds3JiE8r7ooe9XkYHMXh9O+pBniUP2T9GIAOMV8w31oeyr8cthLlxnfamd5RkoHeHL6y8UPD3fk2ModZbzyFrY0pWDO8iI9VO94GxtX7x7TP8oeXFtnPHNKZPSK7XMeHnULucY0UEIgK77oPI5SdZibz4wSfjN9KvXHPPrb/hzmzcdOfe3XEv7X2eXHlI+5r7H6IbiCG3zHFQnzop8McAUNNGdARIQsErdswGEsiwwU77IKWfrpeSlTqnZch2bEJBRsy20HFrb2wMjungg2Z6pWLbyT70tD7F8ZCesWPH9FeJSChAa31gq8jOCcSxetDb2qP7wnZs7HA+R9YQeMsiEJNMQUeU8J8lkPZ4OTYgW5ddPkPdtt/jySTqoMzxM+qWlsUEMk8fU7TG5hIH6tn2Q++nwK/P6cnvBzuQ0aRAg3ax4BM6bgMSZKSCg9Y7JxCFZOX0g7GITSjICNkVO2btTfkT/UuJyzYiN2WzboNt6Gn9gOMxXUPHj+lfQCAIoiG5sWO2P7EJelt7YK8uY2OHOjmyhsAbbE/aU0sg6h5NKTbgB112+Qx1c7Er9XP8DLmlZTGBSAfz9Dl3bTCIIbfUbWex3QV+P7ATstD1NalAtxRovKwey9QcGVrH1IRJyUqdg60oY/2VyIAsW6b8qevqSR0KQrqu3Y7pGTtu26f2tV4hvKCtJsAYWYSOh66vl+jdpV+OrNj4wzaUKVkzJRD9lw095h7s6PKZr+dXxU/ZCkQM4B9K5X1Kowv89nxXQEudT50D6LrK1CREW6szjtsyJcufC6yyrBwEPxvMhrC3RAZ0lkCbIk6rP9rZjL2kbysT+7nBxuuQ4W+RDZ+LrZaYWr27L9lorFg50o/XKxF4tYyU31OyZkkg2o5SbGAcdZk7pu04PIUEIgbzL227SSQH/Br4qbd2xecp0OT0pYEa2ta64AVEWy+3n5QsnMuZcH7ymyCTq4fVX++n/Knrybbuz14Ht3X1Pmw9RiAqc00FRi3LbucEG10nd/U01cb6XV2yCZGC1hG2h4hI6uG89Y2Wof2e8lNKlsdQ4DKVbxc4N6VHIuPXOpZgQ8vHtvZ9yr8l2PU2mrFEn33KqktY6FBIZIi/thUZi/h/6BpYMfDrbE8mms204Wspu0DjJ4pkmoE3qrWs0HYO0HJsEtkpWTg3tjeeQcHeGNH0tRfycye9HqvxG8vH31q3foWtoSDZW391DyRGDrAx5kOrL/ZT7Vq946sQ7SvpOxQMU77xemQSbUqW1zdAEr5d4Bx0kBL+iGEF5z2mK+Zf00/GmOboo3X3Ns4bgYiScjmrzz0Rabuo/4OeG2wB8AZ8CSADpFEQq8kmRNT80ZH661vJbpp/O5OPHwb6yQFark0pWe25yScs5G109f8Joqf+QGMo+I4nW/uF4xp7u/ypJyG2pQ0+sdIExgP53MuG/2QM6vl/lcPfEAcmr/Zljf7Sl/el8SH0ALZimEE9W07pZrCiycHq3WBs4iMhWXwGZNEJRPyXj434H0qJnK4xRV+erNQct+M4JS+AwVD9kmO9ViC6I3k6K+cRX7xtLnVz/7pW9/M0betJGFuBiD2YkDIZQ9+Ogs05AU++aIpJKwCL/UIZqwduAmi5NqVkTZ0zAdnqGyMP75Me9ub4E/3oMtfHsCX1deJcWaHxEp2AHfSFUvCmxyoUwLVNoe0U+dhgiX5RNis0lU2H+p/CQSQIahtScygly9thiFBs9u0C57RPcrGSO57wU8gvqTGFTrn6TNmYmNeQW1oORiDoWF4AlLfIL374wK18/KVb/fTr5ifbckzO1bwkCPlPU5kLfrFJQN4ZLBPXYbVffAZvvi4rBHUkn6ZWH1nU7fxkSgAt16aULHtOJt1D9Rl1mVyNnmpVovW027X2lkxC26fsj/We/gy96D72s3wgsv0YZag9jtXq79sHSFSCrfdzR2ICObbUgSwc6MZ/76tXZA1ZTvAldqXu63n9Zoy3kyQQ+NCvQM0cHGN7zx0ebE2tutEOZYiINIGWYDfHz+i3tBycQEoVYP3um/H0EX1EDBAD84gBEsgFAnMegUmdiEtiYP4xQAIhgXT+cRcn8vxPZI4Rx+g0MEACIYGQQIgBYoAYqMIACYTAqQLOaWQ77JNZNjEwXxgggZBASCDEADFADFRhgARC4FQBh5ngfGWCHA+Ox2lggARCAiGBEAPEADFQhQESCIFTBZzTyHbYJ7NsYmC+MEACIYGQQIgBYoAYqMIACYTAqQIOM8H5ygQ5HhyP08AACYQEQgIhBogBYqAKAyQQAqcKOKeR7bBPZtnEwHxhgARCAiGBEAPEADFQhQESCIFTBRxmgvOVCXI8OB6ngQFPIGuXX3eywx99QAwQA8QAMZCDAeGNZ549u+z4ow+IAWKAGCAGSjFAAiGBMoEgBogBYqAKAyQQAqcKOKWZCuszuyUGFg8D/wf60/R61/TEUQAAAABJRU5ErkJggg==;" parent="1" vertex="1">
          <mxGeometry x="91" y="-1849.9971428571425" width="400" height="62" as="geometry" />
        </mxCell>
        <mxCell id="NcdN86krktzqWG_P-AyI-171" style="edgeStyle=orthogonalEdgeStyle;rounded=0;orthogonalLoop=1;jettySize=auto;html=1;exitX=0.5;exitY=1;exitDx=0;exitDy=0;entryX=1;entryY=0.75;entryDx=0;entryDy=0;" parent="1" source="SxZXUM3QAzLFVXpRYPAV-5" target="HEAWCpbGmRsyPqDrCjQY-25" edge="1">
          <mxGeometry relative="1" as="geometry" />
        </mxCell>
        <mxCell id="SxZXUM3QAzLFVXpRYPAV-5" value="" style="shape=image;verticalLabelPosition=bottom;labelBackgroundColor=default;verticalAlign=top;aspect=fixed;imageAspect=0;image=data:image/png,iVBORw0KGgoAAAANSUhEUgAAAWEAAAA+CAYAAAD6UKpBAAAO2UlEQVR4Ae1d63IVxxHmcVwGZAkEklyAwI6RMZbNAcdOglKpiqNSLiYl/YhDAHGphJQrlZhQUZyEQB6A0kOQn7yH8hyT6jnq2T6tmdne3VmtDvX9ODV7menpyzff9M5ezrG3Tsw7/OADYAAYAAaGwcAxOH4Yx8Pv8DswAAwQBjwJn7t4xeEHHwADwAAwcHgY4Ek4kPDS+cvu7Lvv4wcfAAPAADDQMwaIbw+QMBHwO6fP4wcfAAPAADDQMwbOLL0PEsaEgwkXGAAGhsIASLjnWW6owKJfkAowMB0YAAmDhHG5CQwAAwNiACQ8oPORqUxHpoI4IU59YgAkDBJGFgQMAAMDYgAkPKDz+5xdIRvZGzAwHRgACYOEkQUBA8DAgBgACQ/ofGQq05GpIE6IU58YAAmDhJEFAQPAwIAYAAkP6Pw+Z1fIRvYGDEwHBkDCIGFkQcAAMDAgBnol4dn3rrn5m792Z7967Ba+fuoW7z/zP9qmY3SO6mDGno4ZG3FCnICB8hjohYRPr/7YLfzmr27p0X9MP6pLbRDg8gGGT+FTYOBoY6AoCc+ev+IWNv9kIt4YQVNbkgHQHG3QID6IDzBQDgPFSHju8vfd4t3vWhMwkzLJIFkIcrkgw5fwJTBwdDFQhISJNJcePO9MwEzEJAtEfHRBgwGN2AAD5TDQmYRp+aBEBhwIeH8dmWRiaaJcoI/qoBltb7n//fee23u55kZz53AF1OEuPXzZ/3jpw8edSbjLGrAmXr1PspuQx7kby+7jexfd9T9fcjf+csl9fP+iW/7RhUYymvTXpO7M3Mjtvro7JpxXW+7JanvCmVldc6+DrA23OcXk1Qeom8SlTV0ZS5pAYr+9l1vu9csN92R7dGiTyzT60ur/0fqa290hn47HEPs8+Hl95VD83IePO5EwPdGgibP0vvWpiXOfXXA3vr0U/S2vLQ9OxHrg7u2MWuvEQPAZ5CuQsHUgl6qnY8mEkCuJkDc7TLwW3RkXfV1VjFZH7gkR4fZKa+xa7JB1RusbIeHI+ZfOxfQqrXMfPu5EwpbH0BYfPnfzG/fczCc33fFLV93b5z9wxz+45mZGP3Gnf/XQLT18kSVy6kMGJbV99e6YgJdvLrvZ+Qv+R9tEzJ/8/pJJRkp2ieN64O61zIYPygEJl4hPExkyBrvr8Sua0eqK29zemMjcKOa76/0RWB8EwX6ZmVtxT/az0BjZcb1SJfW3uVNlvZTx7tJVhZrIZlZXHGXJscmhD5378HFrEqaXLOqy3oW737mTV3/giZfIN/Z758ZPa+VYXui49s2YhOeWqnWh2bPj7Pj6t0eHhGkg8iVVGzBXINjyGcIeMuFDn2AtJCzJiEiCl48oY0sRt2zTZrvCRvn19T4ILWWj7KvLxCXltBlrMf368HFrEqa33XIkvPDwuTt59QtPvCevfOaz3oU7O77Nwp2/u/lfPnDj44+ycqgP6ivmEHmM1oAp65XHaJuXKPTxw97ngetBtbN/M6ohgbIMf+m1M75MAwlXk+5hxVTGwUqoM6vynkA/Vy99EAT7tA9CY9m6ZDu6Tlh96My6lVzyaU3CZ2/9MUuep9Z/5wn4xEdfuMUHz+J1a5YimOSpLx0ovU/Z7jSQ8BhY1YBsMkPPrG/s39jbcJtyGzfmavGh8dJlvw0JU38cPz+J9rCu2gdBsJ/6IDSWLUt507nJ2JAyeLsPnfvwcWsSrlsP5mWI+VuP4wRsfKWZiNiyLnxdZcKcAVtLDlxfpR64IZjGbFgDige0JRP2d5ZfjrNvIgBPAv5GUXp9Mui3/+gYZXK07sbt/bLKzuSdf9LRr4PuP7lBdf1aXmYd9EA/c7TGd3At9fXOmvnGVht7tT+9v4W9khB0LK2YkTGsy6Ta2KB9mdKriWyWyXGPlamrgSb9sK68DmzBNbfRZVOdm8SeZdfFT+uU229Nwovb/8qS6/GLH/lMOJkFNyBh6itnBJ1jsuV6vG8tuV1fpR64csZPgVjqUgFl/HhbtZ++tPWkKIgkNoAkucj+JsAmHonTMhiM3j71+JCsa+pH3PyRbXl7vD4YvxFGunexd9KfI7erbJH661hKv9VtB78mbsx2sSHITjxz3UY2y+QYxEqN3zb9jOPX7gpR+7ypzk1iz7IZ97rvNvuHQMJ5suYlh1xpIWFtvJV8uZ5uX3o/NnDDrJ8YNKwDgZrvTPOjbZPAiRNTkE935cXzqnqQ6EFE/VZg278B+LLKRHX719ujoB9t80sXfh10n8yIQGPPRlf90B3uu84TrZDhdRE3tlJyqF4Xe6U/d70e6UfKYrHkWNWVdZNvFxukLzkGUp8usiUG5YQk5fN2236qGMSxwvKtpVXnqt8NVxf7Oh9bdZP1WpOwdTnizK0/ZDPmHPnyOctyhDSKtplcraVuX3o/NnDrBiTrwPUkAUngxF7W4POUucRIlmQHQEWWRPgctU/N+jzYODuKDU5pd+z8RD8JoiZdpRyeiNg//vz+Gnlbe6W/pJ9lH7wtdUn5luvqkmMZ01PqkJLL/opdrodzkUm9q+ymhBazj30R9FS4Sx3ndk3LNjrXxT7oGPFxU/24fmsSrr0x9+Xt8ZMRKzfc4vY/o0S8cOdvbvHeP6LnmICptNyYY4O4tJIv1+N2fZWxgStBEiMW1oXJTtbhQRUbjFa5MZ24zwC2HDGKZYoUUZO8mP66Hxq0MZLmelRWNk9mSiXsZdkmPcTbjymylHrLbelzaW8JG0LMFEGUkC1lSL0nbTt4xSbP87b0gfRf0F+RM7drWlp0JplNYh90VD5uqpus35qE6x5RW3z0wp248rkn4uPf+9Sd/vm284+oPXzhFn771J362W134r1V/xzx4oN/Z4nY8oiaNIq2mVytpW5fej8FPAZAagZOZU5Vu4NrwtwmJVPaxgSpB1YAW2ZASJt0e9lHkBUBbjiX6Ydlyf7k4C1hb+XPSYLnvmWZ0kPWSW3LttJnJWwIvlR+LiHbQmhd+wn6G7CQ8q88btGZ6jeJfdBR+Vj223S7NQmbXta4s+PoEbXYSxp8bPaHv6h9a87ysoY23Eq+XE+3L70vB98EgUTWe2XfTJI606yAEyFhfnzNAJQgX71GbQFbyiapP23nZOXOaTmpQRV80cHeIMNAAFa7tf60z0SlL9dD/x1sSPmyhOyU76WNXfsJ+htiIPtNbVt09jHh8WLoN+hoiFNKL328NQmToLp1YVpKoIz41Je3x2/OXbzi3l7+0B1fue5mP99wZ7a+yWbA1L7NejDpxuRqLbVjSu/nBm4ArwJBmzakNwOFBrr1J5c6pAxN/tIvOf1kPdYnJit3Tsqg7dSgYhlWW6metjcVA63DWI/qLr6cUGN19bGqn8mMu4QNLEP7mY938o9IFmQGL+3r2k/KN7KPJtspvGgZVb8HExpdl23UPtb1mux3IuGj9AEfbbSVfLmebl96P0dY8pwEeAi4ImfSLQccbtdl0LGMHNik3jkyysnKndMxSA0qltHF3pw/D+rRnoTDlYeKaQkbWIaOGR/v5J/DIGFxjyGHJx2P1H4KL7p+k9izL7WPtcwm+51ImDo6Sp+ylIYzuVpL2baP7TrCCsHdH5yyviRm1i0HnCCrwyWTRYbUMTdocrJy59hWLlP9NZHBsnSZ8+eBui1vzEn9dUxL2JCSkTqu7crtWwitaz/SPyVIzqIz2dwk9l1tjPm4Mwnjo+62bxdIgMUIS5+vA0bufO5cDASxYxawaZ1jcuhYTlY4pzLDmCxeT9U3HEvY20SG1W5tQyoLpnpN+tdyeT/4Uk2+JWRbCK1EP2wDZe2xccK2WkqLziSnid6sX4lJgm3oTMIkCH9vVE/EloErA8wvZ+iMiQOXA46lL5aTKqUusQf/qZ21n5wsPmcZdIHENMm0zEyl7Tl/ynpN7Jbt6FVsXg6IxdTqSylTb7MvNUGUkG0htDL9VEs9sccvtc25fYvO1L5J7FM+zulRd64ICVMnRMQl/uboTf2jTwtAOdPjwaozPhnMOuAEwqIMU32DVcpJbVvAZrGJ5Odk8TmyOTfo2N4UWXe1l+XndGBfWe2m+kQEm+LV8dfqKRSWSWVXG9iXmoRLyJaEpm9qlrSBZHEsAiZa4NfLEevYOZ25P0vscz6WfmiyXYyEqVNamuiyRkxt39T/lbMOXB6IHoCZAVsHHNkfkTl9TFxmtDSo/L8O0IfHI/1YwCb7yF065mRV5/j7yFvuifjgjycx0pH/zkllwQx2qUsbe+v8yf1QKfuK2R18S/9CIT5mFMuAU3Lb2FD58uD3hKXObWSTnkE+vcAjYlTSBpZF8Zjwnf+A0ySGvU6Zj7qbdZ7mR9TYYbqkpyYsj6/xW3FU1/o3RrqvadmXgyA2cNkOzoZpoMS+tRDqGYAjv91ApJ76xbKEMOASpEd6WG3KyZo4pwae1jeW4bE/vD70zV714R0tg/Zj9rYl4Zh8fWyvwV8b9RmzLrLH/p38OD3bqfHctR+OqVUO6xGb5Hg8cR0upc5NYj+B10KfkC2aCbPzuKSXLOhtt7NfPXYLXz91i/ef+R9t0zE61+ZFDJY/TaWVsMgmyoZrCcdAwiQrZJKKnIjkc39EaQGb1aacLH2OBp78ZCYNGq9nIvPSGGhrb5OBKO3mQS1L9m3s73i0vrH9tjZoX5aUzbJixCgJLdTjz5o2xB23l2X4nzgla4yNLbe7s5bMzElOnc5NYm/xsdTdst0rCVsUQJ36m3rwEXwEDLy5GAAJn35zg4uBi9gCA0cfAyBhkHDtB/MxkI/+QEaMpjdGIGGQMEgYGAAGBsQASHhA5yN7md7sBbFD7EphACQMEkYWBAwAAwNiACQ8oPNLzaSQg6wMGJheDICEQcLIgoABYGBADICEB3Q+spfpzV4QO8SuFAZAwiBhZEHAADAwIAZAwgM6v9RMCjnIyoCB6cUASBgkjCwIGAAGBsQASHhA5yN7md7sBbFD7EphACQMEkYWBAwAAwNiACQ8oPNLzaSQg6wMGJheDERJeOn8ZUcn8IMPgAFgABjoFwPEt2+dmPe/Y7yBcuwQ+AF+AAaAgcPEAEh4fzY6TKejLwxyYAAYYAz8H6wc/WAN4AF4AAAAAElFTkSuQmCC;" parent="1" vertex="1">
          <mxGeometry x="603" y="-1711.9957142857143" width="353" height="62" as="geometry" />
        </mxCell>
        <mxCell id="NcdN86krktzqWG_P-AyI-138" value="&lt;span style=&quot;border-color: var(--border-color); font-size: 14px;&quot;&gt;&lt;b&gt;선택한 멤버의 id값을 삭제&lt;/b&gt;&lt;/span&gt;" style="text;html=1;strokeColor=none;fillColor=none;align=center;verticalAlign=middle;whiteSpace=wrap;rounded=0;" parent="1" vertex="1">
          <mxGeometry x="547" y="-1642" width="228" height="49" as="geometry" />
        </mxCell>
        <mxCell id="NcdN86krktzqWG_P-AyI-140" value="&lt;span style=&quot;border-color: var(--border-color); font-size: 14px;&quot;&gt;&lt;b&gt;선택한 멤버의 id값을 불러온다.&lt;/b&gt;&lt;/span&gt;" style="text;html=1;strokeColor=none;fillColor=none;align=center;verticalAlign=middle;whiteSpace=wrap;rounded=0;" parent="1" vertex="1">
          <mxGeometry x="60" y="-1642" width="228" height="49" as="geometry" />
        </mxCell>
        <mxCell id="NcdN86krktzqWG_P-AyI-153" value="&lt;font style=&quot;font-size: 14px;&quot;&gt;&lt;b&gt;관리자&lt;/b&gt;&lt;/font&gt;" style="text;html=1;strokeColor=none;fillColor=none;align=center;verticalAlign=middle;whiteSpace=wrap;rounded=0;" parent="1" vertex="1">
          <mxGeometry x="258" y="-2327" width="60" height="30" as="geometry" />
        </mxCell>
        <mxCell id="NcdN86krktzqWG_P-AyI-154" value="&lt;b style=&quot;&quot;&gt;&lt;font style=&quot;font-size: 24px;&quot;&gt;모든 Ctrl은 .do 로 servlet으로 연결하며,&amp;nbsp; DAO &amp;lt;-&amp;gt; MariaDB로 데이터 불러온다.&lt;/font&gt;&lt;/b&gt;" style="text;html=1;strokeColor=none;fillColor=none;align=center;verticalAlign=middle;whiteSpace=wrap;rounded=0;" parent="1" vertex="1">
          <mxGeometry x="-250" y="-2510" width="471" height="54" as="geometry" />
        </mxCell>
        <mxCell id="NcdN86krktzqWG_P-AyI-157" style="edgeStyle=orthogonalEdgeStyle;rounded=0;orthogonalLoop=1;jettySize=auto;html=1;exitX=0;exitY=0.5;exitDx=0;exitDy=0;entryX=1;entryY=0.5;entryDx=0;entryDy=0;" parent="1" source="NcdN86krktzqWG_P-AyI-155" target="XOWLojLKpBLkv1eor7Mp-9" edge="1">
          <mxGeometry relative="1" as="geometry" />
        </mxCell>
        <mxCell id="NcdN86krktzqWG_P-AyI-159" style="edgeStyle=orthogonalEdgeStyle;rounded=0;orthogonalLoop=1;jettySize=auto;html=1;exitX=0.5;exitY=0;exitDx=0;exitDy=0;entryX=0.5;entryY=1;entryDx=0;entryDy=0;" parent="1" source="NcdN86krktzqWG_P-AyI-155" target="HEAWCpbGmRsyPqDrCjQY-15" edge="1">
          <mxGeometry relative="1" as="geometry" />
        </mxCell>
        <mxCell id="NcdN86krktzqWG_P-AyI-155" value="&lt;b&gt;&lt;font style=&quot;font-size: 24px;&quot;&gt;Login&lt;/font&gt;&lt;/b&gt;" style="rounded=1;whiteSpace=wrap;html=1;fillColor=#d5e8d4;strokeColor=#82b366;" parent="1" vertex="1">
          <mxGeometry x="-784" y="-2288" width="211" height="53" as="geometry" />
        </mxCell>
        <mxCell id="NcdN86krktzqWG_P-AyI-156" style="edgeStyle=orthogonalEdgeStyle;rounded=0;orthogonalLoop=1;jettySize=auto;html=1;exitX=0;exitY=0.5;exitDx=0;exitDy=0;entryX=1;entryY=0.5;entryDx=0;entryDy=0;" parent="1" source="NcdN86krktzqWG_P-AyI-150" target="NcdN86krktzqWG_P-AyI-155" edge="1">
          <mxGeometry relative="1" as="geometry" />
        </mxCell>
        <mxCell id="NcdN86krktzqWG_P-AyI-161" style="edgeStyle=orthogonalEdgeStyle;rounded=0;orthogonalLoop=1;jettySize=auto;html=1;exitX=0.5;exitY=1;exitDx=0;exitDy=0;entryX=0.5;entryY=0;entryDx=0;entryDy=0;" parent="1" source="NcdN86krktzqWG_P-AyI-151" target="SxZXUM3QAzLFVXpRYPAV-1" edge="1">
          <mxGeometry relative="1" as="geometry" />
        </mxCell>
        <mxCell id="NcdN86krktzqWG_P-AyI-168" style="edgeStyle=orthogonalEdgeStyle;rounded=0;orthogonalLoop=1;jettySize=auto;html=1;exitX=0.5;exitY=1;exitDx=0;exitDy=0;entryX=0.5;entryY=0;entryDx=0;entryDy=0;" parent="1" source="NcdN86krktzqWG_P-AyI-162" target="SxZXUM3QAzLFVXpRYPAV-4" edge="1">
          <mxGeometry relative="1" as="geometry" />
        </mxCell>
        <mxCell id="NcdN86krktzqWG_P-AyI-162" value="&lt;b&gt;&lt;font style=&quot;font-size: 24px;&quot;&gt;MemberListAdmin.jsp&lt;/font&gt;&lt;/b&gt;" style="rounded=1;whiteSpace=wrap;html=1;fillColor=#fad7ac;strokeColor=#b46504;" parent="1" vertex="1">
          <mxGeometry x="148" y="-1990" width="286" height="53" as="geometry" />
        </mxCell>
        <mxCell id="NcdN86krktzqWG_P-AyI-170" style="edgeStyle=orthogonalEdgeStyle;rounded=0;orthogonalLoop=1;jettySize=auto;html=1;exitX=1;exitY=0.5;exitDx=0;exitDy=0;entryX=0;entryY=0.5;entryDx=0;entryDy=0;" parent="1" source="NcdN86krktzqWG_P-AyI-164" target="SxZXUM3QAzLFVXpRYPAV-5" edge="1">
          <mxGeometry relative="1" as="geometry" />
        </mxCell>
        <mxCell id="NcdN86krktzqWG_P-AyI-174" style="edgeStyle=orthogonalEdgeStyle;rounded=0;orthogonalLoop=1;jettySize=auto;html=1;exitX=0.5;exitY=1;exitDx=0;exitDy=0;entryX=0.5;entryY=0;entryDx=0;entryDy=0;" parent="1" source="NcdN86krktzqWG_P-AyI-164" target="SxZXUM3QAzLFVXpRYPAV-3" edge="1">
          <mxGeometry relative="1" as="geometry" />
        </mxCell>
        <mxCell id="NcdN86krktzqWG_P-AyI-164" value="&lt;b&gt;&lt;font style=&quot;font-size: 24px;&quot;&gt;MembergetAdmin.jsp&lt;/font&gt;&lt;/b&gt;" style="rounded=1;whiteSpace=wrap;html=1;fillColor=#fad7ac;strokeColor=#b46504;" parent="1" vertex="1">
          <mxGeometry x="148" y="-1708" width="286" height="53" as="geometry" />
        </mxCell>
        <mxCell id="NcdN86krktzqWG_P-AyI-167" style="edgeStyle=orthogonalEdgeStyle;rounded=0;orthogonalLoop=1;jettySize=auto;html=1;exitX=0.25;exitY=1;exitDx=0;exitDy=0;entryX=1;entryY=0.5;entryDx=0;entryDy=0;" parent="1" source="XOWLojLKpBLkv1eor7Mp-12" target="XOWLojLKpBLkv1eor7Mp-7" edge="1">
          <mxGeometry relative="1" as="geometry" />
        </mxCell>
        <mxCell id="NcdN86krktzqWG_P-AyI-189" style="edgeStyle=orthogonalEdgeStyle;rounded=0;orthogonalLoop=1;jettySize=auto;html=1;exitX=0;exitY=0.5;exitDx=0;exitDy=0;" parent="1" source="NcdN86krktzqWG_P-AyI-173" target="XOWLojLKpBLkv1eor7Mp-12" edge="1">
          <mxGeometry relative="1" as="geometry" />
        </mxCell>
        <mxCell id="NcdN86krktzqWG_P-AyI-173" value="&lt;b&gt;&lt;font style=&quot;font-size: 24px;&quot;&gt;MemberUpdateAdmin.jsp&lt;/font&gt;&lt;/b&gt;" style="rounded=1;whiteSpace=wrap;html=1;fillColor=#fad7ac;strokeColor=#b46504;" parent="1" vertex="1">
          <mxGeometry x="134" y="-1377" width="312" height="53" as="geometry" />
        </mxCell>
        <mxCell id="NcdN86krktzqWG_P-AyI-152" value="&lt;font style=&quot;font-size: 14px;&quot;&gt;&lt;b&gt;사용자&lt;/b&gt;&lt;/font&gt;" style="text;html=1;strokeColor=none;fillColor=none;align=center;verticalAlign=middle;whiteSpace=wrap;rounded=0;" parent="1" vertex="1">
          <mxGeometry x="-340" y="-2324" width="60" height="30" as="geometry" />
        </mxCell>
        <mxCell id="NcdN86krktzqWG_P-AyI-150" value="&lt;b&gt;&lt;font style=&quot;font-size: 24px;&quot;&gt;index.jsp&lt;/font&gt;&lt;/b&gt;" style="rounded=1;whiteSpace=wrap;html=1;fillColor=#fad7ac;strokeColor=#b46504;" parent="1" vertex="1">
          <mxGeometry x="-394" y="-2289" width="169" height="53" as="geometry" />
        </mxCell>
        <mxCell id="NcdN86krktzqWG_P-AyI-151" value="&lt;b&gt;&lt;font style=&quot;font-size: 24px;&quot;&gt;admin&lt;/font&gt;&lt;/b&gt;" style="rounded=1;whiteSpace=wrap;html=1;fillColor=#fad7ac;strokeColor=#b46504;" parent="1" vertex="1">
          <mxGeometry x="206" y="-2290" width="169" height="53" as="geometry" />
        </mxCell>
        <mxCell id="NcdN86krktzqWG_P-AyI-180" value="&lt;b style=&quot;border-color: var(--border-color); font-size: 14px;&quot;&gt;DB의 저장된 멤버의 값을&lt;br&gt;전달받아 목록으로 진행&lt;/b&gt;" style="text;html=1;strokeColor=none;fillColor=none;align=center;verticalAlign=middle;whiteSpace=wrap;rounded=0;" parent="1" vertex="1">
          <mxGeometry x="293" y="-2190" width="204" height="49" as="geometry" />
        </mxCell>
        <mxCell id="NcdN86krktzqWG_P-AyI-181" value="&lt;span style=&quot;border-color: var(--border-color); font-size: 14px;&quot;&gt;&lt;b&gt;선택한 멤버의 id값을 불러온다.&lt;/b&gt;&lt;/span&gt;" style="text;html=1;strokeColor=none;fillColor=none;align=center;verticalAlign=middle;whiteSpace=wrap;rounded=0;" parent="1" vertex="1">
          <mxGeometry x="295" y="-1930" width="228" height="49" as="geometry" />
        </mxCell>
        <mxCell id="NcdN86krktzqWG_P-AyI-182" value="&lt;b style=&quot;border-color: var(--border-color); font-size: 14px;&quot;&gt;수정한 멤버의 내용을 &lt;br&gt;DAO &amp;lt;-&amp;gt; DB 로 수정하여 저장&lt;br&gt;&lt;/b&gt;" style="text;html=1;strokeColor=none;fillColor=none;align=center;verticalAlign=middle;whiteSpace=wrap;rounded=0;" parent="1" vertex="1">
          <mxGeometry x="28" y="-1233" width="228" height="49" as="geometry" />
        </mxCell>
        <mxCell id="NcdN86krktzqWG_P-AyI-190" style="edgeStyle=orthogonalEdgeStyle;rounded=0;orthogonalLoop=1;jettySize=auto;html=1;exitX=0.75;exitY=1;exitDx=0;exitDy=0;entryX=0;entryY=0.5;entryDx=0;entryDy=0;" parent="1" source="XOWLojLKpBLkv1eor7Mp-12" target="SxZXUM3QAzLFVXpRYPAV-2" edge="1">
          <mxGeometry relative="1" as="geometry" />
        </mxCell>
        <mxCell id="NcdN86krktzqWG_P-AyI-191" value="&lt;font style=&quot;font-size: 14px;&quot;&gt;&lt;b&gt;ID 체크와 PW 복호화 진행&lt;/b&gt;&lt;/font&gt;" style="text;html=1;strokeColor=none;fillColor=none;align=center;verticalAlign=middle;whiteSpace=wrap;rounded=0;" parent="1" vertex="1">
          <mxGeometry x="-180" y="-1476" width="228" height="49" as="geometry" />
        </mxCell>
        <mxCell id="NcdN86krktzqWG_P-AyI-193" value="&lt;b style=&quot;border-color: var(--border-color); font-size: 14px;&quot;&gt;작성한 멤버의 내용을 &lt;br&gt;DAO -&amp;gt; DB 로 수정하여 저장&lt;br&gt;&lt;/b&gt;" style="text;html=1;strokeColor=none;fillColor=none;align=center;verticalAlign=middle;whiteSpace=wrap;rounded=0;" parent="1" vertex="1">
          <mxGeometry x="-374" y="-1230" width="228" height="49" as="geometry" />
        </mxCell>
        <mxCell id="NcdN86krktzqWG_P-AyI-194" value="&lt;span style=&quot;font-size: 14px;&quot;&gt;&lt;b&gt;회원약관 동의 진행&lt;/b&gt;&lt;/span&gt;" style="text;html=1;strokeColor=none;fillColor=none;align=center;verticalAlign=middle;whiteSpace=wrap;rounded=0;" parent="1" vertex="1">
          <mxGeometry x="-340" y="-1795" width="228" height="49" as="geometry" />
        </mxCell>
        <mxCell id="NcdN86krktzqWG_P-AyI-196" value="&lt;b style=&quot;border-color: var(--border-color); font-size: 14px;&quot;&gt;DB의 저장된 멤버의 값을&lt;br&gt;확인 후 로그인 진행&lt;/b&gt;" style="text;html=1;strokeColor=none;fillColor=none;align=center;verticalAlign=middle;whiteSpace=wrap;rounded=0;" parent="1" vertex="1">
          <mxGeometry x="-655" y="-1941" width="204" height="49" as="geometry" />
        </mxCell>
        <mxCell id="NcdN86krktzqWG_P-AyI-197" value="&lt;span style=&quot;border-color: var(--border-color); font-size: 14px;&quot;&gt;&lt;b&gt;해당 멤버의 id값을 통해 &lt;br&gt;멤버의 정보를 불러온다.&lt;/b&gt;&lt;/span&gt;" style="text;html=1;strokeColor=none;fillColor=none;align=center;verticalAlign=middle;whiteSpace=wrap;rounded=0;" parent="1" vertex="1">
          <mxGeometry x="-1087" y="-2225" width="228" height="49" as="geometry" />
        </mxCell>
        <mxCell id="NcdN86krktzqWG_P-AyI-198" value="&lt;span style=&quot;border-color: var(--border-color); font-size: 14px;&quot;&gt;&lt;b&gt;해당 멤버의 Session 값을 종료시킨다.&lt;/b&gt;&lt;/span&gt;" style="text;html=1;strokeColor=none;fillColor=none;align=center;verticalAlign=middle;whiteSpace=wrap;rounded=0;" parent="1" vertex="1">
          <mxGeometry x="-984" y="-2458" width="320" height="49" as="geometry" />
        </mxCell>
        <mxCell id="NcdN86krktzqWG_P-AyI-199" value="&lt;b style=&quot;border-color: var(--border-color); font-size: 14px;&quot;&gt;수정한 멤버의 내용을 &lt;br&gt;DAO -&amp;gt; DB 로 수정하여 저장&lt;br&gt;&lt;/b&gt;" style="text;html=1;strokeColor=none;fillColor=none;align=center;verticalAlign=middle;whiteSpace=wrap;rounded=0;" parent="1" vertex="1">
          <mxGeometry x="-1295" y="-1192" width="228" height="49" as="geometry" />
        </mxCell>
        <mxCell id="NcdN86krktzqWG_P-AyI-208" style="edgeStyle=orthogonalEdgeStyle;rounded=0;orthogonalLoop=1;jettySize=auto;html=1;exitX=0.5;exitY=1;exitDx=0;exitDy=0;entryX=0.5;entryY=0;entryDx=0;entryDy=0;" parent="1" source="NcdN86krktzqWG_P-AyI-200" target="NcdN86krktzqWG_P-AyI-205" edge="1">
          <mxGeometry relative="1" as="geometry" />
        </mxCell>
        <mxCell id="NcdN86krktzqWG_P-AyI-200" value="&lt;b&gt;&lt;font style=&quot;font-size: 24px;&quot;&gt;MyPageUpdate.jsp&lt;/font&gt;&lt;/b&gt;" style="rounded=1;whiteSpace=wrap;html=1;fillColor=#fad7ac;strokeColor=#b46504;" parent="1" vertex="1">
          <mxGeometry x="-1197" y="-1542" width="258" height="53" as="geometry" />
        </mxCell>
        <mxCell id="NcdN86krktzqWG_P-AyI-203" value="&lt;span style=&quot;border-color: var(--border-color); font-size: 14px;&quot;&gt;&lt;b&gt;해당 멤버의 수정하기 창으로 이동&lt;/b&gt;&lt;/span&gt;" style="text;html=1;strokeColor=none;fillColor=none;align=center;verticalAlign=middle;whiteSpace=wrap;rounded=0;" parent="1" vertex="1">
          <mxGeometry x="-1070" y="-1929" width="228" height="49" as="geometry" />
        </mxCell>
        <mxCell id="NcdN86krktzqWG_P-AyI-204" value="" style="group" parent="1" vertex="1" connectable="0">
          <mxGeometry x="-1216" y="-1386" width="297" height="157" as="geometry" />
        </mxCell>
        <mxCell id="NcdN86krktzqWG_P-AyI-205" value="" style="rounded=1;whiteSpace=wrap;html=1;" parent="NcdN86krktzqWG_P-AyI-204" vertex="1">
          <mxGeometry width="297" height="157" as="geometry" />
        </mxCell>
        <mxCell id="NcdN86krktzqWG_P-AyI-206" value="" style="shape=image;verticalLabelPosition=bottom;labelBackgroundColor=default;verticalAlign=top;aspect=fixed;imageAspect=0;image=data:image/png,iVBORw0KGgoAAAANSUhEUgAAAQUAAAA6CAYAAAC5zUxdAAALPUlEQVR4Ae1d63JURRDmcSgTQgKB3VgJSVSIAVZZgqASyyoxtd6wkh8qEiKhvJRlKUi5oiL4AKk8BP7kPeJztNVztuf0zM6ZmT1nNgl7+sdmzm1munu+/qbnck6OHB2fBvzNLizDzNw5OP3yq/ITGwgGaogB9H/kgiOcFJAQjp+ck5/YQDBQQwycmnlVSEEIUDoAwUCOASGFGvYE4gC5A4gt+m0hpCCkIEMEwYCBASEFAYQBCOk5+3vOutlESEFIQUhBMGBgQEhBAGEAom69oujbHxkJKQgpCCkIBgwMCCkIIAxASM/Z33PWzSZCCkIKQgqCAQMDQgoCCAMQdesVRd/+yEhIQUhBSEEwYGBgqKQw+colmL7+OZz+7HtofPkQmt88Vj88xmt4D58Rtu5na7GJ2OSgMDAUUjjZeg8aX/wKM/f+ifrhs5jnoIwg9YoDCgZyDCQlhcm5ZWis/xRFBC7CwLxYhjRQ3kBiC7HFfmMgGSlMnXsLmpuPShMCkQSWgWXttyGkPnE+wUCGgSSkgE48c/dJZUIgYsCyhBjEScVJDwYDlUkBw/0UEYImhN48BJYpQ4l+UExMLcGDnU3479878HxraagRVXtrQ9Wz120PtZ5hOL+WfWcV2lOzL5z8PpsMW7fKpFBlDsEmAvscy/YZx743uzIPF+8swOWfF2Hll0W4+M0CzL97ZqAy7DJTnU+0VuH5s03Ye7YBD1rlQVqWFNprq7Db3YDnPUJBUsHf3g5e68CDtaU+59HgE1JQGCpjw1T44eXodhkS4VUiBVwxsB059XnsqsTslTOwcn/R+ZtfnT9wYjgoUmivdRQZEQn4Ujvy0OCrOSlUsSE6c7vVhgdIyIkiO90uh5EUYpYdm9tPYLpzBybeuA5jixfgpbmzMHb2Eky034eTn27DzPZTL7FgHZwli44vbGaEMH99Hianz6gfHiNRvPHtYlQZRWWnuL7fpIARxXo3G2ZQRLC71Ya2FaVMtJYAe0AXaDX4akoKKWxYNrLzYU63y2EjBdx0FIoKGpuP4NiFtxURIBm4fsdXPgiWE7PB6dKPGSlMzeTj8MnTWfRw+X69SIEDEYcru2vl5h40+GpICqlsyMsZ+UgBdyP6SKGx/QSOXbimiODY8hUVFTRud1Wexu3fYfqTu5Bdv+ctB+vAunzMifdwDgGjAvs5GlLY1/f7fD8jBXJmjBB218rPX1A5dZxoJN2r2rBWpHD65g9eZz6x9rUihPHz16B597H72cDQgUgH6wo5MUYDQgpzQOSDYK7aM5Fj1I0UUtqwVqQQmk+gYcP0ze/dhBC5BRqJIWZe4bIVKVCEEJuGSKfqfQJazOqDmuXeyZYD0bmVg+90YL01CyGQ0TzC3rMOrFdcirNJAetexwmzZ9ZcReTwpFivuOENzn+sb3X6VlBw9WS9ZZahZS8Yd1N7oG1tW6WwIdVP7edKeRQ3sdbJVoN67abauZtjgBM8lb1XoFtVrJZefWhu/eV19rGF8ypSKIwSBiAFrCukKDk/PUfnsSnlG1ZKIPSRAnd4F4jwGs4PFO1TmJhqw27PYTmIyuqkwddtGxGISzZffUQmrnx0zZcf5W8jGTAyonyU2o6tZXc4DreTnY/fC8nksyvVT/K50mJSaMOutXTMZaGyX2BS8JMHDRF8aQwp2A0USwb0nJ0/9XmIFDghqMlBXClgPX3Wy+Y9NIKMAwXlzXubanshSHcNvm5Hkc0e7mdgPXK7tarB6yO7vOfdALUC0tPLJgvuJCQDpiSH0tmKCrCMzDZmZER5bMex7WzvGUltQ16f3V5cx7zeDux2cT9LFhnyZ+i4SDe6XzUtHSnEDh9O3fzOG1H4yIDuxQwfbEOQs8emdv7U50FS6IWPCPwi5+AAc5GCBkuCoQPqT+VhXXaPSvYhvVzy4DMEdp9eVI+rDp7f51QkD6W6TBYpcPsVkZjOl8iGvE6f/FzPItl8utG9FGlpUghONN64la08LK1Ac+tPJzE0bv8GzTt/OO8RIWAaM9FoGyOWDOg5O3/qc3IeV4Nz4IQm9agclxOmBjSV53NotJOOBJgD4vVYvXjIzgkxNr+rrUh2HiloOdUyrXtVRuc7QFLwkQfqqmW07O2yQ5lrpUkhtCTZvPcUxpevKmIYe+1NOPnRFqglye2n0PjqIZz48BaMv9JS+xiad//2EkPMkqStPDl7bGrnT31OzuwkhQG2QHNHscGjwZII0LHl6ecskPp0tu1LDst1GiS/XZ4tE52HCI6ec0Utdh0x57724vkpUnDhgz+Hx1pGy972c2XPS5NC1Oal213AJUnXpiW6NvnOx8FdjTGbl2wDxJIBPWfnT33uA3gOCHNc7JLBBzINltSkEABfkfz6eiA/6kmkwCMlnb+EPtoWO6uw3nuxKyMEc5XCtrHOV6JOuyw897UXf34QXbWMEXbldcQelyYFrCA0r4ChP0YMJ27cynY2LizDS/Ovw9jSZZi82oFTGz96IwTMX2Y+AWUjZ49NYw1W9jkfKQzSyD6Q5cBKPdHof0syr9ckNdILnTH2x0mB8vMhQKz9KS+vl0chReXkuqSxoa+9uAx5vaYN+TN0TLqVsQuV4UsrkcJheiHKVjKWDOg5O3/q830hhd4wJOsR3WPmQfTS4Atscy4CNOXnjhk6Tk0K6i3Q3lImrp6E9m5QO6WyYe1IAQF2mF6d5oAnZ49Ned5hHBPYXGNGcp4Y5veBjE/YxZQV0lPLVZEUysqi6y8RJht5GVmGZEltQ197cfsXESt/ho4N3diyNd2vmlaKFLBy+chK/gKWrzF8pJADIhyyctC6wmECTIqejsrivbdLx1x+sycuuu4qw3Utzx+2i51fy94jFLI/2iVEDJQ3hQ1rSQrYGPI5tjAxEChdkQLdQxC6HJ0DngPW9Swnjaoz6FRXaVJgOyz5UiPXx3fMdXHp6surZWdRBpFMiBh4vVVtWFtSwMZBYkjxWbZR/XArOb6LFNB+evbd82UmKgNB7SMQA/w4i259Q8HnTPyedqySwwdTr3JykAyo7yDEQvnsqICuK2Lw6JXKhpwUfORK9cWQEOlg68bbrspx5eEDrxyHElXmGDDvqH6XkRy6iBTovgJr7xsItM0ZgUVf/8HJMtoX7+s9EWT8XYHn3VX10hCVSe3WTvCRFR+gzV43+7YDl0Hphl8mwncbHE7KnUoRYdf8UExmG9xubQ5dfI5D92KIoaoN0c5Un2r7gpfHfDaktqJUl8eiILqXIk1KCiQQrkrELFfSrkV8Nvaza1THi5aS0xeRAupjOzKClv+y2fPiF6Jsm0y0+l+s4eXZxzbJaPA5nJXXFQJ0rBxFPalNDLbceG73sFr2AsehyAzz2nobulW0oWpXNtHJZeeRT8iGXKaQbvzZMsdDIQUSBDcd4W5E+bdx+XcOfKSAdlOvB7teT+69IMUdxAdmagNM9TcCrTfvlEPsbMBud1V9uJXnUfkiv+YcA2iU2/XaM9pDfTjWegHMlkXJgx+fxQ/Nsrcl1ZKjioLMJdiQ43A7hohB1U3fWRzQhqSHixhrSQpkEEnDE5FiI7HRYcHAUCOFw6KkyCEOJxiIx4CQgvwb8uAHbMSh4h1qFGwlpCCkIKQgGDAwIKQggDAAMQo9nehQLbIRUhBSEFIQDBgYEFIQQBiAkF62Wi87CvYTUhBSEFIQDBgYEFIQQBiAGIWeTnSoFu0IKQgpCCkIBgwMCCkIIAxASC9brZcdBfsJKQgpCCkIBgwMCCkIIAxAjEJPJzpUi3aEFIQUhBQEAwYGhBQEEAYgpJet1suOgv2cpDAzdw7whvzEBoKB+mEA/f/o+DQcwT/yExsIBgQDhIH/Abpf35RLs7PyAAAAAElFTkSuQmCC;" parent="NcdN86krktzqWG_P-AyI-204" vertex="1">
          <mxGeometry x="22.003333333333558" y="17.0033333333335" width="261" height="58" as="geometry" />
        </mxCell>
        <mxCell id="NcdN86krktzqWG_P-AyI-207" value="" style="shape=image;verticalLabelPosition=bottom;labelBackgroundColor=default;verticalAlign=top;aspect=fixed;imageAspect=0;image=data:image/png,iVBORw0KGgoAAAANSUhEUgAAAMoAAAA8CAYAAAAnriWsAAAJsElEQVR4Ae1c61JcRRD2cVKBbCAQdteCAIkJEkLMgZiowbLKSK23WPBDjcAGUhorZWkwJUaNiQ9A8RD4k/fA52irz6F3e4e59Llll2z/2Jpzmenu6fm+7jkz5+wbpwZHQX/qA8WAHwNvqIP8DlL/qH8QAzFRxqdmQX/qA8WAHQMdRKlPXIGxNy/pT32gGGAYQF50EAVJcnZkQn/qA8UAw8D5+iUligYGDYwhDChRWNQIOUvv9y+hlChKFJ1iCTCgRBE4STNJ/2YSGnslihJFM4oAA0oUgZMoqmjZv5lFiaJE0YwiwIASReAkzST9m0lo7JUoShTNKAIMKFEETqKoomX/ZhYlihJFM4oAA6URZejiDRi98xWMffkIqt88hdqD5/EPj/Ea3sM6GqX7N0qfpLEvnCgj8x9C9etfof7wH9EP62Kbk+Q0tbX/yF0YUYYmZqG68pOIHDYSYVuUoSDsPxCehDEvhCjDV96F2vqzzCQh4qAMlHUSHKc29hehcxMFgV3ffJGbJEQWlKVk6S8QnoSgk4soOFUqIpO0SHL0XIMydRqmZOklAuUiSp5nEpMc5jnKTuOo8cVJuLYxBQs/T8PiL9Nw7cEUTH5wIZWMNPqKqFtZbsB//27Ev73lcbGtleEI9vbXW21Jhq083F2CaNgtO1pegu2dVTgw5B3ursLBzhKszLvbVuZnYAXb7rZtOdwPtyPfRc3VQvpA8irDM4D92dvtlIt92Vue8fqBZLjKzETBlSoT3EWfS1fDxm9egMUn09bf5NKkGIAuJ5VxHQd1mwNsJxLbWQRRKvMR7DH9NpLhNRfRombjGLlMGQeBPhVJlMo8EqRNWNMWPE8TjMwxz0wUyRJwbesFjDY2oHL9DgxMz8HpicswcPkGVKKPYOSLLahvvfSSDXWYBtvO59YTkkzemYSh0QvxD4+RPNe/nxbJsMkt8xoOLI/iGIm3PdGb28KJkmXwuW5XtI0wWyAZdo5nJAJ4kj0iiJjdSEDMUATUg+aM0/8rOwmwDwOE4n23HXf2pwHbRvaIjmzK4ivSl4kouFEYyh7V9WdwZu69mBxIENvv7OLHQTmSTckbjxOiDNfb8/qhsSTLLDzpTaK0wIZTnKNpjw9UNGBY5iEKz2SubMF12Y7R9sPdhnda1iLBfgNWHFM/qiPtt80W7gsknG+aaWsvvZaJKLir7iNKdesFnJm7HZPjzOzNOHtU13biNtW132H0801Irj/0ykEdqCvUGXwmwexh1qPpmHm92+ccrAfNCAgwUuBycKSNkjz6pm1LfsPnABf4qY5ED/U7D1FIhtR3ZF/aMhNRxu796AX4ueXvYpIMXr0Ntc3n9rqBaRcREXWFOoVZ40QR5eghnqZbaR/qu02U0Hjg/c5gcHz6Fbov05EsapAfJW2y1slElNDzCU25Ru89spNE+HoLkkXynLJgZBTKJNIyq/OytjOjIAe+ZL7O66fNCjzS54nkob6HiMDvp+0D6W5PX48/R1GdospMRKk1//ISYGDqapxRnNkkBVFQV6izRAiqR+fSktq9ipKDnAO1RR7PnJ7s4zLSgowDtMxIHLIxdJ/66ip5P7gfXfXzXi+ZKH5C0fTKV0qIYjpBShCqZ7Yv87wVBY1VLh7pQ+DPDTJjxQ2XcYt+CKbppIuM1AfX/dAYUHu+7BstNzLv6YT0ZSKKdOp1/t4P3szjIwjdk0y9zE4SAaSl2b6scx4FzSlWx73AJqENJGlt5sREsCFg95rFEKajL46lX94HWkqmMl6yRlvYsrPZP7I/IRpufPr3UPJmnUxECT7M372frHjNLEKt+aeVLNW136C28Yf1HpEES8nDvOlEKUGontm+rHMaXB4FuS5XtuF18NgHMgIblqFojYDGnXWzDe5imzql54nMo/0RI2tyGdwXXL957AI4tT/cb8D20Q5/nBkZuXD/hG9ChjI1t888zkSU0PJw7eFLGJy9FZNl4K13YOTTJsTLw1svofrtUzj3yX0YvDgf77PUNv/2kkWyPGx2igggLc32ZZ1T1MPBtS2v0uAjWFwAQduKIgr1M9mlNwgT2CehtrzsyCQeklAbW8bA12LMKZTNFzS1I2K5yN1pk93vZI+vzEQU0Ybj2g7g8rBto5GuDb3/WXB3XrLhaHZQShCqZ7Yv45yD25x2kT7poHJZeaIk6aUyeU+qPYUJZSRqhyW2pY3TNO24DH4cykycKC5/kjwegLL6KxNR0IDQcwpOmzCznLt7P9mhn5qF05Nvw8DMAgzdasD51cfeTILtszyfoG1EAGlJDi2z5APrGyyafmGkdNUriyjUf25DaCMvAXQ7G4Xqkw5JyftpZhWpP1EPD0CmHIkdWCczUXrppUizs1KCUD2zfRnnNO2iqYKkdEVKDiAXmfL2gZPFpYO/WIlZZM/zXldWe8hvpi/SZgmXHKldmYmCCnrpNXveYSKAtORtyzjmgyohCNVxTWFeBVG4DhOk6CPep9B7X3l86gI4t89FZK6X5LzyjIJG6Idb7Zcw+aCYxxSdXQ/xZn0OQtvApgWJKV9yzqcrJlG4/iKnWja7CODHbWh/pmDzEZfF+xKqy9vx41wZBQXpp8B+svBBMgebDwQ/7mhj2VPhQJVEUy5besx1mOBqgdexeifVEarHA4atn9IARM8zrgwdsgPv5yYKCkGyFPFJ8Ov45xI0SDidsg22a5B87TiI08h06bJdJ/0muLhuk0A2OVmvdQQLByG5La4g1CHHsfkpsbEQoqAinIbleWbBtq/jd/JZo68PBPxeWqLEUXoXN+kiWME9C+NbEfq8t/WcZICLorxJIAnYeJ34C8n4U+NOGxDYfB8F9fj6SFkF7TU/XebL3dJpL7eRHxdGFBKKq2GSpWPafce60k9+ScdJKTmgs0RfF8m4XAK0r+RAI6D76tM92ztglGmojqS0gZQD3CVDSsaQrCIWGwonCoEYNwpxV72f/1KVBlA64OQ7KjmoOdHyEAVlJ5/G4guE7a8rCax4LX7ni70KQvZgWRRRMHPEnxqbfwSBf06BGc/4nJfbYDumT5Bp0xP703pnzMiatvaha6URJaRY7/sXAdQ/veUfJYrgn8wVtL0F2m6MhxJFiZL5TeFuALZbOpUoShQligADShSBk7oVxVRv70z5lChKFM0oAgwoUQRO0sjeO5G9W2OhRFGiaEYRYECJInBSt6KY6u2dTKZEUaJoRhFgQIkicJJG9t6J7N0aCyWKEkUzigADShSBk7oVxVRv72QyJYoSRTOKAANKFIGTNLL3TmTv1lgcI0p94kr8fTDe0J/6QDGQYAB5cWpwFP4HucteUiw0UC8AAAAASUVORK5CYII=;" parent="NcdN86krktzqWG_P-AyI-204" vertex="1">
          <mxGeometry x="22.006666666667" y="75.00666666666694" width="202" height="60" as="geometry" />
        </mxCell>
        <mxCell id="NcdN86krktzqWG_P-AyI-209" value="&lt;font style=&quot;font-size: 14px;&quot;&gt;&lt;b&gt;ID 체크와 PW 복호화 진행&lt;/b&gt;&lt;/font&gt;" style="text;html=1;strokeColor=none;fillColor=none;align=center;verticalAlign=middle;whiteSpace=wrap;rounded=0;" parent="1" vertex="1">
          <mxGeometry x="-1277" y="-1439" width="228" height="49" as="geometry" />
        </mxCell>
        <mxCell id="DKM9fjOaE4jbEmVFJ7oZ-3" style="edgeStyle=orthogonalEdgeStyle;rounded=0;orthogonalLoop=1;jettySize=auto;html=1;exitX=1;exitY=0.5;exitDx=0;exitDy=0;entryX=0;entryY=0.75;entryDx=0;entryDy=0;" edge="1" parent="1" source="DKM9fjOaE4jbEmVFJ7oZ-1" target="HEAWCpbGmRsyPqDrCjQY-25">
          <mxGeometry relative="1" as="geometry" />
        </mxCell>
        <mxCell id="DKM9fjOaE4jbEmVFJ7oZ-1" value="" style="shape=image;verticalLabelPosition=bottom;labelBackgroundColor=default;verticalAlign=top;aspect=fixed;imageAspect=0;image=data:image/png,iVBORw0KGgoAAAANSUhEUgAAAfMAAAA8CAYAAAByxlOeAAAU2UlEQVR4Ae1d63IcRxXO41Cxo9ixY0mUHdsJseM4CpGdCxBRVBFU4pJQ0g9CsK3YKQiVoiAmhQgQHB5A5YcwP/Ue5jmaOr379Zw525czt9XO6vzY6tmZ7tPn8vX5umd7Z575zunzzj7mA8OAYcAwYBgwDIwXA89Y8MYbPIudxc4wYBgwDBgGCAM1Mr945Yazj/nAMGAYMAwYBgwD48LADJmvX7rmLnz3FfuYDwwDhgHDgGHAMDASDMyQORH58+cu2cd8YBgwDBgGDAOGgZFgwMh8JIGyCZZNMA0DhgHDgGEghQEjcyNzm3kbBgwDhgHDwMgxYGQ+8gCmZml23mbwhgHDgGHg5GDAyNzI3GbkhgHDgGHAMDByDBiZjzyANvM+OTNvi7XF2jBgGEhhwMjcyNxm5IYBw4BhwDAwcgwYmY88gKlZmp23GbxhwDBgGDg5GDAyNzK3GblhwDBgGDAMjBwDRuYjD6DNvE/OzNtibbE2DBgGUhgwMjcytxm5YcAwYBgwDIwcA0bmIw9gapZm520GbxgwDBgGTg4GBiPzMy+/5c6//2t34cPP3erHX7m1T7/xHzqmc3SN6hjYTg7YLNYWa8OAYcAwMAwGeifzcxs/dqu/+atb/+w/qg/VpTYW4GECbH41vxoGDAOGgeXHQG9kfubSDbe6+ycVgceIntqSDAPd8oPOYmwxNgwYBgwD/WKgFzI/e+0dt3b369ZEDnInGSTLgtxvkM2f5k/DgGHAMLDcGOhM5kS+6/cfdSZyEDrJMkJfbtBZUrH4GgYMA4aBfjHQiczptngfK/JA5NPf2Umm3XLvN9CLOHA29/fc//57zz093HKbZy/aHZk5/bNi5ex19/Dwrvf90f518/uc/H7cY9Divhg5dai814nMu/xGLglcfifZTcB/8fZl98a9K+7Wn6+623+56t749Iq7/KOXGslo0l+TuitnN93jJ5Pk+fTJnnu40Z64Vja23FGQteN2R0yCQ4G6SWya1l3Z3plMQJ7ofc/j/3i7feyb6pqqvyxJnY8FmhTKz9PDPXd0sOV2O4y3lA+HOA9skR1D4GRR4o5xf3SwOdf8vLm95R4f7Lmj6UQWePE4OdxxD7evz2VRAfv7XsS0JnPagS4JuO/v2l3uF99+yd3+8mr0c3nr8lwBExvkPJkTgJ52ADGA4OU0IJSYXsd9Drb0Deoh7ULCfdrA9zz+QyTppvbOI6lvbmy6h5Q4B1z5l8gcyZpKIo5FvvvDY9I1R6TwwPsYMi6p/uk8HwtdFza5fvi1ze2dsADimIgdx/zSN5aHynutyVzz97O1B4/c+Z17buXN992pqzfds5dedadefcutbP7EnfvVA7f+4NvshID64EFJHd+8OyHyy+9fdmfOv+Q/dEwE/+bvr6pkpGT3cZ4D2A/UlqvzWTn61WEfdvQtYyhQ960nl2dkXr5VOS/SAJmnSIGS8OPDyU85QxEkx0aXY9gCgknZ1KmPBfl5BeN+6JU54XD3YHJH1Mf/cM893t90m+JOzcrGdUer9tjkcwgsw/6+FzGtyJwe9lJaha/e/do9d/MHnsCJxGOf52//tChH82CZt76YkPnZ9SrRnLkwWa3f+nJxyJwGKG7xxGaApYFagWDPzzSbrA5Lso/jemXPeH4zNzKvxlgKM0MkwFhfIMAS8fGEvgh3RmK2VGNhMraJfNrkiJhsnJtXXNDfcZbcVsLH4+12e0O4nL7iUcW637zXiszp6W05Ml998Mg9d/M9T+DP3Xjbr8JX7xz4Nqt3/u7O//K+m5z/LCuH+qC+SqCg38hpFS7r4da7PD/v71hRe1AdTDd9NbhNS/pChh/kB5PbRkbmZWLpO9ZG5mWfD5EAY3HUkjkfO11+4orp0Me5ur82w2qy75VbvZ925NaHvfOQAcKkfNllAjeEz6Bb3/FtReYXPvpjloRf2P6dJ/LTr7/n1u5/E69buMWOyQL1VQo+rb7HQOYTYFWb4ZrM9Gok0mITVsmHx3F9KFAPaUstDsrNh5xMuiSWvuwaIkFx3YaWj770ZF7t3u87gUKXLmWFqcnmWHzvSkRSp3nFRfY77+/AhV/4dNyzMYTPhsp7rci89Hs5bq+f/+jzOJErH/VKhK753fyWWJljRa4thwabTOYhmMrVuQQUBrtmZe53cLLfDT3AD3fc7kZ6Zh70m/5lbGW6mYna0sf/XCA2FJGOu/v1jSa0SzR3e2umn7P029VO+Cmi6ku/I7mNvdKf3t/TOyjeXywhyLoa7Mj4yzbz9cNFJ/Ek9aHvPuYUT9oRPv33BOJ/5PEzuysfdqBerExNZlrFbfrPjtJtdrIHt9olmct45mLP/YQxgZ/NYCv5hnZF87qlY6kbx0vTOwlpP5bjjvjBR7ARtvU17oO9kY3AQYfpNZ9XaCMlw+DTgo+DfGV+jcUHesD2WMmx3ARHkA0/x/pvc64Vma/t/ytL0qeuvO5X5slVeQMyp75KhoG0UQ/ftSXaDVXywUkA4DNHDohU/xVQ6jP3HJljEMRAiHOpOwM1sLG/wqEdSoDR2yf+7oE6VKr6YZtzeFsc+58oMn/r6mJv5V/aUEibpqpNM1L/et1ZQovFUMZf1qn5uwc/4D/k8J0saYKFOrHYcH1lW/5dtoUdvI48lnjvFDclmVMfsFeSYz2e+dhT3DT6ks1EOJq/jXJfc382JSRuo/Q5vpfijvj5cT3guA+2Fcic50nYwEvuL4yplD9xXVvCF7w/ecyx3ARHkI38qdWpVG9gMs+TPm6l50oNmUsjtSSOerJ93985wACAAOjCA1P4IEUiqgMnTihBPm3+oB2c01vCMhlBH25zBbbpRrvDamUs2x/tb4ZEScehH7+TOP/f+qof2kl616/4ua6kE600MCvPrcC62Mv9+djrQXcu4n7ldTXJmmyIxT/u725+qGFFxB2+zE1UoJPXl1Y/fudvfZVJqzXISMWD6xFLuOiHyk5x05I5IyapD49nKfZcX0rs/u9uDCe0K5rfndIQehgD4h8unMhiY5T7kPvbT3rZOKR6k9V6eoIKWUGX6d0YIhuMgz7HfYh5lsx3/LM5vA/ZXcTNja0s/qp4dnueB3zCfSuxgzpUVv3uuBKOKj8vwAY47W32Fz/6Q3YFnyNxXNPcZudOpWOQtLaU7fv+Hkvm2sGKejxxcuDECAXXKeGkEkEAVORWFK5R+9TsEQMSs9UY0Lndseu1fkQy4zHgcjChqV2f7iFoay/3F/cz7wPHqJu7K4K6KLn+sXjM0w88OZG/YnGB3qkSmEy1533k5MOXreOmIHOuSyxmXAdt7Cf61ic53Fcl/6BuTTdBbLVrpQm/Av9cXipuNRwm+uxj3ENGbCxrdMj5F+1jsYbfm5Tcb1osl3AUdEz4uIl+vG6rlXlxA9wHn0x2sl+/7db2/xkl9NU7f3Nr9/4RvQYip1KzAY4bRMdaEkc92b7v77FkzkESAzV0iAEfCSgGWK3cmE7oM4AtR7BstZMifJIX01/2k0ouqEdlZXN9xt2HvZDdTA/dbVSvO3sCYInMcwmjDz94GSx2pf6ofuyTiyuPSUo+r5PDfw6nSOqx5Eny+f4LqhPzvTb2Wn3hq2oMpXEC/SeTg9k7QZWMOubRB5VN9OL9xeKi6o9hp+24z2EHOqR8AtuDDEGIaB/LjWjbpOT+jfkMsrQ4ovpBR6E7ZLUtW5F56a9pa599607feNcT+qnvfd+d+/m+839Ne/CtW/3tV+6Fn33iTr+84f+Hvnb/31lC1/w1TRoPktaWsn3f31MJCQCIJSPSgQ8+noiqdrOJAm1SMrltGBASpAFskVU72nObZHvUoTLIigA3XMv0A1m8v5ovFKszyEjZW/kznTQho6o763vUkWVKd9Sbtx+0CQr6xUr4MkbEGvl94BQyKPHnPrmxUMUzH3v0lZPF/YT6OVIKPkzgn8tIjTHU0ehViosGhxzLKZ3ID0FWZNwHu8XdiFI77t+U/HA+4VMuQ3Nc8hlkaHFE9YOOEd9AXpuyFZmrHhpz58DRX9NiD4vBuTM//EXxKXCah8ZIw7Ukjnqyfd/f+QCoEVFmYw7pEEAvgl4BZ5ZQwjXRJmZTkC8GlQZsKZtkPzlZuWtSTmpQ9WFvkKFIAE3qwoaSr3r1g8YGhrtcQib9ye/0JLVd/1zrHf9ENexhIKJqTeb4e2UHnILIUkROO/Fp0xf2cSAevNTGU1sPslN4ra5Xf1GN+ZDqcRmplWYTvbi8WNw1OCxhGfblZKXyDrXNtYNs7xvgR+A9tBfnedsmxyWfQVaTOAQdFdiHfE3ZisxJcOl3c7pFTiv0Fz74ZPIkuCs33LOXX3Onrt9yZ97dcS/ufZFdkVP7Nr+Xk24gaW2pcVSXOrkBkAJBmzakI4CSSnCx8zKZQEbuNlpOP+6rnKzcNS6DjlODCjJidqXOSXtTMZA6eD0SSSRWF+dKvoINOX9Xsqqd2Twh9yEDfVAZ2zQV86f0JbVNxaomf/rGvJjM1DnZF8hcsyrlffNjbeyb+FfjA/RLtvIJPteNjtFvqh6ud8EO+tTIKmFZI0tF5mKBAbko4T85yanO5++0QE6p1GCZZFT9zi6wZB8aP8s2mu+tyXyRXrQiDdWSOOrJ9n1/zw0Afi2anCMzzBxwAJRUQoydl0kSMnIJguutSUYxWZp+EIvUoIKMmF2pc9LenD/RP8omdUMb5W/mMR9BBsqSH7rIQB/cp0SURweTne272/Rc68lKN5eQUzpCPpW8j1Sc5PmZuDX4iYX3zY+18YS+Gv+S/JIP4D9pY+67tJ/7UaNXSSeNjX2Me9ietactmbPf9HN5iWMgd1zyGdpqcdQ0ZpCvKVuTOQlfpFegcmNB0tqStx3iuDQAwiCaEjevzwkeuuWAE2R1uIWjkcF1zA2anKzcNdiKMtVfExmQJcucP9N19TN/6J5aQTaxAbIo6XO/N5MRX92TrVjtkvwY9uCPXELWJMAm+qJPWULXlF9l/dh3beyDvpHJdVQu+ymDx4nqQu8ccceuxewMeinGeykuGlkp/Ekf5GTlsBPatSVzNnHWTHCk3vJ7yWeor8UR1Q82KmIG+ZqyE5mfuXTDrd39uni7nO9O1xyTTJKtMWAMdUoDQF4vASN3PXdN6ysN2KTOKdk5WeGaIkEiAcqE1oe9TWRo7eb+KMnv1w/lSQa3QRJ20KWQaHIJWZMASz7h/ksdpzCRqh87r9WjaV+5+sHHCtyTzpAVm2BV+neLO/UT9MrEnmNHTlK4f3OyctgJ7VqSObeD/JXTkeubOtZgmdpWcRjhbXYYf/baO279/qP+CP3+I0cyIX8ZSs0ACCA+3GIPYYn/lzUHHE1fJZ9yXVKbh7T95GThmmbQhQQgEo1Wj5zNOX/Kdnxwa2f+QfdEgurFD+z2oiRoaQPvT9bFtZxt3OexW6XcR1I+dOEy2iZckJyc4KEPTamNPdc3ZrPsK+VH7huNHJJbayPx31PcqZ+Uztw27odc3HKycuMhtEuMFeiSixvXUf6mjvbakvs+hWWSldNH9hVsFLGU9Zp+77QyR2dEvn2s0EnGshE5+YiDKzUAkJhwey2XoErACYOFZv7sCVWIV6nUgE1jE/WTk4VrZHNu0MHeFOl3tRfyczpwn6E+6ZMb4N7+sGEuvXLq3w/pviTOpP7QJeULSm7wt49bJOnyBJgjLMjxfbXAKWzJjRUet9gxYpmyl7eBbyY4jE+0qT70iuEV/cWu8b7kca5d5cf2caf+YJ92IpfKZSVZQd8IdoIOkWvcJ/BHKm647jHaMg9Sf1oso7+UPlz3YOMikjkpSrfFu/yGTm2X6dY6D56W+AByD8AMmEvA4f1RopN/zyGA0t+NHtKLNCL9aMDG+2g7qKt+po+NpYfUsJdUeOJgL29JJRmuSxt7S/7kscQxj9XkxSP15O79m3hZC2Sg7M0PbJUm/eBjTi+xeXLXPzccj2SVZM6JaPIozephJniUq5eNV/lG8EN2BZtETGEzlZ3jNrWX9HnYYjLgdQiTrfLtUZ7YaYzOPM5VvGwoNpEBbjRJP+kr4fNazMR418ad+goxy5AMj1nbcR98IOyo6RC5VvOHIm40rvnfKI8O6PG0s39V9Js6t+lRynvRyXnwSw7LCn2gf5CX8TPqNil7WZnzDmmXu+Zva/jtnOpSGy5j2Y61AwCDspScNOSDxEtJJ/eJJRwN2LQ25WTVromBJ3VOETmw0sVejT/RD0qf2BlZS335d0mYkIGyVz8U/Uikld4ARzpBH24DjieThIuhTgw/JANYRjuUkgA6xW3OZO7tIt8p4u6JXrwil4+ZEiaADV4GEoz81i6JC/5GOXlOvC7uubHGbZCx5LoCQzFZwY4IYYd2kWtcvnbMavEFP8XiosGyVh+yIdi46GQOh9PDXujpbRc+/NytfvyVW/v0G/+hYzpH19o8EAbyx1RqBwDZRECPDQBurxY4RDj+xQ/iLWCUkP2rGsULGdCHBmxam3Ky5DUaeDJRNnmlZFt7tf6Ef3iJFbh8FaZ//at/UUm1suXt+HHvfqAXfsy8NrJ64Y6fiEwxEUtepFv0VZp+ZTOxJ+icSbqxRBojgNZxOwYyR9xC3PmrOf3f+KqXk6AuyuCzlncSOKnE4uZf9NIh7kG/DMn0Me7nSebB99PcIscpkbh/uNDBVu2uINqhLGG5SQ7R+Bn9Nil7X5k36dzqxp97bX45WX4ZanAbjk4WjizeJzveRuaJF0nYwDjZA2Oe8TcyN6zNE2/W13LizcjcyHyp9yuMIXEZmS9nch0D9kzH5cGekbmRuZH5MWPAyHx5EqqRo8XyuDBgZH7Mify4Am/9Lk7SMTJfnFjYuLBYjBUDRuZG5rYyP2YMGJkbgYyVQEzvxcGukfkxJ3IbDIszGI4rFkbmhoHjwp71uzzYMzI3MreVuWHAMGAYMAyMHANG5iMPoM2sl2dmbbG0WBoGDANtMWBkbmRuM3LDgGHAMGAYGDkGjMxHHsC2szhrZysAw4BhwDCwPBgwMjcytxm5YcAwYBgwDIwcA0bmIw+gzayXZ2ZtsbRYGgYMA20xYGRuZG4zcsOAYcAwYBgYOQaMzEcewLazOGtnKwDDgGHAMLA8GJgh8/VL19yL66/Yx3xgGDAMGAYMA4aBkWDg/wQYFSJR6XGlAAAAAElFTkSuQmCC;" vertex="1" parent="1">
          <mxGeometry x="-1317.003333333333" y="-1003" width="499" height="60" as="geometry" />
        </mxCell>
        <mxCell id="DKM9fjOaE4jbEmVFJ7oZ-2" style="edgeStyle=orthogonalEdgeStyle;rounded=0;orthogonalLoop=1;jettySize=auto;html=1;exitX=0.5;exitY=1;exitDx=0;exitDy=0;entryX=0.5;entryY=0;entryDx=0;entryDy=0;" edge="1" parent="1" source="NcdN86krktzqWG_P-AyI-205" target="DKM9fjOaE4jbEmVFJ7oZ-1">
          <mxGeometry relative="1" as="geometry" />
        </mxCell>
      </root>
    </mxGraphModel>
  </diagram>
</mxfile>
